<?xml version="1.0" encoding="UTF-8"?>
<svg width="1024px" height="400px" viewBox="0 0 1024 400" version="1.1" xmlns="http://www.w3.org/2000/svg" xmlns:xlink="http://www.w3.org/1999/xlink">
    <!-- Generator: Sketch 60.1 (88133) - https://sketch.com -->
    <title>changes-not-showing</title>
    <desc>Created with Sketch.</desc>
    <g id="changes-not-showing" stroke="none" stroke-width="1" fill="none" fill-rule="evenodd">
        <rect fill="#000000" x="0" y="0" width="1024" height="400"></rect>
        <g id="text" transform="translate(277.000000, 186.000000)" fill-rule="nonzero">
            <path d="M119.416992,21.0791016 C120.15918,21.0791016 120.879395,21.0180664 121.577637,20.8959961 C122.275879,20.7739258 122.957031,20.5859375 123.621094,20.3320312 L123.621094,20.3320312 L123.621094,17.9589844 C123.015625,18.2714844 122.388184,18.5058594 121.73877,18.6621094 C121.089355,18.8183594 120.417969,18.8964844 119.724609,18.8964844 C118.191406,18.8964844 116.992676,18.4545898 116.128418,17.5708008 C115.26416,16.6870117 114.832031,15.3564453 114.832031,13.5791016 C114.832031,12.7294922 114.958984,11.9677734 115.212891,11.2939453 C115.466797,10.6201172 115.813477,10.0488281 116.25293,9.58007812 C116.692383,9.11132812 117.202637,8.75244141 117.783691,8.50341797 C118.364746,8.25439453 118.982422,8.12988281 119.636719,8.12988281 C120.339844,8.12988281 121.020996,8.20556641 121.680176,8.35693359 C122.339355,8.50830078 122.986328,8.75 123.621094,9.08203125 L123.621094,9.08203125 L123.621094,6.65039062 C123.015625,6.40625 122.380859,6.23046875 121.716797,6.12304688 C121.052734,6.015625 120.339844,5.96191406 119.578125,5.96191406 C118.484375,5.96191406 117.483398,6.14501953 116.575195,6.51123047 C115.666992,6.87744141 114.885742,7.39746094 114.231445,8.07128906 C113.577148,8.74511719 113.069336,9.55566406 112.708008,10.5029297 C112.34668,11.4501953 112.166016,12.5048828 112.166016,13.6669922 C112.166016,16.0888672 112.793457,17.9296875 114.04834,19.1894531 C115.303223,20.4492188 117.092773,21.0791016 119.416992,21.0791016 Z M131.238281,20.8740234 L131.238281,11.1181641 C131.736328,10.5322266 132.175781,10.0439453 132.556641,9.65332031 C132.9375,9.26269531 133.289062,8.95263672 133.611328,8.72314453 C133.933594,8.49365234 134.243652,8.33251953 134.541504,8.23974609 C134.839355,8.14697266 135.15918,8.10058594 135.500977,8.10058594 C136.291992,8.10058594 136.899902,8.38134766 137.324707,8.94287109 C137.749512,9.50439453 137.961914,10.3515625 137.961914,11.484375 L137.961914,11.484375 L137.961914,20.8740234 L140.510742,20.8740234 L140.510742,11.2792969 C140.510742,9.48242188 140.110352,8.13720703 139.30957,7.24365234 C138.508789,6.35009766 137.375977,5.90332031 135.911133,5.90332031 C135.481445,5.90332031 135.066406,5.94726562 134.666016,6.03515625 C134.265625,6.12304688 133.872559,6.26953125 133.486816,6.47460938 C133.101074,6.6796875 132.715332,6.94580078 132.32959,7.27294922 C131.943848,7.60009766 131.550781,8.00292969 131.150391,8.48144531 L131.150391,8.48144531 L131.238281,6.16699219 L131.238281,0.17578125 L128.689453,0.17578125 L128.689453,20.8740234 L131.238281,20.8740234 Z M149.53418,21.1376953 C150.442383,21.1376953 151.309082,20.9619141 152.134277,20.6103516 C152.959473,20.2587891 153.772461,19.6875 154.573242,18.8964844 L154.573242,18.8964844 L154.631836,20.8740234 L156.916992,20.8740234 L156.916992,10.7373047 C156.916992,9.91699219 156.785156,9.20410156 156.521484,8.59863281 C156.257812,7.99316406 155.879395,7.49023438 155.38623,7.08984375 C154.893066,6.68945312 154.290039,6.39160156 153.577148,6.19628906 C152.864258,6.00097656 152.063477,5.90332031 151.174805,5.90332031 C150.686523,5.90332031 150.203125,5.93017578 149.724609,5.98388672 C149.246094,6.03759766 148.787109,6.10839844 148.347656,6.19628906 C147.908203,6.28417969 147.490723,6.38427734 147.095215,6.49658203 C146.699707,6.60888672 146.34082,6.72363281 146.018555,6.84082031 L146.018555,6.84082031 L146.018555,9.140625 C146.87793,8.79882812 147.710449,8.53515625 148.516113,8.34960938 C149.321777,8.1640625 150.139648,8.07128906 150.969727,8.07128906 C152.112305,8.07128906 152.961914,8.33251953 153.518555,8.85498047 C154.075195,9.37744141 154.353516,10.0732422 154.353516,10.9423828 L154.353516,10.9423828 L154.353516,12.2314453 L151.306641,12.2314453 C149.158203,12.2314453 147.534668,12.6489258 146.436035,13.4838867 C145.337402,14.3188477 144.788086,15.4736328 144.788086,16.9482422 C144.788086,17.5439453 144.878418,18.0957031 145.059082,18.6035156 C145.239746,19.1113281 145.522949,19.5532227 145.908691,19.9291992 C146.294434,20.3051758 146.785156,20.6005859 147.380859,20.8154297 C147.976562,21.0302734 148.694336,21.1376953 149.53418,21.1376953 Z M149.944336,19.0136719 C149.495117,19.0136719 149.114258,18.9550781 148.801758,18.8378906 C148.489258,18.7207031 148.235352,18.5620117 148.040039,18.3618164 C147.844727,18.1616211 147.703125,17.9321289 147.615234,17.6733398 C147.527344,17.4145508 147.483398,17.1435547 147.483398,16.8603516 C147.483398,16.4501953 147.554199,16.081543 147.695801,15.7543945 C147.837402,15.4272461 148.054688,15.1464844 148.347656,14.9121094 C148.640625,14.6777344 149.016602,14.4970703 149.475586,14.3701172 C149.93457,14.2431641 150.481445,14.1796875 151.116211,14.1796875 L151.116211,14.1796875 L154.353516,14.1796875 L154.353516,16.7871094 C153.513672,17.5585938 152.715332,18.1225586 151.958496,18.4790039 C151.20166,18.8354492 150.530273,19.0136719 149.944336,19.0136719 Z M164.226562,20.8740234 L164.226562,11.1181641 C164.695312,10.5322266 165.117676,10.0439453 165.493652,9.65332031 C165.869629,9.26269531 166.21875,8.95263672 166.541016,8.72314453 C166.863281,8.49365234 167.17334,8.33251953 167.471191,8.23974609 C167.769043,8.14697266 168.074219,8.10058594 168.386719,8.10058594 C169.236328,8.10058594 169.875977,8.37646484 170.305664,8.92822266 C170.735352,9.47998047 170.950195,10.3320312 170.950195,11.484375 L170.950195,11.484375 L170.950195,20.8740234 L173.499023,20.8740234 L173.499023,11.2792969 C173.499023,9.48242188 173.11084,8.13720703 172.334473,7.24365234 C171.558105,6.35009766 170.413086,5.90332031 168.899414,5.90332031 C168.469727,5.90332031 168.054688,5.94482422 167.654297,6.02783203 C167.253906,6.11083984 166.86084,6.25488281 166.475098,6.45996094 C166.089355,6.66503906 165.696289,6.93603516 165.295898,7.27294922 C164.895508,7.60986328 164.480469,8.03222656 164.050781,8.54003906 L164.050781,8.54003906 L163.948242,6.16699219 L161.677734,6.16699219 L161.677734,20.8740234 L164.226562,20.8740234 Z M183.84082,27.0263672 C185.09082,27.0263672 186.169922,26.8945312 187.078125,26.6308594 C187.986328,26.3671875 188.73584,26.0131836 189.32666,25.5688477 C189.91748,25.1245117 190.354492,24.609375 190.637695,24.0234375 C190.920898,23.4375 191.0625,22.8173828 191.0625,22.1630859 C191.0625,21.5576172 190.937988,21.0253906 190.688965,20.5664062 C190.439941,20.1074219 190.093262,19.7216797 189.648926,19.4091797 C189.20459,19.0966797 188.672363,18.8574219 188.052246,18.6914062 C187.432129,18.5253906 186.755859,18.4326172 186.023438,18.4130859 L186.023438,18.4130859 L182.15625,18.2666016 C181.570312,18.2470703 181.099121,18.1152344 180.742676,17.8710938 C180.38623,17.6269531 180.208008,17.3193359 180.208008,16.9482422 C180.208008,16.6455078 180.271484,16.3720703 180.398438,16.1279297 C180.525391,15.8837891 180.681641,15.625 180.867188,15.3515625 C181.179688,15.546875 181.604492,15.7104492 182.141602,15.8422852 C182.678711,15.9741211 183.254883,16.0400391 183.870117,16.0400391 C184.719727,16.0400391 185.498535,15.9155273 186.206543,15.6665039 C186.914551,15.4174805 187.522461,15.0683594 188.030273,14.6191406 C188.538086,14.1699219 188.931152,13.6303711 189.209473,13.0004883 C189.487793,12.3706055 189.626953,11.6748047 189.626953,10.9130859 C189.626953,10.3857422 189.55127,9.89501953 189.399902,9.44091797 C189.248535,8.98681641 189.036133,8.58886719 188.762695,8.24707031 L188.762695,8.24707031 L191.121094,8.24707031 L191.121094,6.16699219 L185.789062,6.16699219 C185.535156,6.08886719 185.242188,6.02539062 184.910156,5.9765625 C184.578125,5.92773438 184.231445,5.90332031 183.870117,5.90332031 C183.010742,5.90332031 182.227051,6.02783203 181.519043,6.27685547 C180.811035,6.52587891 180.205566,6.875 179.702637,7.32421875 C179.199707,7.7734375 178.809082,8.31298828 178.530762,8.94287109 C178.252441,9.57275391 178.113281,10.2685547 178.113281,11.0302734 C178.113281,11.4013672 178.140137,11.730957 178.193848,12.019043 C178.247559,12.3071289 178.325684,12.5756836 178.428223,12.824707 C178.530762,13.0737305 178.652832,13.3056641 178.794434,13.5205078 C178.936035,13.7353516 179.099609,13.9550781 179.285156,14.1796875 C178.875,14.6484375 178.520996,15.1464844 178.223145,15.6738281 C177.925293,16.2011719 177.776367,16.7822266 177.776367,17.4169922 C177.776367,17.6416016 177.805664,17.8710938 177.864258,18.1054688 C177.922852,18.3398438 178.010742,18.5620117 178.12793,18.7719727 C178.245117,18.9819336 178.396484,19.1748047 178.582031,19.3505859 C178.767578,19.5263672 178.987305,19.6728516 179.241211,19.7900391 C178.547852,20.2880859 178.035156,20.8056641 177.703125,21.3427734 C177.371094,21.8798828 177.205078,22.5048828 177.205078,23.2177734 C177.205078,23.7744141 177.327148,24.284668 177.571289,24.7485352 C177.81543,25.2124023 178.206055,25.612793 178.743164,25.949707 C179.280273,26.2866211 179.966309,26.550293 180.80127,26.7407227 C181.63623,26.9311523 182.649414,27.0263672 183.84082,27.0263672 Z M183.870117,14.1210938 C183.401367,14.1210938 182.974121,14.0454102 182.588379,13.894043 C182.202637,13.7426758 181.868164,13.5302734 181.584961,13.2568359 C181.301758,12.9833984 181.082031,12.6513672 180.925781,12.2607422 C180.769531,11.8701172 180.691406,11.4404297 180.691406,10.9716797 C180.691406,10.5615234 180.762207,10.1660156 180.903809,9.78515625 C181.04541,9.40429688 181.250488,9.06982422 181.519043,8.78173828 C181.787598,8.49365234 182.119629,8.26171875 182.515137,8.0859375 C182.910645,7.91015625 183.362305,7.82226562 183.870117,7.82226562 C184.338867,7.82226562 184.766113,7.89794922 185.151855,8.04931641 C185.537598,8.20068359 185.87207,8.41308594 186.155273,8.68652344 C186.438477,8.95996094 186.658203,9.29199219 186.814453,9.68261719 C186.970703,10.0732422 187.048828,10.5029297 187.048828,10.9716797 C187.048828,11.3818359 186.978027,11.7773438 186.836426,12.1582031 C186.694824,12.5390625 186.489746,12.8759766 186.221191,13.1689453 C185.952637,13.4619141 185.620605,13.6938477 185.225098,13.8647461 C184.82959,14.0356445 184.37793,14.1210938 183.870117,14.1210938 Z M184.016602,24.9902344 C182.727539,24.9902344 181.72168,24.831543 180.999023,24.5141602 C180.276367,24.1967773 179.915039,23.6914062 179.915039,22.9980469 C179.915039,22.7832031 179.939453,22.5708008 179.988281,22.3608398 C180.037109,22.1508789 180.120117,21.940918 180.237305,21.730957 C180.354492,21.5209961 180.518066,21.3134766 180.728027,21.1083984 C180.937988,20.9033203 181.204102,20.6933594 181.526367,20.4785156 L181.526367,20.4785156 L185.364258,20.6103516 C186.370117,20.6591797 187.117188,20.8251953 187.605469,21.1083984 C188.09375,21.3916016 188.337891,21.8310547 188.337891,22.4267578 C188.337891,22.7490234 188.264648,23.0639648 188.118164,23.371582 C187.97168,23.6791992 187.72998,23.9526367 187.393066,24.1918945 C187.056152,24.4311523 186.611816,24.6240234 186.060059,24.7705078 C185.508301,24.9169922 184.827148,24.9902344 184.016602,24.9902344 Z M201.228516,21.1376953 C202.166016,21.1376953 203.071777,21.0766602 203.945801,20.9545898 C204.819824,20.8325195 205.603516,20.6738281 206.296875,20.4785156 L206.296875,20.4785156 L206.296875,18.3837891 C205.984375,18.4716797 205.64502,18.5522461 205.278809,18.6254883 C204.912598,18.6987305 204.529297,18.7646484 204.128906,18.8232422 C203.728516,18.8818359 203.313477,18.9282227 202.883789,18.9624023 C202.454102,18.996582 202.024414,19.0136719 201.594727,19.0136719 C200.012695,19.0136719 198.801758,18.6108398 197.961914,17.8051758 C197.12207,16.9995117 196.702148,15.8447266 196.702148,14.3408203 L196.702148,14.3408203 L207.029297,14.3408203 C207.048828,14.1259766 207.063477,13.8964844 207.073242,13.6523438 C207.083008,13.4082031 207.087891,13.1054688 207.087891,12.7441406 C207.087891,11.6992188 206.94873,10.7543945 206.67041,9.90966797 C206.39209,9.06494141 205.981934,8.34716797 205.439941,7.75634766 C204.897949,7.16552734 204.231445,6.70898438 203.44043,6.38671875 C202.649414,6.06445312 201.741211,5.90332031 200.71582,5.90332031 C199.661133,5.90332031 198.71875,6.10839844 197.888672,6.51855469 C197.058594,6.92871094 196.35791,7.48291016 195.786621,8.18115234 C195.215332,8.87939453 194.780762,9.68994141 194.48291,10.612793 C194.185059,11.5356445 194.036133,12.5146484 194.036133,13.5498047 C194.036133,14.7412109 194.175293,15.8081055 194.453613,16.7504883 C194.731934,17.6928711 195.161621,18.4887695 195.742676,19.1381836 C196.32373,19.7875977 197.068359,20.2832031 197.976562,20.625 C198.884766,20.9667969 199.96875,21.1376953 201.228516,21.1376953 Z M204.436523,12.3779297 L196.702148,12.3779297 C196.750977,11.7236328 196.87793,11.1230469 197.083008,10.5761719 C197.288086,10.0292969 197.556641,9.56054688 197.888672,9.16992188 C198.220703,8.77929688 198.616211,8.4765625 199.075195,8.26171875 C199.53418,8.046875 200.041992,7.93945312 200.598633,7.93945312 C201.243164,7.93945312 201.80957,8.04931641 202.297852,8.26904297 C202.786133,8.48876953 203.193848,8.79394531 203.520996,9.18457031 C203.848145,9.57519531 204.089844,10.0415039 204.246094,10.5834961 C204.402344,11.1254883 204.46582,11.7236328 204.436523,12.3779297 L204.436523,12.3779297 Z M216.682617,21.1376953 C217.141602,21.1376953 217.610352,21.1035156 218.088867,21.0351562 C218.567383,20.9667969 219.033691,20.859375 219.487793,20.7128906 C219.941895,20.5664062 220.369141,20.3808594 220.769531,20.15625 C221.169922,19.9316406 221.521484,19.6606445 221.824219,19.3432617 C222.126953,19.0258789 222.366211,18.6621094 222.541992,18.2519531 C222.717773,17.8417969 222.805664,17.3779297 222.805664,16.8603516 C222.805664,16.3134766 222.725098,15.8251953 222.563965,15.3955078 C222.402832,14.9658203 222.136719,14.5800781 221.765625,14.2382812 C221.394531,13.8964844 220.911133,13.5864258 220.31543,13.3081055 C219.719727,13.0297852 218.987305,12.7636719 218.118164,12.5097656 C217.317383,12.2753906 216.667969,12.0581055 216.169922,11.8579102 C215.671875,11.6577148 215.283691,11.4575195 215.005371,11.2573242 C214.727051,11.0571289 214.536621,10.8496094 214.434082,10.6347656 C214.331543,10.4199219 214.280273,10.1806641 214.280273,9.91699219 C214.280273,9.65332031 214.338867,9.40673828 214.456055,9.17724609 C214.573242,8.94775391 214.766113,8.74755859 215.034668,8.57666016 C215.303223,8.40576172 215.654785,8.27148438 216.089355,8.17382812 C216.523926,8.07617188 217.058594,8.02734375 217.693359,8.02734375 C218.220703,8.02734375 218.843262,8.07373047 219.561035,8.16650391 C220.278809,8.25927734 221.038086,8.40332031 221.838867,8.59863281 L221.838867,8.59863281 L221.838867,6.328125 C221.077148,6.171875 220.344727,6.06201172 219.641602,5.99853516 C218.938477,5.93505859 218.298828,5.90332031 217.722656,5.90332031 C216.550781,5.90332031 215.574219,6.04248047 214.792969,6.32080078 C214.011719,6.59912109 213.391602,6.94824219 212.932617,7.36816406 C212.473633,7.78808594 212.148926,8.2421875 211.958496,8.73046875 C211.768066,9.21875 211.672852,9.66796875 211.672852,10.078125 C211.672852,10.703125 211.790039,11.2451172 212.024414,11.7041016 C212.258789,12.1630859 212.581055,12.5634766 212.991211,12.9052734 C213.401367,13.2470703 213.887207,13.5424805 214.44873,13.7915039 C215.010254,14.0405273 215.623047,14.2626953 216.287109,14.4580078 C217.175781,14.7216797 217.876465,14.9560547 218.38916,15.1611328 C218.901855,15.3662109 219.280273,15.5639648 219.524414,15.7543945 C219.768555,15.9448242 219.937012,16.1450195 220.029785,16.3549805 C220.122559,16.5649414 220.168945,16.8017578 220.168945,17.0654297 C220.168945,17.6806641 219.875977,18.1542969 219.290039,18.4863281 C218.704102,18.8183594 217.800781,18.984375 216.580078,18.984375 C215.740234,18.984375 214.895508,18.9208984 214.045898,18.7939453 C213.196289,18.6669922 212.341797,18.4814453 211.482422,18.2373047 L211.482422,18.2373047 L211.482422,20.5810547 C212.283203,20.7763672 213.101074,20.9179688 213.936035,21.0058594 C214.770996,21.09375 215.686523,21.1376953 216.682617,21.1376953 Z M246.697266,20.8740234 L246.697266,11.1181641 C247.166016,10.5322266 247.588379,10.0439453 247.964355,9.65332031 C248.340332,9.26269531 248.689453,8.95263672 249.011719,8.72314453 C249.333984,8.49365234 249.644043,8.33251953 249.941895,8.23974609 C250.239746,8.14697266 250.544922,8.10058594 250.857422,8.10058594 C251.707031,8.10058594 252.34668,8.37646484 252.776367,8.92822266 C253.206055,9.47998047 253.420898,10.3320312 253.420898,11.484375 L253.420898,11.484375 L253.420898,20.8740234 L255.969727,20.8740234 L255.969727,11.2792969 C255.969727,9.48242188 255.581543,8.13720703 254.805176,7.24365234 C254.028809,6.35009766 252.883789,5.90332031 251.370117,5.90332031 C250.94043,5.90332031 250.525391,5.94482422 250.125,6.02783203 C249.724609,6.11083984 249.331543,6.25488281 248.945801,6.45996094 C248.560059,6.66503906 248.166992,6.93603516 247.766602,7.27294922 C247.366211,7.60986328 246.951172,8.03222656 246.521484,8.54003906 L246.521484,8.54003906 L246.418945,6.16699219 L244.148438,6.16699219 L244.148438,20.8740234 L246.697266,20.8740234 Z M266.399414,21.1376953 C267.50293,21.1376953 268.489258,20.949707 269.358398,20.5737305 C270.227539,20.1977539 270.964844,19.6704102 271.570312,18.9916992 C272.175781,18.3129883 272.639648,17.4975586 272.961914,16.5454102 C273.28418,15.5932617 273.445312,14.5458984 273.445312,13.4033203 C273.445312,12.1923828 273.291504,11.1181641 272.983887,10.1806641 C272.67627,9.24316406 272.231934,8.45947266 271.650879,7.82958984 C271.069824,7.19970703 270.361816,6.72119141 269.526855,6.39404297 C268.691895,6.06689453 267.74707,5.90332031 266.692383,5.90332031 C265.588867,5.90332031 264.602539,6.09130859 263.733398,6.46728516 C262.864258,6.84326172 262.126953,7.37060547 261.521484,8.04931641 C260.916016,8.72802734 260.452148,9.53857422 260.129883,10.480957 C259.807617,11.4233398 259.646484,12.4658203 259.646484,13.6083984 C259.646484,14.8291016 259.800293,15.9082031 260.10791,16.8457031 C260.415527,17.7832031 260.859863,18.5693359 261.440918,19.2041016 C262.021973,19.8388672 262.72998,20.3198242 263.564941,20.6469727 C264.399902,20.9741211 265.344727,21.1376953 266.399414,21.1376953 Z M266.545898,18.984375 C265.881836,18.984375 265.286133,18.8696289 264.758789,18.6401367 C264.231445,18.4106445 263.782227,18.0688477 263.411133,17.6147461 C263.040039,17.1606445 262.754395,16.5917969 262.554199,15.9082031 C262.354004,15.2246094 262.253906,14.4287109 262.253906,13.5205078 C262.253906,12.7978516 262.334473,12.1069336 262.495605,11.4477539 C262.656738,10.7885742 262.910645,10.2099609 263.257324,9.71191406 C263.604004,9.21386719 264.04834,8.81591797 264.590332,8.51806641 C265.132324,8.22021484 265.78418,8.07128906 266.545898,8.07128906 C267.200195,8.07128906 267.793457,8.18603516 268.325684,8.41552734 C268.85791,8.64501953 269.30957,8.98681641 269.680664,9.44091797 C270.051758,9.89501953 270.337402,10.4614258 270.537598,11.1401367 C270.737793,11.8188477 270.837891,12.6123047 270.837891,13.5205078 C270.837891,14.2529297 270.757324,14.9487305 270.596191,15.6079102 C270.435059,16.2670898 270.181152,16.8457031 269.834473,17.34375 C269.487793,17.8417969 269.043457,18.2397461 268.501465,18.5375977 C267.959473,18.8354492 267.307617,18.984375 266.545898,18.984375 Z M285.325195,21.0791016 C285.959961,21.0791016 286.584961,21.0473633 287.200195,20.9838867 C287.81543,20.9204102 288.411133,20.8154297 288.987305,20.6689453 L288.987305,20.6689453 L288.987305,18.4716797 C288.381836,18.6279297 287.800781,18.7426758 287.244141,18.815918 C286.6875,18.8891602 286.174805,18.9257812 285.706055,18.9257812 C284.612305,18.9257812 283.784668,18.6645508 283.223145,18.1420898 C282.661621,17.6196289 282.380859,16.8310547 282.380859,15.7763672 L282.380859,15.7763672 L282.380859,8.30566406 L288.987305,8.30566406 L288.987305,6.16699219 L282.380859,6.16699219 L282.380859,1.46484375 L279.832031,2.12402344 L279.832031,6.16699219 L275.71582,6.16699219 L275.71582,8.30566406 L279.832031,8.30566406 L279.832031,15.9814453 C279.832031,17.7099609 280.286133,18.9916992 281.194336,19.8266602 C282.102539,20.6616211 283.479492,21.0791016 285.325195,21.0791016 Z M313.303711,20.8740234 L313.303711,11.4257812 C313.772461,10.8300781 314.211914,10.3222656 314.62207,9.90234375 C315.032227,9.48242188 315.42041,9.13818359 315.786621,8.86962891 C316.152832,8.60107422 316.509277,8.40576172 316.855957,8.28369141 C317.202637,8.16162109 317.546875,8.10058594 317.888672,8.10058594 C318.669922,8.10058594 319.263184,8.39111328 319.668457,8.97216797 C320.07373,9.55322266 320.261719,10.4882812 320.232422,11.7773438 L320.232422,11.7773438 L322.810547,11.7773438 C322.869141,9.83398438 322.505371,8.36914062 321.719238,7.3828125 C320.933105,6.39648438 319.77832,5.90332031 318.254883,5.90332031 C317.395508,5.90332031 316.543457,6.13769531 315.69873,6.60644531 C314.854004,7.07519531 313.99707,7.83203125 313.12793,8.87695312 L313.12793,8.87695312 L313.054688,6.16699219 L310.725586,6.16699219 L310.725586,20.8740234 L313.303711,20.8740234 Z M333.181641,21.1376953 C334.119141,21.1376953 335.024902,21.0766602 335.898926,20.9545898 C336.772949,20.8325195 337.556641,20.6738281 338.25,20.4785156 L338.25,20.4785156 L338.25,18.3837891 C337.9375,18.4716797 337.598145,18.5522461 337.231934,18.6254883 C336.865723,18.6987305 336.482422,18.7646484 336.082031,18.8232422 C335.681641,18.8818359 335.266602,18.9282227 334.836914,18.9624023 C334.407227,18.996582 333.977539,19.0136719 333.547852,19.0136719 C331.96582,19.0136719 330.754883,18.6108398 329.915039,17.8051758 C329.075195,16.9995117 328.655273,15.8447266 328.655273,14.3408203 L328.655273,14.3408203 L338.982422,14.3408203 C339.001953,14.1259766 339.016602,13.8964844 339.026367,13.6523438 C339.036133,13.4082031 339.041016,13.1054688 339.041016,12.7441406 C339.041016,11.6992188 338.901855,10.7543945 338.623535,9.90966797 C338.345215,9.06494141 337.935059,8.34716797 337.393066,7.75634766 C336.851074,7.16552734 336.18457,6.70898438 335.393555,6.38671875 C334.602539,6.06445312 333.694336,5.90332031 332.668945,5.90332031 C331.614258,5.90332031 330.671875,6.10839844 329.841797,6.51855469 C329.011719,6.92871094 328.311035,7.48291016 327.739746,8.18115234 C327.168457,8.87939453 326.733887,9.68994141 326.436035,10.612793 C326.138184,11.5356445 325.989258,12.5146484 325.989258,13.5498047 C325.989258,14.7412109 326.128418,15.8081055 326.406738,16.7504883 C326.685059,17.6928711 327.114746,18.4887695 327.695801,19.1381836 C328.276855,19.7875977 329.021484,20.2832031 329.929688,20.625 C330.837891,20.9667969 331.921875,21.1376953 333.181641,21.1376953 Z M336.389648,12.3779297 L328.655273,12.3779297 C328.704102,11.7236328 328.831055,11.1230469 329.036133,10.5761719 C329.241211,10.0292969 329.509766,9.56054688 329.841797,9.16992188 C330.173828,8.77929688 330.569336,8.4765625 331.02832,8.26171875 C331.487305,8.046875 331.995117,7.93945312 332.551758,7.93945312 C333.196289,7.93945312 333.762695,8.04931641 334.250977,8.26904297 C334.739258,8.48876953 335.146973,8.79394531 335.474121,9.18457031 C335.80127,9.57519531 336.042969,10.0415039 336.199219,10.5834961 C336.355469,11.1254883 336.418945,11.7236328 336.389648,12.3779297 L336.389648,12.3779297 Z M345.662109,26.8798828 L345.662109,20.7275391 C346.140625,20.8447266 346.611816,20.9277344 347.075684,20.9765625 C347.539551,21.0253906 348.005859,21.0498047 348.474609,21.0498047 C349.5,21.0498047 350.452148,20.8886719 351.331055,20.5664062 C352.209961,20.2441406 352.97168,19.7607422 353.616211,19.1162109 C354.260742,18.4716797 354.766113,17.6611328 355.132324,16.6845703 C355.498535,15.7080078 355.681641,14.5654297 355.681641,13.2568359 C355.681641,12.1435547 355.574219,11.1352539 355.359375,10.2319336 C355.144531,9.32861328 354.822266,8.55712891 354.392578,7.91748047 C353.962891,7.27783203 353.430664,6.78222656 352.795898,6.43066406 C352.161133,6.07910156 351.423828,5.90332031 350.583984,5.90332031 C349.617188,5.90332031 348.71875,6.10595703 347.888672,6.51123047 C347.058594,6.91650391 346.277344,7.62207031 345.544922,8.62792969 L345.544922,8.62792969 L345.383789,6.16699219 L343.113281,6.16699219 L343.113281,26.8798828 L345.662109,26.8798828 Z M348.665039,18.984375 C348.166992,18.984375 347.65918,18.9282227 347.141602,18.815918 C346.624023,18.7036133 346.130859,18.5498047 345.662109,18.3544922 L345.662109,18.3544922 L345.662109,11.2207031 C346.111328,10.6347656 346.533691,10.144043 346.929199,9.74853516 C347.324707,9.35302734 347.700684,9.03564453 348.057129,8.79638672 C348.413574,8.55712891 348.757812,8.38623047 349.089844,8.28369141 C349.421875,8.18115234 349.749023,8.12988281 350.071289,8.12988281 C350.598633,8.12988281 351.052734,8.25927734 351.433594,8.51806641 C351.814453,8.77685547 352.126953,9.13574219 352.371094,9.59472656 C352.615234,10.0537109 352.793457,10.6054688 352.905762,11.25 C353.018066,11.8945312 353.074219,12.6025391 353.074219,13.3740234 C353.074219,15.2490234 352.683594,16.652832 351.902344,17.5854492 C351.121094,18.5180664 350.041992,18.984375 348.665039,18.984375 Z M371.575195,20.8740234 L371.575195,18.75 L367.195312,18.75 L367.195312,0.17578125 L360.266602,0.17578125 L360.266602,2.27050781 L364.617188,2.27050781 L364.617188,18.75 L359.783203,18.75 L359.783203,20.8740234 L371.575195,20.8740234 Z M382.004883,4.01367188 C382.288086,4.01367188 382.551758,3.96240234 382.795898,3.85986328 C383.040039,3.75732422 383.252441,3.61328125 383.433105,3.42773438 C383.61377,3.2421875 383.755371,3.02734375 383.85791,2.78320312 C383.960449,2.5390625 384.011719,2.28027344 384.011719,2.00683594 C384.011719,1.72363281 383.960449,1.46240234 383.85791,1.22314453 C383.755371,0.983886719 383.61377,0.771484375 383.433105,0.5859375 C383.252441,0.400390625 383.040039,0.256347656 382.795898,0.153808594 C382.551758,0.0512695312 382.288086,0 382.004883,0 C381.72168,0 381.458008,0.0512695312 381.213867,0.153808594 C380.969727,0.256347656 380.757324,0.400390625 380.57666,0.5859375 C380.395996,0.771484375 380.254395,0.983886719 380.151855,1.22314453 C380.049316,1.46240234 379.998047,1.72363281 379.998047,2.00683594 C379.998047,2.28027344 380.049316,2.5390625 380.151855,2.78320312 C380.254395,3.02734375 380.395996,3.2421875 380.57666,3.42773438 C380.757324,3.61328125 380.969727,3.75732422 381.213867,3.85986328 C381.458008,3.96240234 381.72168,4.01367188 382.004883,4.01367188 Z M388.069336,20.8740234 L388.069336,18.75 L383.689453,18.75 L383.689453,6.16699219 L376.760742,6.16699219 L376.760742,8.27636719 L381.111328,8.27636719 L381.111328,18.75 L376.277344,18.75 L376.277344,20.8740234 L388.069336,20.8740234 Z M399.817383,21.0791016 C400.55957,21.0791016 401.279785,21.0180664 401.978027,20.8959961 C402.67627,20.7739258 403.357422,20.5859375 404.021484,20.3320312 L404.021484,20.3320312 L404.021484,17.9589844 C403.416016,18.2714844 402.788574,18.5058594 402.13916,18.6621094 C401.489746,18.8183594 400.818359,18.8964844 400.125,18.8964844 C398.591797,18.8964844 397.393066,18.4545898 396.528809,17.5708008 C395.664551,16.6870117 395.232422,15.3564453 395.232422,13.5791016 C395.232422,12.7294922 395.359375,11.9677734 395.613281,11.2939453 C395.867188,10.6201172 396.213867,10.0488281 396.65332,9.58007812 C397.092773,9.11132812 397.603027,8.75244141 398.184082,8.50341797 C398.765137,8.25439453 399.382812,8.12988281 400.037109,8.12988281 C400.740234,8.12988281 401.421387,8.20556641 402.080566,8.35693359 C402.739746,8.50830078 403.386719,8.75 404.021484,9.08203125 L404.021484,9.08203125 L404.021484,6.65039062 C403.416016,6.40625 402.78125,6.23046875 402.117188,6.12304688 C401.453125,6.015625 400.740234,5.96191406 399.978516,5.96191406 C398.884766,5.96191406 397.883789,6.14501953 396.975586,6.51123047 C396.067383,6.87744141 395.286133,7.39746094 394.631836,8.07128906 C393.977539,8.74511719 393.469727,9.55566406 393.108398,10.5029297 C392.74707,11.4501953 392.566406,12.5048828 392.566406,13.6669922 C392.566406,16.0888672 393.193848,17.9296875 394.44873,19.1894531 C395.703613,20.4492188 397.493164,21.0791016 399.817383,21.0791016 Z M413.44043,21.1376953 C414.348633,21.1376953 415.215332,20.9619141 416.040527,20.6103516 C416.865723,20.2587891 417.678711,19.6875 418.479492,18.8964844 L418.479492,18.8964844 L418.538086,20.8740234 L420.823242,20.8740234 L420.823242,10.7373047 C420.823242,9.91699219 420.691406,9.20410156 420.427734,8.59863281 C420.164062,7.99316406 419.785645,7.49023438 419.29248,7.08984375 C418.799316,6.68945312 418.196289,6.39160156 417.483398,6.19628906 C416.770508,6.00097656 415.969727,5.90332031 415.081055,5.90332031 C414.592773,5.90332031 414.109375,5.93017578 413.630859,5.98388672 C413.152344,6.03759766 412.693359,6.10839844 412.253906,6.19628906 C411.814453,6.28417969 411.396973,6.38427734 411.001465,6.49658203 C410.605957,6.60888672 410.24707,6.72363281 409.924805,6.84082031 L409.924805,6.84082031 L409.924805,9.140625 C410.78418,8.79882812 411.616699,8.53515625 412.422363,8.34960938 C413.228027,8.1640625 414.045898,8.07128906 414.875977,8.07128906 C416.018555,8.07128906 416.868164,8.33251953 417.424805,8.85498047 C417.981445,9.37744141 418.259766,10.0732422 418.259766,10.9423828 L418.259766,10.9423828 L418.259766,12.2314453 L415.212891,12.2314453 C413.064453,12.2314453 411.440918,12.6489258 410.342285,13.4838867 C409.243652,14.3188477 408.694336,15.4736328 408.694336,16.9482422 C408.694336,17.5439453 408.784668,18.0957031 408.965332,18.6035156 C409.145996,19.1113281 409.429199,19.5532227 409.814941,19.9291992 C410.200684,20.3051758 410.691406,20.6005859 411.287109,20.8154297 C411.882812,21.0302734 412.600586,21.1376953 413.44043,21.1376953 Z M413.850586,19.0136719 C413.401367,19.0136719 413.020508,18.9550781 412.708008,18.8378906 C412.395508,18.7207031 412.141602,18.5620117 411.946289,18.3618164 C411.750977,18.1616211 411.609375,17.9321289 411.521484,17.6733398 C411.433594,17.4145508 411.389648,17.1435547 411.389648,16.8603516 C411.389648,16.4501953 411.460449,16.081543 411.602051,15.7543945 C411.743652,15.4272461 411.960938,15.1464844 412.253906,14.9121094 C412.546875,14.6777344 412.922852,14.4970703 413.381836,14.3701172 C413.84082,14.2431641 414.387695,14.1796875 415.022461,14.1796875 L415.022461,14.1796875 L418.259766,14.1796875 L418.259766,16.7871094 C417.419922,17.5585938 416.621582,18.1225586 415.864746,18.4790039 C415.10791,18.8354492 414.436523,19.0136719 413.850586,19.0136719 Z M433.772461,21.0791016 C434.407227,21.0791016 435.032227,21.0473633 435.647461,20.9838867 C436.262695,20.9204102 436.858398,20.8154297 437.43457,20.6689453 L437.43457,20.6689453 L437.43457,18.4716797 C436.829102,18.6279297 436.248047,18.7426758 435.691406,18.815918 C435.134766,18.8891602 434.62207,18.9257812 434.15332,18.9257812 C433.05957,18.9257812 432.231934,18.6645508 431.67041,18.1420898 C431.108887,17.6196289 430.828125,16.8310547 430.828125,15.7763672 L430.828125,15.7763672 L430.828125,8.30566406 L437.43457,8.30566406 L437.43457,6.16699219 L430.828125,6.16699219 L430.828125,1.46484375 L428.279297,2.12402344 L428.279297,6.16699219 L424.163086,6.16699219 L424.163086,8.30566406 L428.279297,8.30566406 L428.279297,15.9814453 C428.279297,17.7099609 428.733398,18.9916992 429.641602,19.8266602 C430.549805,20.6616211 431.926758,21.0791016 433.772461,21.0791016 Z M448.640625,21.1376953 C449.578125,21.1376953 450.483887,21.0766602 451.35791,20.9545898 C452.231934,20.8325195 453.015625,20.6738281 453.708984,20.4785156 L453.708984,20.4785156 L453.708984,18.3837891 C453.396484,18.4716797 453.057129,18.5522461 452.690918,18.6254883 C452.324707,18.6987305 451.941406,18.7646484 451.541016,18.8232422 C451.140625,18.8818359 450.725586,18.9282227 450.295898,18.9624023 C449.866211,18.996582 449.436523,19.0136719 449.006836,19.0136719 C447.424805,19.0136719 446.213867,18.6108398 445.374023,17.8051758 C444.53418,16.9995117 444.114258,15.8447266 444.114258,14.3408203 L444.114258,14.3408203 L454.441406,14.3408203 C454.460938,14.1259766 454.475586,13.8964844 454.485352,13.6523438 C454.495117,13.4082031 454.5,13.1054688 454.5,12.7441406 C454.5,11.6992188 454.36084,10.7543945 454.08252,9.90966797 C453.804199,9.06494141 453.394043,8.34716797 452.852051,7.75634766 C452.310059,7.16552734 451.643555,6.70898438 450.852539,6.38671875 C450.061523,6.06445312 449.15332,5.90332031 448.12793,5.90332031 C447.073242,5.90332031 446.130859,6.10839844 445.300781,6.51855469 C444.470703,6.92871094 443.77002,7.48291016 443.19873,8.18115234 C442.627441,8.87939453 442.192871,9.68994141 441.89502,10.612793 C441.597168,11.5356445 441.448242,12.5146484 441.448242,13.5498047 C441.448242,14.7412109 441.587402,15.8081055 441.865723,16.7504883 C442.144043,17.6928711 442.57373,18.4887695 443.154785,19.1381836 C443.73584,19.7875977 444.480469,20.2832031 445.388672,20.625 C446.296875,20.9667969 447.380859,21.1376953 448.640625,21.1376953 Z M451.848633,12.3779297 L444.114258,12.3779297 C444.163086,11.7236328 444.290039,11.1230469 444.495117,10.5761719 C444.700195,10.0292969 444.96875,9.56054688 445.300781,9.16992188 C445.632812,8.77929688 446.02832,8.4765625 446.487305,8.26171875 C446.946289,8.046875 447.454102,7.93945312 448.010742,7.93945312 C448.655273,7.93945312 449.22168,8.04931641 449.709961,8.26904297 C450.198242,8.48876953 450.605957,8.79394531 450.933105,9.18457031 C451.260254,9.57519531 451.501953,10.0415039 451.658203,10.5834961 C451.814453,11.1254883 451.87793,11.7236328 451.848633,12.3779297 L451.848633,12.3779297 Z M462.922852,21.1376953 C463.889648,21.1376953 464.788086,20.8886719 465.618164,20.390625 C466.448242,19.8925781 467.219727,19.1259766 467.932617,18.0908203 L467.932617,18.0908203 L468.020508,20.8740234 L470.305664,20.8740234 L470.305664,0.17578125 L467.742188,0.17578125 L467.742188,6.35742188 C467.302734,6.23046875 466.855957,6.13769531 466.401855,6.07910156 C465.947754,6.02050781 465.486328,5.99121094 465.017578,5.99121094 C463.933594,5.99121094 462.949707,6.16455078 462.065918,6.51123047 C461.182129,6.85791016 460.425293,7.36572266 459.79541,8.03466797 C459.165527,8.70361328 458.679688,9.52392578 458.337891,10.4956055 C457.996094,11.4672852 457.825195,12.578125 457.825195,13.828125 C457.825195,14.921875 457.932617,15.9179688 458.147461,16.8164062 C458.362305,17.7148438 458.682129,18.4838867 459.106934,19.1235352 C459.531738,19.7631836 460.063965,20.2587891 460.703613,20.6103516 C461.343262,20.9619141 462.083008,21.1376953 462.922852,21.1376953 Z M463.435547,18.9550781 C462.478516,18.9550781 461.73877,18.5180664 461.216309,17.644043 C460.693848,16.7700195 460.432617,15.4443359 460.432617,13.6669922 C460.432617,11.7529297 460.820801,10.3466797 461.597168,9.44824219 C462.373535,8.54980469 463.455078,8.10058594 464.841797,8.10058594 C465.339844,8.10058594 465.842773,8.15185547 466.350586,8.25439453 C466.858398,8.35693359 467.322266,8.50585938 467.742188,8.70117188 L467.742188,8.70117188 L467.742188,15.5273438 C466.951172,16.6601562 466.196777,17.5146484 465.479004,18.0908203 C464.76123,18.6669922 464.080078,18.9550781 463.435547,18.9550781 Z" id="changesnotreplicated" fill="#9B9B9B"></path>
            <path d="M11.5283203,20.8740234 L11.5283203,17.8271484 L3.66210938,17.8271484 L3.66210938,12.5097656 L11.1621094,12.5097656 L11.1621094,9.53613281 L3.66210938,9.53613281 L3.66210938,4.77539062 L11.5283203,4.77539062 L11.5283203,1.72851562 L0,1.72851562 L0,20.8740234 L11.5283203,20.8740234 Z M19.2919922,20.8740234 L19.2919922,12.9492187 L19.9804688,12.9492187 C20.5957031,12.9492187 21.1303711,13.0981445 21.5844727,13.3959961 C22.0385742,13.6938477 22.3925781,14.1357422 22.6464844,14.7216797 L22.6464844,14.7216797 L25.3417969,20.8740234 L29.5751953,20.8740234 L26.5136719,14.4580078 C26.1230469,13.6376953 25.7324219,13.0102539 25.3417969,12.5756836 C24.9511719,12.1411133 24.5214844,11.875 24.0527344,11.7773438 C24.6582031,11.6796875 25.2172852,11.5087891 25.7299805,11.2646484 C26.2426758,11.0205078 26.6845703,10.7006836 27.0556641,10.3051758 C27.4267578,9.90966797 27.7148438,9.43847656 27.9199219,8.89160156 C28.125,8.34472656 28.2275391,7.71972656 28.2275391,7.01660156 C28.2275391,6.04003906 28.0639648,5.21484375 27.7368164,4.54101562 C27.409668,3.8671875 26.9433594,3.3203125 26.3378906,2.90039062 C25.7324219,2.48046875 25,2.18017578 24.140625,1.99951172 C23.28125,1.81884766 22.3242188,1.72851562 21.2695312,1.72851562 L21.2695312,1.72851562 L15.6884766,1.72851562 L15.6884766,20.8740234 L19.2919922,20.8740234 Z M20.7568359,10.1367188 L19.2919922,10.1367188 L19.2919922,4.73144531 L20.8740234,4.73144531 C22.0654297,4.73144531 22.9589844,4.93652344 23.5546875,5.34667969 C24.1503906,5.75683594 24.4482422,6.43066406 24.4482422,7.36816406 C24.4482422,7.81738281 24.3603516,8.21533203 24.1845703,8.56201172 C24.0087891,8.90869141 23.7597656,9.19921875 23.4375,9.43359375 C23.1152344,9.66796875 22.7270508,9.84375 22.2729492,9.9609375 C21.8188477,10.078125 21.3134766,10.1367188 20.7568359,10.1367188 L20.7568359,10.1367188 Z M35.7861328,20.8740234 L35.7861328,12.9492187 L36.4746094,12.9492187 C37.0898438,12.9492187 37.6245117,13.0981445 38.0786133,13.3959961 C38.5327148,13.6938477 38.8867188,14.1357422 39.140625,14.7216797 L39.140625,14.7216797 L41.8359375,20.8740234 L46.0693359,20.8740234 L43.0078125,14.4580078 C42.6171875,13.6376953 42.2265625,13.0102539 41.8359375,12.5756836 C41.4453125,12.1411133 41.015625,11.875 40.546875,11.7773438 C41.1523438,11.6796875 41.7114258,11.5087891 42.2241211,11.2646484 C42.7368164,11.0205078 43.1787109,10.7006836 43.5498047,10.3051758 C43.9208984,9.90966797 44.2089844,9.43847656 44.4140625,8.89160156 C44.6191406,8.34472656 44.7216797,7.71972656 44.7216797,7.01660156 C44.7216797,6.04003906 44.5581055,5.21484375 44.230957,4.54101562 C43.9038086,3.8671875 43.4375,3.3203125 42.8320312,2.90039062 C42.2265625,2.48046875 41.4941406,2.18017578 40.6347656,1.99951172 C39.7753906,1.81884766 38.8183594,1.72851562 37.7636719,1.72851562 L37.7636719,1.72851562 L32.1826172,1.72851562 L32.1826172,20.8740234 L35.7861328,20.8740234 Z M37.2509766,10.1367188 L35.7861328,10.1367188 L35.7861328,4.73144531 L37.3681641,4.73144531 C38.5595703,4.73144531 39.453125,4.93652344 40.0488281,5.34667969 C40.6445312,5.75683594 40.9423828,6.43066406 40.9423828,7.36816406 C40.9423828,7.81738281 40.8544922,8.21533203 40.6787109,8.56201172 C40.5029297,8.90869141 40.2539062,9.19921875 39.9316406,9.43359375 C39.609375,9.66796875 39.2211914,9.84375 38.7670898,9.9609375 C38.3129883,10.078125 37.8076172,10.1367188 37.2509766,10.1367188 L37.2509766,10.1367188 Z M54.9169922,21.2109375 C56.0009766,21.2109375 57.019043,21.015625 57.9711914,20.625 C58.9233398,20.234375 59.753418,19.6337891 60.4614258,18.8232422 C61.1694336,18.0126953 61.7260742,16.9775391 62.1313477,15.7177734 C62.5366211,14.4580078 62.7392578,12.9589844 62.7392578,11.2207031 C62.7392578,8.01757812 62.1044922,5.58105469 60.8349609,3.91113281 C59.5654297,2.24121094 57.6708984,1.40625 55.1513672,1.40625 C54.0673828,1.40625 53.0493164,1.6015625 52.097168,1.9921875 C51.1450195,2.3828125 50.3149414,2.98339844 49.6069336,3.79394531 C48.8989258,4.60449219 48.3422852,5.63964844 47.9370117,6.89941406 C47.5317383,8.15917969 47.3291016,9.65820312 47.3291016,11.3964844 C47.3291016,14.5898438 47.9638672,17.0239258 49.2333984,18.6987305 C50.5029297,20.3735352 52.3974609,21.2109375 54.9169922,21.2109375 Z M55.0341797,17.9589844 C53.6572266,17.9589844 52.6635742,17.4023438 52.0532227,16.2890625 C51.4428711,15.1757812 51.1376953,13.4863281 51.1376953,11.2207031 C51.1376953,10.1660156 51.2109375,9.23095703 51.3574219,8.41552734 C51.5039062,7.60009766 51.7358398,6.9140625 52.0532227,6.35742188 C52.3706055,5.80078125 52.7734375,5.37841797 53.2617188,5.09033203 C53.75,4.80224609 54.3408203,4.65820312 55.0341797,4.65820312 C56.4208984,4.65820312 57.4169922,5.21484375 58.0224609,6.328125 C58.6279297,7.44140625 58.9306641,9.13085938 58.9306641,11.3964844 C58.9306641,12.4511719 58.8574219,13.3862305 58.7109375,14.2016602 C58.5644531,15.0170898 58.3349609,15.703125 58.0224609,16.2597656 C57.7099609,16.8164062 57.3071289,17.2387695 56.8139648,17.5268555 C56.3208008,17.8149414 55.7275391,17.9589844 55.0341797,17.9589844 Z M68.7744141,20.8740234 L68.7744141,12.9492187 L69.4628906,12.9492187 C70.078125,12.9492187 70.612793,13.0981445 71.0668945,13.3959961 C71.5209961,13.6938477 71.875,14.1357422 72.1289062,14.7216797 L72.1289062,14.7216797 L74.8242188,20.8740234 L79.0576172,20.8740234 L75.9960938,14.4580078 C75.6054688,13.6376953 75.2148438,13.0102539 74.8242188,12.5756836 C74.4335938,12.1411133 74.0039062,11.875 73.5351562,11.7773438 C74.140625,11.6796875 74.699707,11.5087891 75.2124023,11.2646484 C75.7250977,11.0205078 76.1669922,10.7006836 76.5380859,10.3051758 C76.9091797,9.90966797 77.1972656,9.43847656 77.4023438,8.89160156 C77.6074219,8.34472656 77.7099609,7.71972656 77.7099609,7.01660156 C77.7099609,6.04003906 77.5463867,5.21484375 77.2192383,4.54101562 C76.8920898,3.8671875 76.4257812,3.3203125 75.8203125,2.90039062 C75.2148438,2.48046875 74.4824219,2.18017578 73.6230469,1.99951172 C72.7636719,1.81884766 71.8066406,1.72851562 70.7519531,1.72851562 L70.7519531,1.72851562 L65.1708984,1.72851562 L65.1708984,20.8740234 L68.7744141,20.8740234 Z M70.2392578,10.1367188 L68.7744141,10.1367188 L68.7744141,4.73144531 L70.3564453,4.73144531 C71.5478516,4.73144531 72.4414062,4.93652344 73.0371094,5.34667969 C73.6328125,5.75683594 73.9306641,6.43066406 73.9306641,7.36816406 C73.9306641,7.81738281 73.8427734,8.21533203 73.6669922,8.56201172 C73.4912109,8.90869141 73.2421875,9.19921875 72.9199219,9.43359375 C72.5976562,9.66796875 72.2094727,9.84375 71.7553711,9.9609375 C71.3012695,10.078125 70.7958984,10.1367188 70.2392578,10.1367188 L70.2392578,10.1367188 Z M88.0224609,11.1181641 C88.3935547,11.1181641 88.7402344,11.0498047 89.0625,10.9130859 C89.3847656,10.7763672 89.6630859,10.5908203 89.8974609,10.3564453 C90.1318359,10.1220703 90.3173828,9.84375 90.4541016,9.52148438 C90.5908203,9.19921875 90.6591797,8.85253906 90.6591797,8.48144531 C90.6591797,8.12011719 90.5908203,7.77832031 90.4541016,7.45605469 C90.3173828,7.13378906 90.1318359,6.85302734 89.8974609,6.61376953 C89.6630859,6.37451172 89.3847656,6.18652344 89.0625,6.04980469 C88.7402344,5.91308594 88.3935547,5.84472656 88.0224609,5.84472656 C87.6513672,5.84472656 87.3071289,5.91308594 86.9897461,6.04980469 C86.6723633,6.18652344 86.394043,6.37451172 86.1547852,6.61376953 C85.9155273,6.85302734 85.7275391,7.13378906 85.5908203,7.45605469 C85.4541016,7.77832031 85.3857422,8.12011719 85.3857422,8.48144531 C85.3857422,8.85253906 85.4541016,9.19921875 85.5908203,9.52148438 C85.7275391,9.84375 85.9155273,10.1220703 86.1547852,10.3564453 C86.394043,10.5908203 86.6723633,10.7763672 86.9897461,10.9130859 C87.3071289,11.0498047 87.6513672,11.1181641 88.0224609,11.1181641 Z M88.0224609,21.2109375 C88.3935547,21.2109375 88.7402344,21.1425781 89.0625,21.0058594 C89.3847656,20.8691406 89.6630859,20.6811523 89.8974609,20.4418945 C90.1318359,20.2026367 90.3173828,19.921875 90.4541016,19.5996094 C90.5908203,19.2773438 90.6591797,18.9306641 90.6591797,18.5595703 C90.6591797,18.1982422 90.5908203,17.8564453 90.4541016,17.5341797 C90.3173828,17.2119141 90.1318359,16.9335938 89.8974609,16.6992188 C89.6630859,16.4648438 89.3847656,16.2792969 89.0625,16.1425781 C88.7402344,16.0058594 88.3935547,15.9375 88.0224609,15.9375 C87.6513672,15.9375 87.3071289,16.0058594 86.9897461,16.1425781 C86.6723633,16.2792969 86.394043,16.4648438 86.1547852,16.6992188 C85.9155273,16.9335938 85.7275391,17.2119141 85.5908203,17.5341797 C85.4541016,17.8564453 85.3857422,18.1982422 85.3857422,18.5595703 C85.3857422,18.9306641 85.4541016,19.2773438 85.5908203,19.5996094 C85.7275391,19.921875 85.9155273,20.2026367 86.1547852,20.4418945 C86.394043,20.6811523 86.6723633,20.8691406 86.9897461,21.0058594 C87.3071289,21.1425781 87.6513672,21.2109375 88.0224609,21.2109375 Z" id="ERROR:" fill="#D0021B"></path>
        </g>
    </g>
</svg>