<?xml version="1.0" encoding="UTF-8"?>
<svg width="1024px" height="400px" viewBox="0 0 1024 400" version="1.1" xmlns="http://www.w3.org/2000/svg" xmlns:xlink="http://www.w3.org/1999/xlink">
    <!-- Generator: Sketch 60.1 (88133) - https://sketch.com -->
    <title>early-defect-detection</title>
    <desc>Created with Sketch.</desc>
    <g id="early-defect-detection" stroke="none" stroke-width="1" fill="none" fill-rule="evenodd">
        <rect fill="#FFFFFF" x="0" y="0" width="1024" height="400"></rect>
        <g id="Time" transform="translate(872.000000, 108.000000)" fill-rule="nonzero">
            <circle id="Oval" fill="#FABDF2" cx="25" cy="25" r="25"></circle>
            <circle id="Oval" fill="#F68FE8" cx="25.4901961" cy="25.4901961" r="15.6862745"></circle>
            <path d="M25.9434479,25.7724345 L25.6351612,16.0668536 C25.6112275,15.3133679 24.9872089,14.7058824 24.2412458,14.7058824 L24.2879085,14.7058824 C23.5396173,14.7058824 22.9178682,15.3152099 22.8939931,16.0668536 L22.5499135,26.8992762 C22.5291919,27.5516415 22.870487,28.1211047 23.3921184,28.4176765 C23.603958,28.6093379 23.8694258,28.7489141 24.1735317,28.8119787 L31.6580708,30.3641024 C32.3823299,30.5142973 33.1229639,30.0465222 33.3034287,29.317453 L33.29214,29.3630589 C33.473168,28.6317143 33.0405861,27.8718872 32.3271992,27.6608554 L25.9434479,25.7724345 Z" id="Path" fill="#9D59B8"></path>
        </g>
        <path d="M164.416,362 C165.78,362 166.832333,361.626 167.573,360.878 C168.313667,360.13 168.684,359.176667 168.684,358.018 C168.684,357.108667 168.412667,356.313 167.87,355.631 C167.327333,354.949 166.66,354.549333 165.868,354.432 C166.586667,354.285333 167.188,353.907667 167.672,353.299 C168.156,352.690333 168.398,351.946 168.398,351.066 C168.398,350.024667 168.027667,349.141 167.287,348.415 C166.546333,347.689 165.508667,347.326 164.174,347.326 L164.174,347.326 L156.452,347.326 L156.452,362 L164.416,362 Z M163.492,353.156 L159.576,353.156 L159.576,350.076 L163.492,350.076 C164.02,350.076 164.438,350.219 164.746,350.505 C165.054,350.791 165.208,351.161333 165.208,351.616 C165.208,352.085333 165.054,352.459333 164.746,352.738 C164.438,353.016667 164.02,353.156 163.492,353.156 L163.492,353.156 Z M163.624,359.25 L159.576,359.25 L159.576,355.906 L163.624,355.906 C164.210667,355.906 164.669,356.063667 164.999,356.379 C165.329,356.694333 165.494,357.094 165.494,357.578 C165.494,358.106 165.329,358.516667 164.999,358.81 C164.669,359.103333 164.210667,359.25 163.624,359.25 L163.624,359.25 Z M174.404,362.264 C175.914667,362.264 177.161333,361.728667 178.144,360.658 L178.144,360.658 L178.144,362 L180.938,362 L180.938,351.374 L178.144,351.374 L178.144,358.568 C177.513333,359.374667 176.706667,359.778 175.724,359.778 C174.418667,359.778 173.766,359.125333 173.766,357.82 L173.766,357.82 L173.766,351.374 L170.972,351.374 L170.972,358.92 C170.972,359.976 171.258,360.797333 171.83,361.384 C172.402,361.970667 173.26,362.264 174.404,362.264 Z M185.096,350.23 C185.565333,350.23 185.961333,350.065 186.284,349.735 C186.606667,349.405 186.768,349.012667 186.768,348.558 C186.768,348.103333 186.606667,347.714667 186.284,347.392 C185.961333,347.069333 185.565333,346.908 185.096,346.908 C184.641333,346.908 184.252667,347.069333 183.93,347.392 C183.607333,347.714667 183.446,348.103333 183.446,348.558 C183.446,349.012667 183.607333,349.405 183.93,349.735 C184.252667,350.065 184.641333,350.23 185.096,350.23 Z M186.504,362 L186.504,351.374 L183.71,351.374 L183.71,362 L186.504,362 Z M192.07,362 L192.07,347.326 L189.276,347.326 L189.276,362 L192.07,362 Z M198.868,362.264 C200.188,362.264 201.280667,361.721333 202.146,360.636 L202.146,360.636 L202.146,362 L204.962,362 L204.962,347.326 L202.146,347.326 L202.146,352.738 C201.324667,351.652667 200.232,351.11 198.868,351.11 C197.489333,351.11 196.36,351.612333 195.48,352.617 C194.6,353.621667 194.16,354.974667 194.16,356.676 C194.16,358.406667 194.6,359.770667 195.48,360.768 C196.36,361.765333 197.489333,362.264 198.868,362.264 Z M199.748,359.778 C198.941333,359.778 198.288667,359.492 197.79,358.92 C197.291333,358.348 197.042,357.6 197.042,356.676 C197.042,355.766667 197.291333,355.026 197.79,354.454 C198.288667,353.882 198.941333,353.596 199.748,353.596 C200.217333,353.596 200.675667,353.709667 201.123,353.937 C201.570333,354.164333 201.911333,354.454 202.146,354.806 L202.146,354.806 L202.146,358.568 C201.911333,358.92 201.570333,359.209667 201.123,359.437 C200.675667,359.664333 200.217333,359.778 199.748,359.778 Z" id="Build" fill="#1B263F" fill-rule="nonzero"></path>
        <path d="M289.576,362 L289.576,356.786 L291.864,356.786 L294.746,362 L298.354,362 L295.032,356.412 C295.912,356.206667 296.671,355.73 297.309,354.982 C297.947,354.234 298.266,353.258667 298.266,352.056 C298.266,350.662667 297.818667,349.526 296.924,348.646 C296.029333,347.766 294.826667,347.326 293.316,347.326 L293.316,347.326 L286.452,347.326 L286.452,362 L289.576,362 Z M292.876,354.036 L289.576,354.036 L289.576,350.076 L292.876,350.076 C293.506667,350.076 294.027333,350.255667 294.438,350.615 C294.848667,350.974333 295.054,351.447333 295.054,352.034 C295.054,352.65 294.848667,353.137667 294.438,353.497 C294.027333,353.856333 293.506667,354.036 292.876,354.036 L292.876,354.036 Z M304.866,362.264 C306.714,362.264 308.173333,361.772667 309.244,360.79 L309.244,360.79 L307.99,358.942 C307.667333,359.264667 307.238333,359.517667 306.703,359.701 C306.167667,359.884333 305.658,359.976 305.174,359.976 C304.308667,359.976 303.608333,359.752333 303.073,359.305 C302.537667,358.857667 302.218667,358.289333 302.116,357.6 L302.116,357.6 L310.014,357.6 L310.014,356.94 C310.014,355.209333 309.522667,353.805 308.54,352.727 C307.557333,351.649 306.274,351.11 304.69,351.11 C303.106,351.11 301.793333,351.649 300.752,352.727 C299.710667,353.805 299.19,355.121333 299.19,356.676 C299.19,358.348 299.725333,359.697333 300.796,360.724 C301.866667,361.750667 303.223333,362.264 304.866,362.264 Z M307.33,355.664 L302.094,355.664 C302.152667,355.048 302.398333,354.516333 302.831,354.069 C303.263667,353.621667 303.883333,353.398 304.69,353.398 C305.526,353.398 306.160333,353.625333 306.593,354.08 C307.025667,354.534667 307.271333,355.062667 307.33,355.664 L307.33,355.664 Z M317.802,362 L322.07,351.374 L319.078,351.374 L316.284,358.766 L313.512,351.374 L310.52,351.374 L314.788,362 L317.802,362 Z M324.71,350.23 C325.179333,350.23 325.575333,350.065 325.898,349.735 C326.220667,349.405 326.382,349.012667 326.382,348.558 C326.382,348.103333 326.220667,347.714667 325.898,347.392 C325.575333,347.069333 325.179333,346.908 324.71,346.908 C324.255333,346.908 323.866667,347.069333 323.544,347.392 C323.221333,347.714667 323.06,348.103333 323.06,348.558 C323.06,349.012667 323.221333,349.405 323.544,349.735 C323.866667,350.065 324.255333,350.23 324.71,350.23 Z M326.118,362 L326.118,351.374 L323.324,351.374 L323.324,362 L326.118,362 Z M333.884,362.264 C335.732,362.264 337.191333,361.772667 338.262,360.79 L338.262,360.79 L337.008,358.942 C336.685333,359.264667 336.256333,359.517667 335.721,359.701 C335.185667,359.884333 334.676,359.976 334.192,359.976 C333.326667,359.976 332.626333,359.752333 332.091,359.305 C331.555667,358.857667 331.236667,358.289333 331.134,357.6 L331.134,357.6 L339.032,357.6 L339.032,356.94 C339.032,355.209333 338.540667,353.805 337.558,352.727 C336.575333,351.649 335.292,351.11 333.708,351.11 C332.124,351.11 330.811333,351.649 329.77,352.727 C328.728667,353.805 328.208,355.121333 328.208,356.676 C328.208,358.348 328.743333,359.697333 329.814,360.724 C330.884667,361.750667 332.241333,362.264 333.884,362.264 Z M336.348,355.664 L331.112,355.664 C331.170667,355.048 331.416333,354.516333 331.849,354.069 C332.281667,353.621667 332.901333,353.398 333.708,353.398 C334.544,353.398 335.178333,353.625333 335.611,354.08 C336.043667,354.534667 336.289333,355.062667 336.348,355.664 L336.348,355.664 Z M345.896,362 L348.14,354.762 L350.384,362 L353.376,362 L356.61,351.374 L353.684,351.374 L351.704,358.524 L349.372,351.374 L346.886,351.374 L344.554,358.524 L342.574,351.374 L339.67,351.374 L342.904,362 L345.896,362 Z" id="Review" fill="#1B263F" fill-rule="nonzero"></path>
        <path d="M443.58,362.264 C446.293333,362.264 448.332,361.061333 449.696,358.656 L449.696,358.656 L447.012,357.358 C446.689333,357.974 446.216333,358.483667 445.593,358.887 C444.969667,359.290333 444.298667,359.492 443.58,359.492 C442.245333,359.492 441.141667,359.037333 440.269,358.128 C439.396333,357.218667 438.96,356.067333 438.96,354.674 C438.96,353.280667 439.396333,352.129333 440.269,351.22 C441.141667,350.310667 442.245333,349.856 443.58,349.856 C444.298667,349.856 444.969667,350.057667 445.593,350.461 C446.216333,350.864333 446.689333,351.374 447.012,351.99 L447.012,351.99 L449.696,350.67 C448.361333,348.279333 446.322667,347.084 443.58,347.084 C441.336,347.084 439.469667,347.788 437.981,349.196 C436.492333,350.604 435.748,352.43 435.748,354.674 C435.748,356.903333 436.492333,358.725667 437.981,360.141 C439.469667,361.556333 441.336,362.264 443.58,362.264 Z M454.69,362 L454.69,347.326 L451.566,347.326 L451.566,362 L454.69,362 Z M458.166,362.44 L463.38,346.886 L461.356,346.886 L456.142,362.44 L458.166,362.44 Z M471.96,362.264 C474.673333,362.264 476.712,361.061333 478.076,358.656 L478.076,358.656 L475.392,357.358 C475.069333,357.974 474.596333,358.483667 473.973,358.887 C473.349667,359.290333 472.678667,359.492 471.96,359.492 C470.625333,359.492 469.521667,359.037333 468.649,358.128 C467.776333,357.218667 467.34,356.067333 467.34,354.674 C467.34,353.280667 467.776333,352.129333 468.649,351.22 C469.521667,350.310667 470.625333,349.856 471.96,349.856 C472.678667,349.856 473.349667,350.057667 473.973,350.461 C474.596333,350.864333 475.069333,351.374 475.392,351.99 L475.392,351.99 L478.076,350.67 C476.741333,348.279333 474.702667,347.084 471.96,347.084 C469.716,347.084 467.849667,347.788 466.361,349.196 C464.872333,350.604 464.128,352.43 464.128,354.674 C464.128,356.903333 464.872333,358.725667 466.361,360.141 C467.849667,361.556333 469.716,362.264 471.96,362.264 Z M485.754,362 C488.056667,362 489.926667,361.329 491.364,359.987 C492.801333,358.645 493.52,356.866667 493.52,354.652 C493.52,352.466667 492.797667,350.699333 491.353,349.35 C489.908333,348.000667 488.034667,347.326 485.732,347.326 L485.732,347.326 L479.946,347.326 L479.946,362 L485.754,362 Z M485.732,359.25 L483.07,359.25 L483.07,350.076 L485.754,350.076 C487.206,350.076 488.331667,350.505 489.131,351.363 C489.930333,352.221 490.33,353.317333 490.33,354.652 C490.33,355.957333 489.915667,357.05 489.087,357.93 C488.258333,358.81 487.14,359.25 485.732,359.25 L485.732,359.25 Z" id="CI/CD" fill="#1B263F" fill-rule="nonzero"></path>
        <path d="M578.816,362.22 C579.3,362.22 579.718,362.044 580.07,361.692 C580.422,361.34 580.598,360.929333 580.598,360.46 C580.598,359.976 580.422,359.558 580.07,359.206 C579.718,358.854 579.3,358.678 578.816,358.678 C578.332,358.678 577.917667,358.854 577.573,359.206 C577.228333,359.558 577.056,359.976 577.056,360.46 C577.056,360.929333 577.228333,361.34 577.573,361.692 C577.917667,362.044 578.332,362.22 578.816,362.22 Z M584.448,362.22 C584.932,362.22 585.35,362.044 585.702,361.692 C586.054,361.34 586.23,360.929333 586.23,360.46 C586.23,359.976 586.054,359.558 585.702,359.206 C585.35,358.854 584.932,358.678 584.448,358.678 C583.964,358.678 583.549667,358.854 583.205,359.206 C582.860333,359.558 582.688,359.976 582.688,360.46 C582.688,360.929333 582.860333,361.34 583.205,361.692 C583.549667,362.044 583.964,362.22 584.448,362.22 Z M590.08,362.22 C590.564,362.22 590.982,362.044 591.334,361.692 C591.686,361.34 591.862,360.929333 591.862,360.46 C591.862,359.976 591.686,359.558 591.334,359.206 C590.982,358.854 590.564,358.678 590.08,358.678 C589.596,358.678 589.181667,358.854 588.837,359.206 C588.492333,359.558 588.32,359.976 588.32,360.46 C588.32,360.929333 588.492333,361.34 588.837,361.692 C589.181667,362.044 589.596,362.22 590.08,362.22 Z" id="…" fill="#1B263F" fill-rule="nonzero"></path>
        <path d="M679.576,362 L679.576,356.764 L683.316,356.764 C684.841333,356.764 686.044,356.313 686.924,355.411 C687.804,354.509 688.244,353.390667 688.244,352.056 C688.244,350.706667 687.807667,349.581 686.935,348.679 C686.062333,347.777 684.856,347.326 683.316,347.326 L683.316,347.326 L676.452,347.326 L676.452,362 L679.576,362 Z M682.876,354.014 L679.576,354.014 L679.576,350.076 L682.876,350.076 C683.506667,350.076 684.027333,350.255667 684.438,350.615 C684.848667,350.974333 685.054,351.454667 685.054,352.056 C685.054,352.642667 684.848667,353.115667 684.438,353.475 C684.027333,353.834333 683.506667,354.014 682.876,354.014 L682.876,354.014 Z M692.93,362 L692.93,354.982 C693.15,354.644667 693.524,354.358667 694.052,354.124 C694.58,353.889333 695.078667,353.772 695.548,353.772 C695.870667,353.772 696.127333,353.794 696.318,353.838 L696.318,353.838 L696.318,351.11 C695.687333,351.11 695.067667,351.271333 694.459,351.594 C693.850333,351.916667 693.340667,352.32 692.93,352.804 L692.93,352.804 L692.93,351.374 L690.136,351.374 L690.136,362 L692.93,362 Z M702.984,362.264 C704.685333,362.264 706.049333,361.728667 707.076,360.658 C708.102667,359.572667 708.616,358.245333 708.616,356.676 C708.616,355.106667 708.102667,353.786667 707.076,352.716 C706.049333,351.645333 704.685333,351.11 702.984,351.11 C701.282667,351.11 699.922333,351.645333 698.903,352.716 C697.883667,353.786667 697.374,355.106667 697.374,356.676 C697.374,358.245333 697.883667,359.569 698.903,360.647 C699.922333,361.725 701.282667,362.264 702.984,362.264 Z M702.984,359.778 C702.148,359.778 701.488,359.481 701.004,358.887 C700.52,358.293 700.278,357.556 700.278,356.676 C700.278,355.810667 700.52,355.081 701.004,354.487 C701.488,353.893 702.148,353.596 702.984,353.596 C703.834667,353.596 704.502,353.893 704.986,354.487 C705.47,355.081 705.712,355.810667 705.712,356.676 C705.712,357.556 705.47,358.293 704.986,358.887 C704.502,359.481 703.834667,359.778 702.984,359.778 Z M714.732,362.264 C716.052,362.264 717.144667,361.721333 718.01,360.636 L718.01,360.636 L718.01,362 L720.826,362 L720.826,347.326 L718.01,347.326 L718.01,352.738 C717.188667,351.652667 716.096,351.11 714.732,351.11 C713.353333,351.11 712.224,351.612333 711.344,352.617 C710.464,353.621667 710.024,354.974667 710.024,356.676 C710.024,358.406667 710.464,359.770667 711.344,360.768 C712.224,361.765333 713.353333,362.264 714.732,362.264 Z M715.612,359.778 C714.805333,359.778 714.152667,359.492 713.654,358.92 C713.155333,358.348 712.906,357.6 712.906,356.676 C712.906,355.766667 713.155333,355.026 713.654,354.454 C714.152667,353.882 714.805333,353.596 715.612,353.596 C716.081333,353.596 716.539667,353.709667 716.987,353.937 C717.434333,354.164333 717.775333,354.454 718.01,354.806 L718.01,354.806 L718.01,358.568 C717.775333,358.92 717.434333,359.209667 716.987,359.437 C716.539667,359.664333 716.081333,359.778 715.612,359.778 Z M727.03,362.264 C728.540667,362.264 729.787333,361.728667 730.77,360.658 L730.77,360.658 L730.77,362 L733.564,362 L733.564,351.374 L730.77,351.374 L730.77,358.568 C730.139333,359.374667 729.332667,359.778 728.35,359.778 C727.044667,359.778 726.392,359.125333 726.392,357.82 L726.392,357.82 L726.392,351.374 L723.598,351.374 L723.598,358.92 C723.598,359.976 723.884,360.797333 724.456,361.384 C725.028,361.970667 725.886,362.264 727.03,362.264 Z M741.286,362.264 C743.148667,362.264 744.549333,361.618667 745.488,360.328 L745.488,360.328 L743.662,358.612 C743.119333,359.389333 742.371333,359.778 741.418,359.778 C740.567333,359.778 739.874333,359.492 739.339,358.92 C738.803667,358.348 738.536,357.6 738.536,356.676 C738.536,355.752 738.803667,355.007667 739.339,354.443 C739.874333,353.878333 740.567333,353.596 741.418,353.596 C742.400667,353.596 743.148667,353.977333 743.662,354.74 L743.662,354.74 L745.488,353.024 C744.564,351.748 743.163333,351.11 741.286,351.11 C739.658,351.11 738.312333,351.630667 737.249,352.672 C736.185667,353.713333 735.654,355.048 735.654,356.676 C735.654,358.304 736.185667,359.642333 737.249,360.691 C738.312333,361.739667 739.658,362.264 741.286,362.264 Z M750.878,362.264 C751.919333,362.264 752.696667,362.036667 753.21,361.582 L753.21,361.582 L752.616,359.448 C752.425333,359.668 752.102667,359.778 751.648,359.778 C751.34,359.778 751.101667,359.668 750.933,359.448 C750.764333,359.228 750.68,358.942 750.68,358.59 L750.68,358.59 L750.68,353.816 L752.836,353.816 L752.836,351.374 L750.68,351.374 L750.68,348.47 L747.886,348.47 L747.886,351.374 L746.126,351.374 L746.126,353.816 L747.886,353.816 L747.886,359.338 C747.886,361.288667 748.883333,362.264 750.878,362.264 Z M756.136,350.23 C756.605333,350.23 757.001333,350.065 757.324,349.735 C757.646667,349.405 757.808,349.012667 757.808,348.558 C757.808,348.103333 757.646667,347.714667 757.324,347.392 C757.001333,347.069333 756.605333,346.908 756.136,346.908 C755.681333,346.908 755.292667,347.069333 754.97,347.392 C754.647333,347.714667 754.486,348.103333 754.486,348.558 C754.486,349.012667 754.647333,349.405 754.97,349.735 C755.292667,350.065 755.681333,350.23 756.136,350.23 Z M757.544,362 L757.544,351.374 L754.75,351.374 L754.75,362 L757.544,362 Z M765.244,362.264 C766.945333,362.264 768.309333,361.728667 769.336,360.658 C770.362667,359.572667 770.876,358.245333 770.876,356.676 C770.876,355.106667 770.362667,353.786667 769.336,352.716 C768.309333,351.645333 766.945333,351.11 765.244,351.11 C763.542667,351.11 762.182333,351.645333 761.163,352.716 C760.143667,353.786667 759.634,355.106667 759.634,356.676 C759.634,358.245333 760.143667,359.569 761.163,360.647 C762.182333,361.725 763.542667,362.264 765.244,362.264 Z M765.244,359.778 C764.408,359.778 763.748,359.481 763.264,358.887 C762.78,358.293 762.538,357.556 762.538,356.676 C762.538,355.810667 762.78,355.081 763.264,354.487 C763.748,353.893 764.408,353.596 765.244,353.596 C766.094667,353.596 766.762,353.893 767.246,354.487 C767.73,355.081 767.972,355.810667 767.972,356.676 C767.972,357.556 767.73,358.293 767.246,358.887 C766.762,359.481 766.094667,359.778 765.244,359.778 Z M775.76,362 L775.76,354.828 C776.405333,354.006667 777.212,353.596 778.18,353.596 C779.485333,353.596 780.138,354.256 780.138,355.576 L780.138,355.576 L780.138,362 L782.954,362 L782.954,354.498 C782.954,353.442 782.660667,352.613333 782.074,352.012 C781.487333,351.410667 780.622,351.11 779.478,351.11 C778.686,351.11 777.963667,351.267667 777.311,351.583 C776.658333,351.898333 776.141333,352.283333 775.76,352.738 L775.76,352.738 L775.76,351.374 L772.966,351.374 L772.966,362 L775.76,362 Z" id="Production" fill="#1B263F" fill-rule="nonzero"></path>
        <polyline id="Path" stroke="#2FCCC7" stroke-width="2" transform="translate(246.000000, 354.000000) rotate(90.000000) translate(-246.000000, -354.000000) " points="230 360 246 348 262 360"></polyline>
        <polyline id="Path" stroke="#2FCCC7" stroke-width="2" transform="translate(396.000000, 354.000000) rotate(90.000000) translate(-396.000000, -354.000000) " points="380 360 396 348 412 360"></polyline>
        <polyline id="Path" stroke="#2FCCC7" stroke-width="2" transform="translate(536.000000, 354.000000) rotate(90.000000) translate(-536.000000, -354.000000) " points="520 360 536 348 552 360"></polyline>
        <polyline id="Path" stroke="#2FCCC7" stroke-width="2" transform="translate(636.000000, 354.000000) rotate(90.000000) translate(-636.000000, -354.000000) " points="620 360 636 348 652 360"></polyline>
        <path d="M155,316 L790,316 L790,0 C739.024482,103.237047 663.009984,177.637047 561.956504,223.2 C460.903024,268.762953 325.250856,299.696286 155,316 Z" id="Path-2" fill-opacity="0.397891171" fill="#64E4D1"></path>
        <path id="Line-2" d="M837.5,46.5 L844.5,60.5 L838.5,60.5 L838.5,313.5 L836.5,313.5 L836.5,60.5 L830.5,60.5 L837.5,46.5 Z" fill="#979797" fill-rule="nonzero"></path>
        <g id="Money-2" transform="translate(872.000000, 207.000000)" fill-rule="nonzero">
            <circle id="Oval" fill="#B7F5BA" cx="25" cy="25" r="25"></circle>
            <circle id="Oval" fill="#72EF78" cx="25.4464286" cy="25.4464286" r="16.5178571"></circle>
            <path d="M32.1428571,28.4821429 C32.1428571,31.4103084 30.2094522,33.6525974 26.2889366,34.0482955 L26.2889366,35.3936688 C26.2889366,36.0531656 25.7250268,36.6071429 25.0537057,36.6071429 C24.301826,36.6071429 23.7379162,36.0531656 23.7379162,35.3936688 L23.7379162,34.0746753 C21.5896885,33.8900162 18.9581095,33.0722402 18.1256713,31.7796266 C17.9645542,31.5158279 17.8571429,31.2520292 17.8571429,30.9354708 C17.8571429,29.9594156 18.6895811,29.1943993 19.6294307,29.1943993 C20.0053706,29.1943993 20.3544576,29.2999188 20.6766917,29.5109578 C21.5359828,30.091315 22.556391,30.5397727 23.7379162,30.7508117 L23.7379162,26.5827922 C20.9720731,25.8969156 17.9645542,24.8944805 17.9645542,21.3068182 C17.9645542,18.6424513 20.1127819,16.3737825 23.7379162,16.0044643 L23.7379162,14.6063312 C23.7379162,13.9468344 24.301826,13.3928571 25.0537057,13.3928571 C25.7250268,13.3928571 26.2889366,13.9468344 26.2889366,14.6063312 L26.2889366,16.057224 C27.8732545,16.2418831 30.1557465,16.8486201 30.934479,17.9829545 C31.0955961,18.2203734 31.2030075,18.510552 31.2030075,18.8007305 C31.2030075,19.8031656 30.2363051,20.5154221 29.2964554,20.5154221 C29.1353384,20.5154221 28.9742213,20.4890422 28.7862513,20.4362825 C28.0075188,20.2252435 27.1213748,19.6185065 26.2889366,19.4338474 L26.2889366,23.1534091 C29.0547798,23.8392857 32.1428571,24.8944805 32.1428571,28.4821429 Z M23.7379162,22.4939123 L23.7379162,19.2755682 C22.5295381,19.4338474 21.858217,20.0933441 21.858217,20.9902598 C21.858217,21.755276 22.6100967,22.1773539 23.7379162,22.4939123 Z M28.2760472,28.9042208 C28.2760472,28.033685 27.443609,27.5852273 26.2889366,27.2159091 L26.2889366,30.7508117 C27.6047261,30.487013 28.2760472,29.7219968 28.2760472,28.9042208 Z" id="Shape" fill="#00BA76"></path>
        </g>
        <path d="M82.052,138.216 C83.936,138.216 85.46,137.418 86.624,135.822 L86.624,135.822 L85.364,135.138 C85.016,135.654 84.545,136.074 83.951,136.398 C83.357,136.722 82.724,136.884 82.052,136.884 C80.732,136.884 79.631,136.425 78.749,135.507 C77.867,134.589 77.426,133.422 77.426,132.006 C77.426,130.578 77.864,129.408 78.74,128.496 C79.616,127.584 80.72,127.128 82.052,127.128 C82.724,127.128 83.357,127.287 83.951,127.605 C84.545,127.923 85.016,128.346 85.364,128.874 L85.364,128.874 L86.606,128.172 C85.502,126.588 83.984,125.796 82.052,125.796 C80.3,125.796 78.833,126.375 77.651,127.533 C76.469,128.691 75.878,130.182 75.878,132.006 C75.878,133.83 76.469,135.321 77.651,136.479 C78.833,137.637 80.3,138.216 82.052,138.216 Z M91.034,138.216 C92.246,138.216 93.206,137.814 93.914,137.01 L93.914,137.01 L93.914,138 L95.264,138 L95.264,132.024 C95.264,131.028 94.952,130.29 94.328,129.81 C93.704,129.33 92.894,129.09 91.898,129.09 C90.506,129.09 89.348,129.57 88.424,130.53 L88.424,130.53 L89.054,131.466 C89.786,130.662 90.674,130.26 91.718,130.26 C92.366,130.26 92.894,130.422 93.302,130.746 C93.71,131.07 93.914,131.514 93.914,132.078 L93.914,132.078 L93.914,133.644 C93.218,132.864 92.258,132.474 91.034,132.474 C90.218,132.474 89.51,132.72 88.91,133.212 C88.31,133.704 88.01,134.412 88.01,135.336 C88.01,136.224 88.316,136.926 88.928,137.442 C89.54,137.958 90.242,138.216 91.034,138.216 Z M91.538,137.244 C90.902,137.244 90.383,137.067 89.981,136.713 C89.579,136.359 89.378,135.9 89.378,135.336 C89.378,134.784 89.579,134.331 89.981,133.977 C90.383,133.623 90.902,133.446 91.538,133.446 C92.594,133.446 93.386,133.8 93.914,134.508 L93.914,134.508 L93.914,136.164 C93.398,136.884 92.606,137.244 91.538,137.244 Z M100.196,138.216 C100.868,138.216 101.402,138.03 101.798,137.658 L101.798,137.658 L101.402,136.632 C101.174,136.884 100.868,137.01 100.484,137.01 C100.208,137.01 99.995,136.908 99.845,136.704 C99.695,136.5 99.62,136.23 99.62,135.894 L99.62,135.894 L99.62,130.494 L101.384,130.494 L101.384,129.306 L99.62,129.306 L99.62,126.93 L98.252,126.93 L98.252,129.306 L96.812,129.306 L96.812,130.494 L98.252,130.494 L98.252,136.182 C98.252,137.538 98.9,138.216 100.196,138.216 Z M107.108,138.216 C108.452,138.216 109.514,137.712 110.294,136.704 L110.294,136.704 L109.394,135.876 C108.83,136.632 108.092,137.01 107.18,137.01 C106.28,137.01 105.554,136.695 105.002,136.065 C104.45,135.435 104.174,134.628 104.174,133.644 C104.174,132.672 104.45,131.871 105.002,131.241 C105.554,130.611 106.28,130.296 107.18,130.296 C108.116,130.296 108.854,130.668 109.394,131.412 L109.394,131.412 L110.294,130.602 C109.514,129.594 108.452,129.09 107.108,129.09 C105.824,129.09 104.78,129.522 103.976,130.386 C103.172,131.25 102.77,132.336 102.77,133.644 C102.77,134.952 103.172,136.041 103.976,136.911 C104.78,137.781 105.824,138.216 107.108,138.216 Z M113.57,138 L113.57,131.646 C113.834,131.274 114.203,130.956 114.677,130.692 C115.151,130.428 115.634,130.296 116.126,130.296 C116.762,130.296 117.248,130.443 117.584,130.737 C117.92,131.031 118.088,131.544 118.088,132.276 L118.088,132.276 L118.088,138 L119.438,138 L119.438,131.862 C119.438,130.014 118.514,129.09 116.666,129.09 C116.054,129.09 115.466,129.234 114.902,129.522 C114.338,129.81 113.894,130.158 113.57,130.566 L113.57,130.566 L113.57,125.994 L112.22,125.994 L112.22,138 L113.57,138 Z M131.084,138.216 C132.236,138.216 133.169,137.805 133.883,136.983 C134.597,136.161 134.954,135.054 134.954,133.662 C134.954,132.282 134.597,131.175 133.883,130.341 C133.169,129.507 132.236,129.09 131.084,129.09 C129.884,129.09 128.906,129.6 128.15,130.62 L128.15,130.62 L128.15,125.994 L126.8,125.994 L126.8,138 L128.15,138 L128.15,136.704 C128.894,137.712 129.872,138.216 131.084,138.216 Z M130.76,137.01 C130.232,137.01 129.725,136.878 129.239,136.614 C128.753,136.35 128.39,136.026 128.15,135.642 L128.15,135.642 L128.15,131.7 C128.39,131.304 128.753,130.971 129.239,130.701 C129.725,130.431 130.232,130.296 130.76,130.296 C131.612,130.296 132.29,130.611 132.794,131.241 C133.298,131.871 133.55,132.678 133.55,133.662 C133.55,134.646 133.298,135.45 132.794,136.074 C132.29,136.698 131.612,137.01 130.76,137.01 Z M139.922,138.216 C140.534,138.216 141.113,138.078 141.659,137.802 C142.205,137.526 142.658,137.184 143.018,136.776 L143.018,136.776 L143.018,138 L144.368,138 L144.368,129.306 L143.018,129.306 L143.018,135.696 C142.754,136.068 142.388,136.38 141.92,136.632 C141.452,136.884 140.966,137.01 140.462,137.01 C139.826,137.01 139.34,136.86 139.004,136.56 C138.668,136.26 138.5,135.75 138.5,135.03 L138.5,135.03 L138.5,129.306 L137.15,129.306 L137.15,135.444 C137.15,137.292 138.074,138.216 139.922,138.216 Z M150.56,141.528 C151.76,141.528 152.753,141.237 153.539,140.655 C154.325,140.073 154.718,139.146 154.718,137.874 L154.718,137.874 L154.718,129.306 L153.368,129.306 L153.368,130.62 C152.612,129.6 151.634,129.09 150.434,129.09 C149.282,129.09 148.349,129.498 147.635,130.314 C146.921,131.13 146.564,132.228 146.564,133.608 C146.564,134.988 146.921,136.083 147.635,136.893 C148.349,137.703 149.282,138.108 150.434,138.108 C151.022,138.108 151.574,137.967 152.09,137.685 C152.606,137.403 153.032,137.028 153.368,136.56 L153.368,136.56 L153.368,137.874 C153.368,138.738 153.098,139.377 152.558,139.791 C152.018,140.205 151.352,140.412 150.56,140.412 C149.336,140.412 148.394,140.022 147.734,139.242 L147.734,139.242 L147.05,140.214 C147.554,140.706 148.076,141.048 148.616,141.24 C149.156,141.432 149.804,141.528 150.56,141.528 Z M150.776,136.902 C149.912,136.902 149.228,136.596 148.724,135.984 C148.22,135.372 147.968,134.58 147.968,133.608 C147.968,132.624 148.22,131.826 148.724,131.214 C149.228,130.602 149.912,130.296 150.776,130.296 C151.292,130.296 151.79,130.431 152.27,130.701 C152.75,130.971 153.116,131.298 153.368,131.682 L153.368,131.682 L153.368,135.498 C153.116,135.894 152.75,136.227 152.27,136.497 C151.79,136.767 151.292,136.902 150.776,136.902 Z M160.19,138.216 C161.27,138.216 162.107,137.97 162.701,137.478 C163.295,136.986 163.592,136.356 163.592,135.588 C163.592,135.06 163.46,134.613 163.196,134.247 C162.932,133.881 162.599,133.617 162.197,133.455 C161.795,133.293 161.363,133.146 160.901,133.014 C160.439,132.882 160.007,132.774 159.605,132.69 C159.203,132.606 158.87,132.468 158.606,132.276 C158.342,132.084 158.21,131.844 158.21,131.556 C158.21,131.16 158.384,130.833 158.732,130.575 C159.08,130.317 159.548,130.188 160.136,130.188 C161.252,130.188 162.116,130.554 162.728,131.286 L162.728,131.286 L163.358,130.35 C162.542,129.51 161.468,129.09 160.136,129.09 C159.14,129.09 158.354,129.33 157.778,129.81 C157.202,130.29 156.914,130.884 156.914,131.592 C156.914,132.192 157.1,132.675 157.472,133.041 C157.844,133.407 158.291,133.665 158.813,133.815 C159.335,133.965 159.86,134.097 160.388,134.211 C160.916,134.325 161.366,134.493 161.738,134.715 C162.11,134.937 162.296,135.24 162.296,135.624 C162.296,136.068 162.113,136.428 161.747,136.704 C161.381,136.98 160.874,137.118 160.226,137.118 C159.662,137.118 159.119,136.998 158.597,136.758 C158.075,136.518 157.664,136.224 157.364,135.876 L157.364,135.876 L156.68,136.848 C157.556,137.76 158.726,138.216 160.19,138.216 Z M173.438,138 L175.706,131.016 L177.974,138 L179.342,138 L182.114,129.306 L180.692,129.306 L178.568,136.236 L176.3,129.306 L175.13,129.306 L172.844,136.236 L170.72,129.306 L169.316,129.306 L172.088,138 L173.438,138 Z M185.03,138 L185.03,131.646 C185.294,131.274 185.663,130.956 186.137,130.692 C186.611,130.428 187.094,130.296 187.586,130.296 C188.222,130.296 188.708,130.443 189.044,130.737 C189.38,131.031 189.548,131.544 189.548,132.276 L189.548,132.276 L189.548,138 L190.898,138 L190.898,131.862 C190.898,130.014 189.974,129.09 188.126,129.09 C187.514,129.09 186.926,129.234 186.362,129.522 C185.798,129.81 185.354,130.158 185.03,130.566 L185.03,130.566 L185.03,125.994 L183.68,125.994 L183.68,138 L185.03,138 Z M194.282,128.064 C194.534,128.064 194.744,127.98 194.912,127.812 C195.092,127.632 195.182,127.416 195.182,127.164 C195.182,126.912 195.095,126.696 194.921,126.516 C194.747,126.336 194.534,126.246 194.282,126.246 C194.03,126.246 193.814,126.336 193.634,126.516 C193.454,126.696 193.364,126.912 193.364,127.164 C193.364,127.416 193.454,127.629 193.634,127.803 C193.814,127.977 194.03,128.064 194.282,128.064 Z M194.948,138 L194.948,129.306 L193.598,129.306 L193.598,138 L194.948,138 Z M198.998,138 L198.998,125.994 L197.648,125.994 L197.648,138 L198.998,138 Z M205.64,138.216 C207.02,138.216 208.172,137.766 209.096,136.866 L209.096,136.866 L208.448,135.984 C207.728,136.728 206.828,137.1 205.748,137.1 C204.848,137.1 204.119,136.812 203.561,136.236 C203.003,135.66 202.694,134.946 202.634,134.094 L202.634,134.094 L209.654,134.094 L209.654,133.752 C209.654,132.408 209.279,131.295 208.529,130.413 C207.779,129.531 206.762,129.09 205.478,129.09 C204.254,129.09 203.234,129.531 202.418,130.413 C201.602,131.295 201.194,132.372 201.194,133.644 C201.194,135 201.608,136.101 202.436,136.947 C203.264,137.793 204.332,138.216 205.64,138.216 Z M208.322,133.086 L202.616,133.086 C202.652,132.342 202.919,131.676 203.417,131.088 C203.915,130.5 204.596,130.206 205.46,130.206 C206.372,130.206 207.074,130.503 207.566,131.097 C208.058,131.691 208.31,132.354 208.322,133.086 L208.322,133.086 Z M218.708,138.216 C219.38,138.216 219.914,138.03 220.31,137.658 L220.31,137.658 L219.914,136.632 C219.686,136.884 219.38,137.01 218.996,137.01 C218.72,137.01 218.507,136.908 218.357,136.704 C218.207,136.5 218.132,136.23 218.132,135.894 L218.132,135.894 L218.132,130.494 L219.896,130.494 L219.896,129.306 L218.132,129.306 L218.132,126.93 L216.764,126.93 L216.764,129.306 L215.324,129.306 L215.324,130.494 L216.764,130.494 L216.764,136.182 C216.764,137.538 217.412,138.216 218.708,138.216 Z M223.154,138 L223.154,131.646 C223.418,131.274 223.787,130.956 224.261,130.692 C224.735,130.428 225.218,130.296 225.71,130.296 C226.346,130.296 226.832,130.443 227.168,130.737 C227.504,131.031 227.672,131.544 227.672,132.276 L227.672,132.276 L227.672,138 L229.022,138 L229.022,131.862 C229.022,130.014 228.098,129.09 226.25,129.09 C225.638,129.09 225.05,129.234 224.486,129.522 C223.922,129.81 223.478,130.158 223.154,130.566 L223.154,130.566 L223.154,125.994 L221.804,125.994 L221.804,138 L223.154,138 Z M235.664,138.216 C237.044,138.216 238.196,137.766 239.12,136.866 L239.12,136.866 L238.472,135.984 C237.752,136.728 236.852,137.1 235.772,137.1 C234.872,137.1 234.143,136.812 233.585,136.236 C233.027,135.66 232.718,134.946 232.658,134.094 L232.658,134.094 L239.678,134.094 L239.678,133.752 C239.678,132.408 239.303,131.295 238.553,130.413 C237.803,129.531 236.786,129.09 235.502,129.09 C234.278,129.09 233.258,129.531 232.442,130.413 C231.626,131.295 231.218,132.372 231.218,133.644 C231.218,135 231.632,136.101 232.46,136.947 C233.288,137.793 234.356,138.216 235.664,138.216 Z M238.346,133.086 L232.64,133.086 C232.676,132.342 232.943,131.676 233.441,131.088 C233.939,130.5 234.62,130.206 235.484,130.206 C236.396,130.206 237.098,130.503 237.59,131.097 C238.082,131.691 238.334,132.354 238.346,133.086 L238.346,133.086 Z M242.36,141.528 C243.584,141.504 244.436,140.916 244.916,139.764 L244.916,139.764 L249.272,129.306 L247.814,129.306 L244.916,136.434 L242.036,129.306 L240.56,129.306 L244.196,138.09 L243.62,139.404 C243.476,139.752 243.302,139.992 243.098,140.124 C242.894,140.256 242.636,140.322 242.324,140.322 C242.048,140.322 241.802,140.274 241.586,140.178 L241.586,140.178 L241.388,141.402 C241.664,141.486 241.988,141.528 242.36,141.528 Z M257.894,138.216 C259.106,138.216 260.066,137.814 260.774,137.01 L260.774,137.01 L260.774,138 L262.124,138 L262.124,132.024 C262.124,131.028 261.812,130.29 261.188,129.81 C260.564,129.33 259.754,129.09 258.758,129.09 C257.366,129.09 256.208,129.57 255.284,130.53 L255.284,130.53 L255.914,131.466 C256.646,130.662 257.534,130.26 258.578,130.26 C259.226,130.26 259.754,130.422 260.162,130.746 C260.57,131.07 260.774,131.514 260.774,132.078 L260.774,132.078 L260.774,133.644 C260.078,132.864 259.118,132.474 257.894,132.474 C257.078,132.474 256.37,132.72 255.77,133.212 C255.17,133.704 254.87,134.412 254.87,135.336 C254.87,136.224 255.176,136.926 255.788,137.442 C256.4,137.958 257.102,138.216 257.894,138.216 Z M258.398,137.244 C257.762,137.244 257.243,137.067 256.841,136.713 C256.439,136.359 256.238,135.9 256.238,135.336 C256.238,134.784 256.439,134.331 256.841,133.977 C257.243,133.623 257.762,133.446 258.398,133.446 C259.454,133.446 260.246,133.8 260.774,134.508 L260.774,134.508 L260.774,136.164 C260.258,136.884 259.466,137.244 258.398,137.244 Z M266.192,138 L266.192,131.844 C266.396,131.484 266.738,131.163 267.218,130.881 C267.698,130.599 268.148,130.458 268.568,130.458 C268.7,130.458 268.874,130.47 269.09,130.494 L269.09,130.494 L269.09,129.108 C267.986,129.108 267.02,129.636 266.192,130.692 L266.192,130.692 L266.192,129.306 L264.842,129.306 L264.842,138 L266.192,138 Z M274.724,138.216 C276.104,138.216 277.256,137.766 278.18,136.866 L278.18,136.866 L277.532,135.984 C276.812,136.728 275.912,137.1 274.832,137.1 C273.932,137.1 273.203,136.812 272.645,136.236 C272.087,135.66 271.778,134.946 271.718,134.094 L271.718,134.094 L278.738,134.094 L278.738,133.752 C278.738,132.408 278.363,131.295 277.613,130.413 C276.863,129.531 275.846,129.09 274.562,129.09 C273.338,129.09 272.318,129.531 271.502,130.413 C270.686,131.295 270.278,132.372 270.278,133.644 C270.278,135 270.692,136.101 271.52,136.947 C272.348,137.793 273.416,138.216 274.724,138.216 Z M277.406,133.086 L271.7,133.086 C271.736,132.342 272.003,131.676 272.501,131.088 C272.999,130.5 273.68,130.206 274.544,130.206 C275.456,130.206 276.158,130.503 276.65,131.097 C277.142,131.691 277.394,132.354 277.406,133.086 L277.406,133.086 Z M288.35,138.216 C289.43,138.216 290.267,137.97 290.861,137.478 C291.455,136.986 291.752,136.356 291.752,135.588 C291.752,135.06 291.62,134.613 291.356,134.247 C291.092,133.881 290.759,133.617 290.357,133.455 C289.955,133.293 289.523,133.146 289.061,133.014 C288.599,132.882 288.167,132.774 287.765,132.69 C287.363,132.606 287.03,132.468 286.766,132.276 C286.502,132.084 286.37,131.844 286.37,131.556 C286.37,131.16 286.544,130.833 286.892,130.575 C287.24,130.317 287.708,130.188 288.296,130.188 C289.412,130.188 290.276,130.554 290.888,131.286 L290.888,131.286 L291.518,130.35 C290.702,129.51 289.628,129.09 288.296,129.09 C287.3,129.09 286.514,129.33 285.938,129.81 C285.362,130.29 285.074,130.884 285.074,131.592 C285.074,132.192 285.26,132.675 285.632,133.041 C286.004,133.407 286.451,133.665 286.973,133.815 C287.495,133.965 288.02,134.097 288.548,134.211 C289.076,134.325 289.526,134.493 289.898,134.715 C290.27,134.937 290.456,135.24 290.456,135.624 C290.456,136.068 290.273,136.428 289.907,136.704 C289.541,136.98 289.034,137.118 288.386,137.118 C287.822,137.118 287.279,136.998 286.757,136.758 C286.235,136.518 285.824,136.224 285.524,135.876 L285.524,135.876 L284.84,136.848 C285.716,137.76 286.886,138.216 288.35,138.216 Z M296.162,138.216 C296.834,138.216 297.368,138.03 297.764,137.658 L297.764,137.658 L297.368,136.632 C297.14,136.884 296.834,137.01 296.45,137.01 C296.174,137.01 295.961,136.908 295.811,136.704 C295.661,136.5 295.586,136.23 295.586,135.894 L295.586,135.894 L295.586,130.494 L297.35,130.494 L297.35,129.306 L295.586,129.306 L295.586,126.93 L294.218,126.93 L294.218,129.306 L292.778,129.306 L292.778,130.494 L294.218,130.494 L294.218,136.182 C294.218,137.538 294.866,138.216 296.162,138.216 Z M299.924,128.064 C300.176,128.064 300.386,127.98 300.554,127.812 C300.734,127.632 300.824,127.416 300.824,127.164 C300.824,126.912 300.737,126.696 300.563,126.516 C300.389,126.336 300.176,126.246 299.924,126.246 C299.672,126.246 299.456,126.336 299.276,126.516 C299.096,126.696 299.006,126.912 299.006,127.164 C299.006,127.416 299.096,127.629 299.276,127.803 C299.456,127.977 299.672,128.064 299.924,128.064 Z M300.59,138 L300.59,129.306 L299.24,129.306 L299.24,138 L300.59,138 Z M304.64,138 L304.64,125.994 L303.29,125.994 L303.29,138 L304.64,138 Z M308.69,138 L308.69,125.994 L307.34,125.994 L307.34,138 L308.69,138 Z M151.865,160.216 C153.209,160.216 154.271,159.712 155.051,158.704 L155.051,158.704 L154.151,157.876 C153.587,158.632 152.849,159.01 151.937,159.01 C151.037,159.01 150.311,158.695 149.759,158.065 C149.207,157.435 148.931,156.628 148.931,155.644 C148.931,154.672 149.207,153.871 149.759,153.241 C150.311,152.611 151.037,152.296 151.937,152.296 C152.873,152.296 153.611,152.668 154.151,153.412 L154.151,153.412 L155.051,152.602 C154.271,151.594 153.209,151.09 151.865,151.09 C150.581,151.09 149.537,151.522 148.733,152.386 C147.929,153.25 147.527,154.336 147.527,155.644 C147.527,156.952 147.929,158.041 148.733,158.911 C149.537,159.781 150.581,160.216 151.865,160.216 Z M158.327,160 L158.327,153.646 C158.591,153.274 158.96,152.956 159.434,152.692 C159.908,152.428 160.391,152.296 160.883,152.296 C161.519,152.296 162.005,152.443 162.341,152.737 C162.677,153.031 162.845,153.544 162.845,154.276 L162.845,154.276 L162.845,160 L164.195,160 L164.195,153.862 C164.195,152.014 163.271,151.09 161.423,151.09 C160.811,151.09 160.223,151.234 159.659,151.522 C159.095,151.81 158.651,152.158 158.327,152.566 L158.327,152.566 L158.327,147.994 L156.977,147.994 L156.977,160 L158.327,160 Z M170.837,160.216 C172.217,160.216 173.369,159.766 174.293,158.866 L174.293,158.866 L173.645,157.984 C172.925,158.728 172.025,159.1 170.945,159.1 C170.045,159.1 169.316,158.812 168.758,158.236 C168.2,157.66 167.891,156.946 167.831,156.094 L167.831,156.094 L174.851,156.094 L174.851,155.752 C174.851,154.408 174.476,153.295 173.726,152.413 C172.976,151.531 171.959,151.09 170.675,151.09 C169.451,151.09 168.431,151.531 167.615,152.413 C166.799,153.295 166.391,154.372 166.391,155.644 C166.391,157 166.805,158.101 167.633,158.947 C168.461,159.793 169.529,160.216 170.837,160.216 Z M173.519,155.086 L167.813,155.086 C167.849,154.342 168.116,153.676 168.614,153.088 C169.112,152.5 169.793,152.206 170.657,152.206 C171.569,152.206 172.271,152.503 172.763,153.097 C173.255,153.691 173.507,154.354 173.519,155.086 L173.519,155.086 Z M179.585,160.216 C180.797,160.216 181.757,159.814 182.465,159.01 L182.465,159.01 L182.465,160 L183.815,160 L183.815,154.024 C183.815,153.028 183.503,152.29 182.879,151.81 C182.255,151.33 181.445,151.09 180.449,151.09 C179.057,151.09 177.899,151.57 176.975,152.53 L176.975,152.53 L177.605,153.466 C178.337,152.662 179.225,152.26 180.269,152.26 C180.917,152.26 181.445,152.422 181.853,152.746 C182.261,153.07 182.465,153.514 182.465,154.078 L182.465,154.078 L182.465,155.644 C181.769,154.864 180.809,154.474 179.585,154.474 C178.769,154.474 178.061,154.72 177.461,155.212 C176.861,155.704 176.561,156.412 176.561,157.336 C176.561,158.224 176.867,158.926 177.479,159.442 C178.091,159.958 178.793,160.216 179.585,160.216 Z M180.089,159.244 C179.453,159.244 178.934,159.067 178.532,158.713 C178.13,158.359 177.929,157.9 177.929,157.336 C177.929,156.784 178.13,156.331 178.532,155.977 C178.934,155.623 179.453,155.446 180.089,155.446 C181.145,155.446 181.937,155.8 182.465,156.508 L182.465,156.508 L182.465,158.164 C181.949,158.884 181.157,159.244 180.089,159.244 Z M187.883,163.312 L187.883,158.686 C188.651,159.706 189.629,160.216 190.817,160.216 C191.969,160.216 192.902,159.802 193.616,158.974 C194.33,158.146 194.687,157.036 194.687,155.644 C194.687,154.252 194.33,153.145 193.616,152.323 C192.902,151.501 191.969,151.09 190.817,151.09 C190.217,151.09 189.659,151.228 189.143,151.504 C188.627,151.78 188.207,152.146 187.883,152.602 L187.883,152.602 L187.883,151.306 L186.533,151.306 L186.533,163.312 L187.883,163.312 Z M190.475,159.01 C189.959,159.01 189.458,158.875 188.972,158.605 C188.486,158.335 188.123,158.002 187.883,157.606 L187.883,157.606 L187.883,153.682 C188.123,153.298 188.486,152.971 188.972,152.701 C189.458,152.431 189.959,152.296 190.475,152.296 C191.327,152.296 192.005,152.608 192.509,153.232 C193.013,153.856 193.265,154.66 193.265,155.644 C193.265,156.628 193.013,157.435 192.509,158.065 C192.005,158.695 191.327,159.01 190.475,159.01 Z M203.705,160.216 C204.377,160.216 204.911,160.03 205.307,159.658 L205.307,159.658 L204.911,158.632 C204.683,158.884 204.377,159.01 203.993,159.01 C203.717,159.01 203.504,158.908 203.354,158.704 C203.204,158.5 203.129,158.23 203.129,157.894 L203.129,157.894 L203.129,152.494 L204.893,152.494 L204.893,151.306 L203.129,151.306 L203.129,148.93 L201.761,148.93 L201.761,151.306 L200.321,151.306 L200.321,152.494 L201.761,152.494 L201.761,158.182 C201.761,159.538 202.409,160.216 203.705,160.216 Z M210.581,160.216 C211.877,160.216 212.915,159.778 213.695,158.902 C214.487,158.026 214.883,156.94 214.883,155.644 C214.883,154.348 214.49,153.265 213.704,152.395 C212.918,151.525 211.877,151.09 210.581,151.09 C209.285,151.09 208.244,151.525 207.458,152.395 C206.672,153.265 206.279,154.348 206.279,155.644 C206.279,156.94 206.672,158.026 207.458,158.902 C208.244,159.778 209.285,160.216 210.581,160.216 Z M210.581,159.01 C209.693,159.01 208.991,158.686 208.475,158.038 C207.959,157.378 207.701,156.58 207.701,155.644 C207.701,154.708 207.959,153.916 208.475,153.268 C208.991,152.62 209.693,152.296 210.581,152.296 C211.469,152.296 212.171,152.62 212.687,153.268 C213.203,153.916 213.461,154.708 213.461,155.644 C213.461,156.58 213.203,157.375 212.687,158.029 C212.171,158.683 211.469,159.01 210.581,159.01 Z M223.469,160 L223.469,152.494 L225.233,152.494 L225.233,151.306 L223.469,151.306 L223.469,150.64 C223.469,149.5 223.931,148.93 224.855,148.93 C225.143,148.93 225.401,148.996 225.629,149.128 L225.629,149.128 L225.971,148.102 C225.623,147.91 225.179,147.814 224.639,147.814 C223.883,147.814 223.274,148.063 222.812,148.561 C222.35,149.059 222.119,149.752 222.119,150.64 L222.119,150.64 L222.119,151.306 L220.679,151.306 L220.679,152.494 L222.119,152.494 L222.119,160 L223.469,160 Z M227.537,150.064 C227.789,150.064 227.999,149.98 228.167,149.812 C228.347,149.632 228.437,149.416 228.437,149.164 C228.437,148.912 228.35,148.696 228.176,148.516 C228.002,148.336 227.789,148.246 227.537,148.246 C227.285,148.246 227.069,148.336 226.889,148.516 C226.709,148.696 226.619,148.912 226.619,149.164 C226.619,149.416 226.709,149.629 226.889,149.803 C227.069,149.977 227.285,150.064 227.537,150.064 Z M228.203,160 L228.203,151.306 L226.853,151.306 L226.853,160 L228.203,160 Z M231.317,160 L233.927,156.436 L236.555,160 L238.103,160 L234.755,155.536 L237.905,151.306 L236.357,151.306 L233.927,154.618 L231.515,151.306 L229.949,151.306 L233.099,155.536 L229.769,160 L231.317,160 Z" id="Catchbugswhiletheyarestillcheaptofx" fill="#435977" fill-rule="nonzero"></path>
        <path id="Line" d="M185,181 L185,286 L189,286 L184.5,295 L180,286 L184,286 L184,181 L185,181 Z" fill="#979797" fill-rule="nonzero"></path>
        <path d="M631.872,241 L631.872,230.326 L635.688,230.326 L635.688,228.994 L626.58,228.994 L626.58,230.326 L630.378,230.326 L630.378,241 L631.872,241 Z M638.298,231.064 C638.55,231.064 638.76,230.98 638.928,230.812 C639.108,230.632 639.198,230.416 639.198,230.164 C639.198,229.912 639.111,229.696 638.937,229.516 C638.763,229.336 638.55,229.246 638.298,229.246 C638.046,229.246 637.83,229.336 637.65,229.516 C637.47,229.696 637.38,229.912 637.38,230.164 C637.38,230.416 637.47,230.629 637.65,230.803 C637.83,230.977 638.046,231.064 638.298,231.064 Z M638.964,241 L638.964,232.306 L637.614,232.306 L637.614,241 L638.964,241 Z M643.014,241 L643.014,234.646 C643.266,234.274 643.605,233.956 644.031,233.692 C644.457,233.428 644.88,233.296 645.3,233.296 C646.368,233.296 646.902,233.896 646.902,235.096 L646.902,235.096 L646.902,241 L648.252,241 L648.252,234.628 C648.492,234.256 648.828,233.941 649.26,233.683 C649.692,233.425 650.124,233.296 650.556,233.296 C651.624,233.296 652.158,233.896 652.158,235.096 L652.158,235.096 L652.158,241 L653.508,241 L653.508,234.718 C653.508,232.966 652.698,232.09 651.078,232.09 C650.478,232.09 649.908,232.252 649.368,232.576 C648.828,232.9 648.426,233.278 648.162,233.71 C648.03,233.23 647.766,232.84 647.37,232.54 C646.974,232.24 646.464,232.09 645.84,232.09 C645.252,232.09 644.691,232.249 644.157,232.567 C643.623,232.885 643.242,233.218 643.014,233.566 L643.014,233.566 L643.014,232.306 L641.664,232.306 L641.664,241 L643.014,241 Z M660.15,241.216 C661.53,241.216 662.682,240.766 663.606,239.866 L663.606,239.866 L662.958,238.984 C662.238,239.728 661.338,240.1 660.258,240.1 C659.358,240.1 658.629,239.812 658.071,239.236 C657.513,238.66 657.204,237.946 657.144,237.094 L657.144,237.094 L664.164,237.094 L664.164,236.752 C664.164,235.408 663.789,234.295 663.039,233.413 C662.289,232.531 661.272,232.09 659.988,232.09 C658.764,232.09 657.744,232.531 656.928,233.413 C656.112,234.295 655.704,235.372 655.704,236.644 C655.704,238 656.118,239.101 656.946,239.947 C657.774,240.793 658.842,241.216 660.15,241.216 Z M662.832,236.086 L657.126,236.086 C657.162,235.342 657.429,234.676 657.927,234.088 C658.425,233.5 659.106,233.206 659.97,233.206 C660.882,233.206 661.584,233.503 662.076,234.097 C662.568,234.691 662.82,235.354 662.832,236.086 L662.832,236.086 Z M671.688,231.064 C671.94,231.064 672.15,230.98 672.318,230.812 C672.498,230.632 672.588,230.416 672.588,230.164 C672.588,229.912 672.501,229.696 672.327,229.516 C672.153,229.336 671.94,229.246 671.688,229.246 C671.436,229.246 671.22,229.336 671.04,229.516 C670.86,229.696 670.77,229.912 670.77,230.164 C670.77,230.416 670.86,230.629 671.04,230.803 C671.22,230.977 671.436,231.064 671.688,231.064 Z M672.354,241 L672.354,232.306 L671.004,232.306 L671.004,241 L672.354,241 Z M677.268,241.216 C677.94,241.216 678.474,241.03 678.87,240.658 L678.87,240.658 L678.474,239.632 C678.246,239.884 677.94,240.01 677.556,240.01 C677.28,240.01 677.067,239.908 676.917,239.704 C676.767,239.5 676.692,239.23 676.692,238.894 L676.692,238.894 L676.692,233.494 L678.456,233.494 L678.456,232.306 L676.692,232.306 L676.692,229.93 L675.324,229.93 L675.324,232.306 L673.884,232.306 L673.884,233.494 L675.324,233.494 L675.324,239.182 C675.324,240.538 675.972,241.216 677.268,241.216 Z M687.222,241.216 C687.894,241.216 688.428,241.03 688.824,240.658 L688.824,240.658 L688.428,239.632 C688.2,239.884 687.894,240.01 687.51,240.01 C687.234,240.01 687.021,239.908 686.871,239.704 C686.721,239.5 686.646,239.23 686.646,238.894 L686.646,238.894 L686.646,233.494 L688.41,233.494 L688.41,232.306 L686.646,232.306 L686.646,229.93 L685.278,229.93 L685.278,232.306 L683.838,232.306 L683.838,233.494 L685.278,233.494 L685.278,239.182 C685.278,240.538 685.926,241.216 687.222,241.216 Z M692.856,241.216 C694.068,241.216 695.028,240.814 695.736,240.01 L695.736,240.01 L695.736,241 L697.086,241 L697.086,235.024 C697.086,234.028 696.774,233.29 696.15,232.81 C695.526,232.33 694.716,232.09 693.72,232.09 C692.328,232.09 691.17,232.57 690.246,233.53 L690.246,233.53 L690.876,234.466 C691.608,233.662 692.496,233.26 693.54,233.26 C694.188,233.26 694.716,233.422 695.124,233.746 C695.532,234.07 695.736,234.514 695.736,235.078 L695.736,235.078 L695.736,236.644 C695.04,235.864 694.08,235.474 692.856,235.474 C692.04,235.474 691.332,235.72 690.732,236.212 C690.132,236.704 689.832,237.412 689.832,238.336 C689.832,239.224 690.138,239.926 690.75,240.442 C691.362,240.958 692.064,241.216 692.856,241.216 Z M693.36,240.244 C692.724,240.244 692.205,240.067 691.803,239.713 C691.401,239.359 691.2,238.9 691.2,238.336 C691.2,237.784 691.401,237.331 691.803,236.977 C692.205,236.623 692.724,236.446 693.36,236.446 C694.416,236.446 695.208,236.8 695.736,237.508 L695.736,237.508 L695.736,239.164 C695.22,239.884 694.428,240.244 693.36,240.244 Z M701.154,241 L701.154,238.516 L702.612,237.094 L705.726,241 L707.454,241 L703.584,236.248 L707.436,232.306 L705.726,232.306 L701.154,236.932 L701.154,228.994 L699.804,228.994 L699.804,241 L701.154,241 Z M712.944,241.216 C714.324,241.216 715.476,240.766 716.4,239.866 L716.4,239.866 L715.752,238.984 C715.032,239.728 714.132,240.1 713.052,240.1 C712.152,240.1 711.423,239.812 710.865,239.236 C710.307,238.66 709.998,237.946 709.938,237.094 L709.938,237.094 L716.958,237.094 L716.958,236.752 C716.958,235.408 716.583,234.295 715.833,233.413 C715.083,232.531 714.066,232.09 712.782,232.09 C711.558,232.09 710.538,232.531 709.722,233.413 C708.906,234.295 708.498,235.372 708.498,236.644 C708.498,238 708.912,239.101 709.74,239.947 C710.568,240.793 711.636,241.216 712.944,241.216 Z M715.626,236.086 L709.92,236.086 C709.956,235.342 710.223,234.676 710.721,234.088 C711.219,233.5 711.9,233.206 712.764,233.206 C713.676,233.206 714.378,233.503 714.87,234.097 C715.362,234.691 715.614,235.354 715.626,236.086 L715.626,236.086 Z M721.908,241.216 C722.988,241.216 723.825,240.97 724.419,240.478 C725.013,239.986 725.31,239.356 725.31,238.588 C725.31,238.06 725.178,237.613 724.914,237.247 C724.65,236.881 724.317,236.617 723.915,236.455 C723.513,236.293 723.081,236.146 722.619,236.014 C722.157,235.882 721.725,235.774 721.323,235.69 C720.921,235.606 720.588,235.468 720.324,235.276 C720.06,235.084 719.928,234.844 719.928,234.556 C719.928,234.16 720.102,233.833 720.45,233.575 C720.798,233.317 721.266,233.188 721.854,233.188 C722.97,233.188 723.834,233.554 724.446,234.286 L724.446,234.286 L725.076,233.35 C724.26,232.51 723.186,232.09 721.854,232.09 C720.858,232.09 720.072,232.33 719.496,232.81 C718.92,233.29 718.632,233.884 718.632,234.592 C718.632,235.192 718.818,235.675 719.19,236.041 C719.562,236.407 720.009,236.665 720.531,236.815 C721.053,236.965 721.578,237.097 722.106,237.211 C722.634,237.325 723.084,237.493 723.456,237.715 C723.828,237.937 724.014,238.24 724.014,238.624 C724.014,239.068 723.831,239.428 723.465,239.704 C723.099,239.98 722.592,240.118 721.944,240.118 C721.38,240.118 720.837,239.998 720.315,239.758 C719.793,239.518 719.382,239.224 719.082,238.876 L719.082,238.876 L718.398,239.848 C719.274,240.76 720.444,241.216 721.908,241.216 Z M734.382,241.216 C735.054,241.216 735.588,241.03 735.984,240.658 L735.984,240.658 L735.588,239.632 C735.36,239.884 735.054,240.01 734.67,240.01 C734.394,240.01 734.181,239.908 734.031,239.704 C733.881,239.5 733.806,239.23 733.806,238.894 L733.806,238.894 L733.806,233.494 L735.57,233.494 L735.57,232.306 L733.806,232.306 L733.806,229.93 L732.438,229.93 L732.438,232.306 L730.998,232.306 L730.998,233.494 L732.438,233.494 L732.438,239.182 C732.438,240.538 733.086,241.216 734.382,241.216 Z M741.258,241.216 C742.554,241.216 743.592,240.778 744.372,239.902 C745.164,239.026 745.56,237.94 745.56,236.644 C745.56,235.348 745.167,234.265 744.381,233.395 C743.595,232.525 742.554,232.09 741.258,232.09 C739.962,232.09 738.921,232.525 738.135,233.395 C737.349,234.265 736.956,235.348 736.956,236.644 C736.956,237.94 737.349,239.026 738.135,239.902 C738.921,240.778 739.962,241.216 741.258,241.216 Z M741.258,240.01 C740.37,240.01 739.668,239.686 739.152,239.038 C738.636,238.378 738.378,237.58 738.378,236.644 C738.378,235.708 738.636,234.916 739.152,234.268 C739.668,233.62 740.37,233.296 741.258,233.296 C742.146,233.296 742.848,233.62 743.364,234.268 C743.88,234.916 744.138,235.708 744.138,236.644 C744.138,237.58 743.88,238.375 743.364,239.029 C742.848,239.683 742.146,240.01 741.258,240.01 Z M754.146,241 L754.146,233.494 L755.91,233.494 L755.91,232.306 L754.146,232.306 L754.146,231.64 C754.146,230.5 754.608,229.93 755.532,229.93 C755.82,229.93 756.078,229.996 756.306,230.128 L756.306,230.128 L756.648,229.102 C756.3,228.91 755.856,228.814 755.316,228.814 C754.56,228.814 753.951,229.063 753.489,229.561 C753.027,230.059 752.796,230.752 752.796,231.64 L752.796,231.64 L752.796,232.306 L751.356,232.306 L751.356,233.494 L752.796,233.494 L752.796,241 L754.146,241 Z M758.214,231.064 C758.466,231.064 758.676,230.98 758.844,230.812 C759.024,230.632 759.114,230.416 759.114,230.164 C759.114,229.912 759.027,229.696 758.853,229.516 C758.679,229.336 758.466,229.246 758.214,229.246 C757.962,229.246 757.746,229.336 757.566,229.516 C757.386,229.696 757.296,229.912 757.296,230.164 C757.296,230.416 757.386,230.629 757.566,230.803 C757.746,230.977 757.962,231.064 758.214,231.064 Z M758.88,241 L758.88,232.306 L757.53,232.306 L757.53,241 L758.88,241 Z M761.994,241 L764.604,237.436 L767.232,241 L768.78,241 L765.432,236.536 L768.582,232.306 L767.034,232.306 L764.604,235.618 L762.192,232.306 L760.626,232.306 L763.776,236.536 L760.446,241 L761.994,241 Z M683.64,263.216 C684.792,263.216 685.725,262.805 686.439,261.983 C687.153,261.161 687.51,260.054 687.51,258.662 C687.51,257.282 687.153,256.175 686.439,255.341 C685.725,254.507 684.792,254.09 683.64,254.09 C682.44,254.09 681.462,254.6 680.706,255.62 L680.706,255.62 L680.706,250.994 L679.356,250.994 L679.356,263 L680.706,263 L680.706,261.704 C681.45,262.712 682.428,263.216 683.64,263.216 Z M683.316,262.01 C682.788,262.01 682.281,261.878 681.795,261.614 C681.309,261.35 680.946,261.026 680.706,260.642 L680.706,260.642 L680.706,256.7 C680.946,256.304 681.309,255.971 681.795,255.701 C682.281,255.431 682.788,255.296 683.316,255.296 C684.168,255.296 684.846,255.611 685.35,256.241 C685.854,256.871 686.106,257.678 686.106,258.662 C686.106,259.646 685.854,260.45 685.35,261.074 C684.846,261.698 684.168,262.01 683.316,262.01 Z M692.478,263.216 C693.09,263.216 693.669,263.078 694.215,262.802 C694.761,262.526 695.214,262.184 695.574,261.776 L695.574,261.776 L695.574,263 L696.924,263 L696.924,254.306 L695.574,254.306 L695.574,260.696 C695.31,261.068 694.944,261.38 694.476,261.632 C694.008,261.884 693.522,262.01 693.018,262.01 C692.382,262.01 691.896,261.86 691.56,261.56 C691.224,261.26 691.056,260.75 691.056,260.03 L691.056,260.03 L691.056,254.306 L689.706,254.306 L689.706,260.444 C689.706,262.292 690.63,263.216 692.478,263.216 Z M703.116,266.528 C704.316,266.528 705.309,266.237 706.095,265.655 C706.881,265.073 707.274,264.146 707.274,262.874 L707.274,262.874 L707.274,254.306 L705.924,254.306 L705.924,255.62 C705.168,254.6 704.19,254.09 702.99,254.09 C701.838,254.09 700.905,254.498 700.191,255.314 C699.477,256.13 699.12,257.228 699.12,258.608 C699.12,259.988 699.477,261.083 700.191,261.893 C700.905,262.703 701.838,263.108 702.99,263.108 C703.578,263.108 704.13,262.967 704.646,262.685 C705.162,262.403 705.588,262.028 705.924,261.56 L705.924,261.56 L705.924,262.874 C705.924,263.738 705.654,264.377 705.114,264.791 C704.574,265.205 703.908,265.412 703.116,265.412 C701.892,265.412 700.95,265.022 700.29,264.242 L700.29,264.242 L699.606,265.214 C700.11,265.706 700.632,266.048 701.172,266.24 C701.712,266.432 702.36,266.528 703.116,266.528 Z M703.332,261.902 C702.468,261.902 701.784,261.596 701.28,260.984 C700.776,260.372 700.524,259.58 700.524,258.608 C700.524,257.624 700.776,256.826 701.28,256.214 C701.784,255.602 702.468,255.296 703.332,255.296 C703.848,255.296 704.346,255.431 704.826,255.701 C705.306,255.971 705.672,256.298 705.924,256.682 L705.924,256.682 L705.924,260.498 C705.672,260.894 705.306,261.227 704.826,261.497 C704.346,261.767 703.848,261.902 703.332,261.902 Z M712.746,263.216 C713.826,263.216 714.663,262.97 715.257,262.478 C715.851,261.986 716.148,261.356 716.148,260.588 C716.148,260.06 716.016,259.613 715.752,259.247 C715.488,258.881 715.155,258.617 714.753,258.455 C714.351,258.293 713.919,258.146 713.457,258.014 C712.995,257.882 712.563,257.774 712.161,257.69 C711.759,257.606 711.426,257.468 711.162,257.276 C710.898,257.084 710.766,256.844 710.766,256.556 C710.766,256.16 710.94,255.833 711.288,255.575 C711.636,255.317 712.104,255.188 712.692,255.188 C713.808,255.188 714.672,255.554 715.284,256.286 L715.284,256.286 L715.914,255.35 C715.098,254.51 714.024,254.09 712.692,254.09 C711.696,254.09 710.91,254.33 710.334,254.81 C709.758,255.29 709.47,255.884 709.47,256.592 C709.47,257.192 709.656,257.675 710.028,258.041 C710.4,258.407 710.847,258.665 711.369,258.815 C711.891,258.965 712.416,259.097 712.944,259.211 C713.472,259.325 713.922,259.493 714.294,259.715 C714.666,259.937 714.852,260.24 714.852,260.624 C714.852,261.068 714.669,261.428 714.303,261.704 C713.937,261.98 713.43,262.118 712.782,262.118 C712.218,262.118 711.675,261.998 711.153,261.758 C710.631,261.518 710.22,261.224 709.92,260.876 L709.92,260.876 L709.236,261.848 C710.112,262.76 711.282,263.216 712.746,263.216 Z" id="Timeittakestofxbugs" fill="#435977" fill-rule="nonzero"></path>
    </g>
</svg>