<svg xmlns="http://www.w3.org/2000/svg" xmlns:xlink="http://www.w3.org/1999/xlink" viewBox="0 0 30.14 34.04"><defs><style>.cls-1,.cls-2,.cls-3,.cls-4{fill-rule:evenodd;}.cls-1{fill:url(#New_Gradient_Swatch_3);}.cls-2{fill:url(#New_Gradient_Swatch_4);}.cls-3{fill:url(#New_Gradient_Swatch_2);}.cls-4{fill:url(#New_Gradient_Swatch);}</style><linearGradient id="New_Gradient_Swatch_3" x1="10.48" y1="8.51" x2="22.6" y2="8.51" gradientUnits="userSpaceOnUse"><stop offset="0" stop-color="#6fffe9"/><stop offset="1" stop-color="#57e6d1"/></linearGradient><linearGradient id="New_Gradient_Swatch_4" x1="8.38" y1="14.13" x2="13.66" y2="23.27" gradientUnits="userSpaceOnUse"><stop offset="0" stop-color="#3a506b"/><stop offset="1" stop-color="#243952"/></linearGradient><linearGradient id="New_Gradient_Swatch_2" x1="19.65" y1="17.49" x2="15.89" y2="24.02" gradientUnits="userSpaceOnUse"><stop offset="0" stop-color="#20bdba"/><stop offset="1" stop-color="#33dedb"/></linearGradient><linearGradient id="New_Gradient_Swatch" x1="7.53" y1="25.53" x2="22.6" y2="25.53" gradientUnits="userSpaceOnUse"><stop offset="0" stop-color="#1c2541"/><stop offset="1" stop-color="#0f0f2d"/></linearGradient></defs><title>Asset 3</title><g id="Layer_2" data-name="Layer 2"><g id="Layer_1-2" data-name="Layer 1"><path class="cls-1" d="M16.29.33,29.22,7.79a1.84,1.84,0,0,1,.92,1.59V17L16.62,9.22a3.07,3.07,0,0,0-3.1,0l-6,3.45V4L13.85.33A2.42,2.42,0,0,1,16.29.33Z"/><path class="cls-2" d="M7.53,4,.92,7.79A1.84,1.84,0,0,0,0,9.38V17l15.07,8.7,7.53-4.35L7.53,12.67Z"/><path class="cls-3" d="M7.53,12.67,13.85,9a2.42,2.42,0,0,1,2.44,0l13.85,8v7.64a1.83,1.83,0,0,1-.92,1.59L22.6,30.07v-8.7Z"/><path class="cls-4" d="M16.29,33.72l6.31-3.65v-8.7L16.29,25a2.47,2.47,0,0,1-2.44,0L0,17v7.64a1.83,1.83,0,0,0,.92,1.59l12.93,7.47A2.47,2.47,0,0,0,16.29,33.72Z"/></g></g></svg>