<?xml version="1.0" encoding="UTF-8"?>
<svg width="1024px" height="400px" viewBox="0 0 1024 400" version="1.1" xmlns="http://www.w3.org/2000/svg" xmlns:xlink="http://www.w3.org/1999/xlink">
    <!-- Generator: Sketch 60.1 (88133) - https://sketch.com -->
    <title>repo-in-a-bad-state</title>
    <desc>Created with Sketch.</desc>
    <g id="repo-in-a-bad-state" stroke="none" stroke-width="1" fill="none" fill-rule="evenodd">
        <rect fill="#000000" x="0" y="0" width="1024" height="400"></rect>
        <g id="ERROR:-This-repo-is" transform="translate(200.652686, 178.807666)" fill-rule="nonzero">
            <path d="M11.4998291,21.192334 L11.4998291,18.1606934 L3.67294922,18.1606934 L3.67294922,12.8698975 L11.1354492,12.8698975 L11.1354492,9.91113281 L3.67294922,9.91113281 L3.67294922,5.17419434 L11.4998291,5.17419434 L11.4998291,2.14255371 L0.0291503906,2.14255371 L0.0291503906,21.192334 L11.4998291,21.192334 Z M19.2246826,21.192334 L19.2246826,13.3071533 L19.9097168,13.3071533 C20.521875,13.3071533 21.0538696,13.4553345 21.5057007,13.7516968 C21.9575317,14.0480591 22.3097656,14.4877441 22.5624023,15.070752 L22.5624023,15.070752 L25.2442383,21.192334 L29.4564697,21.192334 L26.4102539,14.8083984 C26.021582,13.9921875 25.6329102,13.3678833 25.2442383,12.9354858 C24.8555664,12.5030884 24.4280273,12.2383057 23.9616211,12.1411377 C24.5640625,12.0439697 25.1203491,11.8739258 25.630481,11.6310059 C26.1406128,11.3880859 26.5802979,11.0698608 26.9495361,10.6763306 C27.3187744,10.2828003 27.6054199,9.81396484 27.8094727,9.26982422 C28.0135254,8.72568359 28.1155518,8.10380859 28.1155518,7.40419922 C28.1155518,6.43251953 27.9527954,5.6114502 27.6272827,4.94099121 C27.30177,4.27053223 26.837793,3.7263916 26.2353516,3.30856934 C25.6329102,2.89074707 24.9041504,2.59195557 24.0490723,2.41219482 C23.1939941,2.23243408 22.241748,2.14255371 21.192334,2.14255371 L21.192334,2.14255371 L15.6391846,2.14255371 L15.6391846,21.192334 L19.2246826,21.192334 Z M20.6822021,10.5087158 L19.2246826,10.5087158 L19.2246826,5.13046875 L20.7988037,5.13046875 C21.9842529,5.13046875 22.8733398,5.33452148 23.4660645,5.74262695 C24.0587891,6.15073242 24.3551514,6.82119141 24.3551514,7.75400391 C24.3551514,8.20097656 24.2677002,8.59693604 24.0927979,8.94188232 C23.9178955,9.28682861 23.6701172,9.57590332 23.3494629,9.80910645 C23.0288086,10.0423096 22.6425659,10.2172119 22.1907349,10.3338135 C21.7389038,10.450415 21.2360596,10.5087158 20.6822021,10.5087158 L20.6822021,10.5087158 Z M35.6363525,21.192334 L35.6363525,13.3071533 L36.3213867,13.3071533 C36.9335449,13.3071533 37.4655396,13.4553345 37.9173706,13.7516968 C38.3692017,14.0480591 38.7214355,14.4877441 38.9740723,15.070752 L38.9740723,15.070752 L41.6559082,21.192334 L45.8681396,21.192334 L42.8219238,14.8083984 C42.433252,13.9921875 42.0445801,13.3678833 41.6559082,12.9354858 C41.2672363,12.5030884 40.8396973,12.2383057 40.373291,12.1411377 C40.9757324,12.0439697 41.532019,11.8739258 42.0421509,11.6310059 C42.5522827,11.3880859 42.9919678,11.0698608 43.3612061,10.6763306 C43.7304443,10.2828003 44.0170898,9.81396484 44.2211426,9.26982422 C44.4251953,8.72568359 44.5272217,8.10380859 44.5272217,7.40419922 C44.5272217,6.43251953 44.3644653,5.6114502 44.0389526,4.94099121 C43.7134399,4.27053223 43.2494629,3.7263916 42.6470215,3.30856934 C42.0445801,2.89074707 41.3158203,2.59195557 40.4607422,2.41219482 C39.6056641,2.23243408 38.653418,2.14255371 37.6040039,2.14255371 L37.6040039,2.14255371 L32.0508545,2.14255371 L32.0508545,21.192334 L35.6363525,21.192334 Z M37.0938721,10.5087158 L35.6363525,10.5087158 L35.6363525,5.13046875 L37.2104736,5.13046875 C38.3959229,5.13046875 39.2850098,5.33452148 39.8777344,5.74262695 C40.470459,6.15073242 40.7668213,6.82119141 40.7668213,7.75400391 C40.7668213,8.20097656 40.6793701,8.59693604 40.5044678,8.94188232 C40.3295654,9.28682861 40.0817871,9.57590332 39.7611328,9.80910645 C39.4404785,10.0423096 39.0542358,10.2172119 38.6024048,10.3338135 C38.1505737,10.450415 37.6477295,10.5087158 37.0938721,10.5087158 L37.0938721,10.5087158 Z M54.6715576,21.5275635 C55.7501221,21.5275635 56.7630981,21.3332275 57.7104858,20.9445557 C58.6578735,20.5558838 59.4838013,19.9583008 60.188269,19.1518066 C60.8927368,18.3453125 61.4465942,17.315332 61.8498413,16.0618652 C62.2530884,14.8083984 62.4547119,13.3168701 62.4547119,11.5872803 C62.4547119,8.4001709 61.8231201,5.97583008 60.5599365,4.31425781 C59.2967529,2.65268555 57.4116943,1.82189941 54.9047607,1.82189941 C53.8261963,1.82189941 52.8132202,2.01623535 51.8658325,2.40490723 C50.9184448,2.7935791 50.0925171,3.39116211 49.3880493,4.19765625 C48.6835815,5.00415039 48.1297241,6.03413086 47.7264771,7.28759766 C47.32323,8.54106445 47.1216064,10.0325928 47.1216064,11.7621826 C47.1216064,14.9395752 47.7531982,17.3614868 49.0163818,19.0279175 C50.2795654,20.6943481 52.164624,21.5275635 54.6715576,21.5275635 Z M54.7881592,18.2918701 C53.4180908,18.2918701 52.4294067,17.7380127 51.8221069,16.6302979 C51.2148071,15.522583 50.9111572,13.8415771 50.9111572,11.5872803 C50.9111572,10.5378662 50.9840332,9.60748291 51.1297852,8.79613037 C51.2755371,7.98477783 51.506311,7.30217285 51.8221069,6.74831543 C52.1379028,6.19445801 52.5387207,5.77420654 53.0245605,5.48756104 C53.5104004,5.20091553 54.0982666,5.05759277 54.7881592,5.05759277 C56.1679443,5.05759277 57.1590576,5.6114502 57.761499,6.71916504 C58.3639404,7.82687988 58.6651611,9.50788574 58.6651611,11.7621826 C58.6651611,12.8115967 58.5922852,13.74198 58.4465332,14.5533325 C58.3007812,15.3646851 58.0724365,16.04729 57.761499,16.6011475 C57.4505615,17.1550049 57.0497437,17.5752563 56.5590454,17.8619019 C56.0683472,18.1485474 55.4780518,18.2918701 54.7881592,18.2918701 Z M68.4596924,21.192334 L68.4596924,13.3071533 L69.1447266,13.3071533 C69.7568848,13.3071533 70.2888794,13.4553345 70.7407104,13.7516968 C71.1925415,14.0480591 71.5447754,14.4877441 71.7974121,15.070752 L71.7974121,15.070752 L74.479248,21.192334 L78.6914795,21.192334 L75.6452637,14.8083984 C75.2565918,13.9921875 74.8679199,13.3678833 74.479248,12.9354858 C74.0905762,12.5030884 73.6630371,12.2383057 73.1966309,12.1411377 C73.7990723,12.0439697 74.3553589,11.8739258 74.8654907,11.6310059 C75.3756226,11.3880859 75.8153076,11.0698608 76.1845459,10.6763306 C76.5537842,10.2828003 76.8404297,9.81396484 77.0444824,9.26982422 C77.2485352,8.72568359 77.3505615,8.10380859 77.3505615,7.40419922 C77.3505615,6.43251953 77.1878052,5.6114502 76.8622925,4.94099121 C76.5367798,4.27053223 76.0728027,3.7263916 75.4703613,3.30856934 C74.8679199,2.89074707 74.1391602,2.59195557 73.284082,2.41219482 C72.4290039,2.23243408 71.4767578,2.14255371 70.4273437,2.14255371 L70.4273437,2.14255371 L64.8741943,2.14255371 L64.8741943,21.192334 L68.4596924,21.192334 Z M69.9172119,10.5087158 L68.4596924,10.5087158 L68.4596924,5.13046875 L70.0338135,5.13046875 C71.2192627,5.13046875 72.1083496,5.33452148 72.7010742,5.74262695 C73.2937988,6.15073242 73.5901611,6.82119141 73.5901611,7.75400391 C73.5901611,8.20097656 73.50271,8.59693604 73.3278076,8.94188232 C73.1529053,9.28682861 72.905127,9.57590332 72.5844727,9.80910645 C72.2638184,10.0423096 71.8775757,10.2172119 71.4257446,10.3338135 C70.9739136,10.450415 70.4710693,10.5087158 69.9172119,10.5087158 L69.9172119,10.5087158 Z M87.611499,11.4852539 C87.9807373,11.4852539 88.3256836,11.4172363 88.6463379,11.2812012 C88.9669922,11.145166 89.2439209,10.9605469 89.477124,10.7273438 C89.7103271,10.4941406 89.8949463,10.2172119 90.0309814,9.89655762 C90.1670166,9.57590332 90.2350342,9.23095703 90.2350342,8.86171875 C90.2350342,8.50219727 90.1670166,8.16210938 90.0309814,7.84145508 C89.8949463,7.52080078 89.7103271,7.24144287 89.477124,7.00338135 C89.2439209,6.76531982 88.9669922,6.57827148 88.6463379,6.44223633 C88.3256836,6.30620117 87.9807373,6.23818359 87.611499,6.23818359 C87.2422607,6.23818359 86.8997437,6.30620117 86.5839478,6.44223633 C86.2681519,6.57827148 85.9912231,6.76531982 85.7531616,7.00338135 C85.5151001,7.24144287 85.3280518,7.52080078 85.1920166,7.84145508 C85.0559814,8.16210938 84.9879639,8.50219727 84.9879639,8.86171875 C84.9879639,9.23095703 85.0559814,9.57590332 85.1920166,9.89655762 C85.3280518,10.2172119 85.5151001,10.4941406 85.7531616,10.7273438 C85.9912231,10.9605469 86.2681519,11.145166 86.5839478,11.2812012 C86.8997437,11.4172363 87.2422607,11.4852539 87.611499,11.4852539 Z M87.611499,21.5275635 C87.9807373,21.5275635 88.3256836,21.4595459 88.6463379,21.3235107 C88.9669922,21.1874756 89.2439209,21.0004272 89.477124,20.7623657 C89.7103271,20.5243042 89.8949463,20.2449463 90.0309814,19.924292 C90.1670166,19.6036377 90.2350342,19.2586914 90.2350342,18.8894531 C90.2350342,18.5299316 90.1670166,18.1898437 90.0309814,17.8691895 C89.8949463,17.5485352 89.7103271,17.2716064 89.477124,17.0384033 C89.2439209,16.8052002 88.9669922,16.6205811 88.6463379,16.4845459 C88.3256836,16.3485107 87.9807373,16.2804932 87.611499,16.2804932 C87.2422607,16.2804932 86.8997437,16.3485107 86.5839478,16.4845459 C86.2681519,16.6205811 85.9912231,16.8052002 85.7531616,17.0384033 C85.5151001,17.2716064 85.3280518,17.5485352 85.1920166,17.8691895 C85.0559814,18.1898437 84.9879639,18.5299316 84.9879639,18.8894531 C84.9879639,19.2586914 85.0559814,19.6036377 85.1920166,19.924292 C85.3280518,20.2449463 85.5151001,20.5243042 85.7531616,20.7623657 C85.9912231,21.0004272 86.2681519,21.1874756 86.5839478,21.3235107 C86.8997437,21.4595459 87.2422607,21.5275635 87.611499,21.5275635 Z" id="ERROR:" fill="#D0021B"></path>
            <path d="M121.746606,21.192334 L121.746606,4.3579834 L127.387207,4.3579834 L127.387207,2.14255371 L113.482471,2.14255371 L113.482471,4.3579834 L119.123071,4.3579834 L119.123071,21.192334 L121.746606,21.192334 Z M133.508789,21.192334 L133.508789,11.4852539 C134.004346,10.9022461 134.441602,10.4164063 134.820557,10.0277344 C135.199512,9.6390625 135.549316,9.3305542 135.869971,9.10220947 C136.190625,8.87386475 136.499133,8.7135376 136.795496,8.62122803 C137.091858,8.52891846 137.410083,8.48276367 137.750171,8.48276367 C138.537231,8.48276367 139.142102,8.76212158 139.564783,9.3208374 C139.987463,9.87955322 140.198804,10.7224854 140.198804,11.8496338 L140.198804,11.8496338 L140.198804,21.192334 L142.734888,21.192334 L142.734888,11.6455811 C142.734888,9.85769043 142.336499,8.51920166 141.539722,7.63011475 C140.742944,6.74102783 139.615796,6.29648438 138.158276,6.29648438 C137.730737,6.29648438 137.317773,6.34020996 136.919385,6.42766113 C136.520996,6.5151123 136.129895,6.66086426 135.746082,6.86491699 C135.362268,7.06896973 134.978455,7.33375244 134.594641,7.65926514 C134.210828,7.98477783 133.819727,8.3855957 133.421338,8.86171875 L133.421338,8.86171875 L133.508789,6.55883789 L133.508789,0.597583008 L130.972705,0.597583008 L130.972705,21.192334 L133.508789,21.192334 Z M153.258179,4.41628418 C153.539966,4.41628418 153.802319,4.365271 154.045239,4.26324463 C154.288159,4.16121826 154.4995,4.01789551 154.67926,3.83327637 C154.859021,3.64865723 154.999915,3.4348877 155.101941,3.19196777 C155.203967,2.94904785 155.25498,2.69155273 155.25498,2.41948242 C155.25498,2.13769531 155.203967,1.877771 155.101941,1.63970947 C154.999915,1.40164795 154.859021,1.19030762 154.67926,1.00568848 C154.4995,0.821069336 154.288159,0.677746582 154.045239,0.575720215 C153.802319,0.473693848 153.539966,0.422680664 153.258179,0.422680664 C152.976392,0.422680664 152.714038,0.473693848 152.471118,0.575720215 C152.228198,0.677746582 152.016858,0.821069336 151.837097,1.00568848 C151.657336,1.19030762 151.516443,1.40164795 151.414417,1.63970947 C151.31239,1.877771 151.261377,2.13769531 151.261377,2.41948242 C151.261377,2.69155273 151.31239,2.94904785 151.414417,3.19196777 C151.516443,3.4348877 151.657336,3.64865723 151.837097,3.83327637 C152.016858,4.01789551 152.228198,4.16121826 152.471118,4.26324463 C152.714038,4.365271 152.976392,4.41628418 153.258179,4.41628418 Z M159.29231,21.192334 L159.29231,19.0789307 L154.934326,19.0789307 L154.934326,6.55883789 L148.040259,6.55883789 L148.040259,8.65766602 L152.369092,8.65766602 L152.369092,19.0789307 L147.559277,19.0789307 L147.559277,21.192334 L159.29231,21.192334 Z M169.290894,21.4546875 C169.747583,21.4546875 170.213989,21.4206787 170.690112,21.3526611 C171.166235,21.2846436 171.630212,21.1777588 172.082043,21.0320068 C172.533875,20.8862549 172.958984,20.7016357 173.357373,20.4781494 C173.755762,20.2546631 174.105566,19.985022 174.406787,19.6692261 C174.708008,19.3534302 174.946069,18.9914795 175.120972,18.583374 C175.295874,18.1752686 175.383325,17.7137207 175.383325,17.1987305 C175.383325,16.6545898 175.303162,16.16875 175.142834,15.7412109 C174.982507,15.3136719 174.717725,14.9298584 174.348486,14.5897705 C173.979248,14.2496826 173.498267,13.9411743 172.905542,13.6642456 C172.312817,13.3873169 171.584058,13.1225342 170.719263,12.8698975 C169.922485,12.6366943 169.276318,12.4204956 168.780762,12.2213013 C168.285205,12.0221069 167.898962,11.8229126 167.622034,11.6237183 C167.345105,11.4245239 167.155627,11.218042 167.053601,11.0042725 C166.951575,10.7905029 166.900562,10.5524414 166.900562,10.2900879 C166.900562,10.0277344 166.958862,9.78238525 167.075464,9.55404053 C167.192065,9.3256958 167.383972,9.12650146 167.651184,8.95645752 C167.918396,8.78641357 168.268201,8.65280762 168.700598,8.55563965 C169.132996,8.45847168 169.66499,8.4098877 170.296582,8.4098877 C170.821289,8.4098877 171.440735,8.45604248 172.154919,8.54835205 C172.869104,8.64066162 173.624585,8.78398438 174.421362,8.97832031 L174.421362,8.97832031 L174.421362,6.71916504 C173.663452,6.56369629 172.934692,6.45438232 172.235083,6.39122314 C171.535474,6.32806396 170.899023,6.29648438 170.325732,6.29648438 C169.159717,6.29648438 168.188037,6.43494873 167.410693,6.71187744 C166.63335,6.98880615 166.016333,7.33618164 165.559644,7.75400391 C165.102954,8.17182617 164.779871,8.62365723 164.590393,9.10949707 C164.400916,9.59533691 164.306177,10.0423096 164.306177,10.450415 C164.306177,11.07229 164.422778,11.6115723 164.655981,12.0682617 C164.889185,12.5249512 165.209839,12.9233398 165.617944,13.2634277 C166.02605,13.6035156 166.50946,13.8974487 167.068176,14.1452271 C167.626892,14.3930054 168.236621,14.6140625 168.897363,14.8083984 C169.781592,15.070752 170.478772,15.3039551 170.988904,15.5080078 C171.499036,15.7120605 171.875562,15.9088257 172.118481,16.0983032 C172.361401,16.2877808 172.529016,16.4869751 172.621326,16.6958862 C172.713635,16.9047974 172.75979,17.1404297 172.75979,17.4027832 C172.75979,18.0149414 172.468286,18.4862061 171.885278,18.8165771 C171.302271,19.1469482 170.403467,19.3121338 169.188867,19.3121338 C168.353223,19.3121338 167.51272,19.2489746 166.667358,19.1226563 C165.821997,18.9963379 164.971777,18.8117188 164.116699,18.5687988 L164.116699,18.5687988 L164.116699,20.9008301 C164.913477,21.095166 165.727258,21.2360596 166.558044,21.3235107 C167.388831,21.4109619 168.29978,21.4546875 169.290894,21.4546875 Z M199.782202,21.192334 L199.782202,11.791333 C200.248608,11.1986084 200.685864,10.693335 201.09397,10.2755127 C201.502075,9.85769043 201.888318,9.51517334 202.252698,9.24796143 C202.617078,8.98074951 202.971741,8.78641357 203.316687,8.66495361 C203.661633,8.54349365 204.00415,8.48276367 204.344238,8.48276367 C205.121582,8.48276367 205.711877,8.77183838 206.115125,9.34998779 C206.518372,9.92813721 206.70542,10.8585205 206.67627,12.1411377 L206.67627,12.1411377 L209.241504,12.1411377 C209.299805,10.2074951 208.937854,8.74997559 208.155652,7.7685791 C207.37345,6.78718262 206.224438,6.29648438 204.708618,6.29648438 C203.85354,6.29648438 203.00575,6.5296875 202.165247,6.99609375 C201.324744,7.4625 200.472095,8.21555176 199.6073,9.25524902 L199.6073,9.25524902 L199.534424,6.55883789 L197.216968,6.55883789 L197.216968,21.192334 L199.782202,21.192334 Z M219.560742,21.4546875 C220.493555,21.4546875 221.394788,21.3939575 222.264441,21.2724976 C223.134094,21.1510376 223.913867,20.9931396 224.60376,20.7988037 L224.60376,20.7988037 L224.60376,18.7145508 C224.292822,18.802002 223.955164,18.8821655 223.590784,18.9550415 C223.226404,19.0279175 222.84502,19.0935059 222.446631,19.1518066 C222.048242,19.2101074 221.635278,19.2562622 221.207739,19.290271 C220.7802,19.3242798 220.352661,19.3412842 219.925122,19.3412842 C218.351001,19.3412842 217.146118,18.9404663 216.310474,18.1388306 C215.474829,17.3371948 215.057007,16.1881836 215.057007,14.6917969 L215.057007,14.6917969 L225.33252,14.6917969 C225.351953,14.4780273 225.366528,14.2496826 225.376245,14.0067627 C225.385962,13.7638428 225.39082,13.4626221 225.39082,13.1031006 C225.39082,12.0634033 225.252356,11.1233032 224.975427,10.2828003 C224.698499,9.44229736 224.290393,8.72811279 223.751111,8.14024658 C223.211829,7.55238037 222.548657,7.09812012 221.761597,6.77746582 C220.974536,6.45681152 220.070874,6.29648438 219.05061,6.29648438 C218.001196,6.29648438 217.063525,6.50053711 216.237598,6.90864258 C215.41167,7.31674805 214.71449,7.86817627 214.146057,8.56292725 C213.577625,9.25767822 213.145227,10.0641724 212.848865,10.9824097 C212.552502,11.900647 212.404321,12.8747559 212.404321,13.9047363 C212.404321,15.0901855 212.542786,16.1517456 212.819714,17.0894165 C213.096643,18.0270874 213.524182,18.8190063 214.102332,19.4651733 C214.680481,20.1113403 215.421387,20.6044678 216.325049,20.9445557 C217.228711,21.2846436 218.307275,21.4546875 219.560742,21.4546875 Z M222.75271,12.7387207 L215.057007,12.7387207 C215.105591,12.0876953 215.231909,11.4901123 215.435962,10.9459717 C215.640015,10.4018311 215.907227,9.9354248 216.237598,9.54675293 C216.567969,9.15808105 216.961499,8.85686035 217.418188,8.64309082 C217.874878,8.42932129 218.380151,8.32243652 218.934009,8.32243652 C219.575317,8.32243652 220.138892,8.43175049 220.624731,8.65037842 C221.110571,8.86900635 221.516248,9.17265625 221.84176,9.56132813 C222.167273,9.95 222.407764,10.4139771 222.563232,10.9532593 C222.718701,11.4925415 222.78186,12.0876953 222.75271,12.7387207 L222.75271,12.7387207 Z M231.978809,27.1681641 L231.978809,21.046582 C232.454932,21.1631836 232.923767,21.2457764 233.385315,21.2943604 C233.846863,21.3429443 234.31084,21.3672363 234.777246,21.3672363 C235.79751,21.3672363 236.744897,21.2069092 237.619409,20.8862549 C238.493921,20.5656006 239.251831,20.0846191 239.89314,19.4433105 C240.534448,18.802002 241.037292,17.9955078 241.401672,17.0238281 C241.766052,16.0521484 241.948242,14.9152832 241.948242,13.6132324 C241.948242,12.5055176 241.841357,11.5022583 241.627588,10.6034546 C241.413818,9.70465088 241.093164,8.93702393 240.665625,8.30057373 C240.238086,7.66412354 239.708521,7.17099609 239.076929,6.82119141 C238.445337,6.47138672 237.711719,6.29648438 236.876074,6.29648438 C235.914111,6.29648438 235.020166,6.49810791 234.194238,6.90135498 C233.368311,7.30460205 232.590967,8.00664063 231.862207,9.0074707 L231.862207,9.0074707 L231.70188,6.55883789 L229.442725,6.55883789 L229.442725,27.1681641 L231.978809,27.1681641 Z M234.966724,19.3121338 C234.471167,19.3121338 233.965894,19.2562622 233.450903,19.144519 C232.935913,19.0327759 232.445215,18.8797363 231.978809,18.6854004 L231.978809,18.6854004 L231.978809,11.5872803 C232.425781,11.0042725 232.846033,10.5160034 233.239563,10.1224731 C233.633093,9.72894287 234.00719,9.41314697 234.361853,9.17508545 C234.716516,8.93702393 235.059033,8.76697998 235.389404,8.66495361 C235.719775,8.56292725 236.045288,8.51191406 236.365942,8.51191406 C236.890649,8.51191406 237.34248,8.64066162 237.721436,8.89815674 C238.100391,9.15565186 238.411328,9.51274414 238.654248,9.96943359 C238.897168,10.426123 239.0745,10.9751221 239.186243,11.6164307 C239.297986,12.2577393 239.353857,12.962207 239.353857,13.729834 C239.353857,15.595459 238.965186,16.9922485 238.187842,17.9202026 C237.410498,18.8481567 236.336792,19.3121338 234.966724,19.3121338 Z M251.582446,21.4546875 C252.680444,21.4546875 253.661841,21.2676392 254.526636,20.8935425 C255.391431,20.5194458 256.125049,19.9947388 256.72749,19.3194214 C257.329932,18.644104 257.791479,17.8327515 258.112134,16.8853638 C258.432788,15.9379761 258.593115,14.8958496 258.593115,13.7589844 C258.593115,12.5541016 258.440076,11.4852539 258.133997,10.5524414 C257.827917,9.61962891 257.385803,8.83985596 256.807654,8.21312256 C256.229504,7.58638916 255.525037,7.11026611 254.69425,6.78475342 C253.863464,6.45924072 252.923364,6.29648438 251.87395,6.29648438 C250.775952,6.29648438 249.794556,6.48353271 248.929761,6.85762939 C248.064966,7.23172607 247.331348,7.75643311 246.728906,8.43175049 C246.126465,9.10706787 245.664917,9.91356201 245.344263,10.8512329 C245.023608,11.7889038 244.863281,12.8261719 244.863281,13.9630371 C244.863281,15.1776367 245.016321,16.2513428 245.3224,17.1841553 C245.628479,18.1169678 246.070593,18.8991699 246.648743,19.5307617 C247.226892,20.1623535 247.93136,20.6409058 248.762146,20.9664185 C249.592932,21.2919312 250.533032,21.4546875 251.582446,21.4546875 Z M251.728198,19.3121338 C251.067456,19.3121338 250.474731,19.1979614 249.950024,18.9696167 C249.425317,18.741272 248.978345,18.4011841 248.609106,17.949353 C248.239868,17.497522 247.955652,16.9315186 247.756458,16.2513428 C247.557263,15.571167 247.457666,14.779248 247.457666,13.8755859 C247.457666,13.156543 247.53783,12.4690796 247.698157,11.8131958 C247.858484,11.157312 248.111121,10.5815918 248.456067,10.0860352 C248.801013,9.59047852 249.243127,9.19451904 249.78241,8.89815674 C250.321692,8.60179443 250.970288,8.45361328 251.728198,8.45361328 C252.379224,8.45361328 252.969519,8.56778564 253.499084,8.79613037 C254.02865,9.0244751 254.478052,9.36456299 254.84729,9.81639404 C255.216528,10.2682251 255.500745,10.8317993 255.699939,11.5071167 C255.899133,12.1824341 255.99873,12.9719238 255.99873,13.8755859 C255.99873,14.6043457 255.918567,15.2966675 255.75824,15.9525513 C255.597913,16.6084351 255.345276,17.1841553 255.00033,17.6797119 C254.655383,18.1752686 254.213269,18.571228 253.673987,18.8675903 C253.134705,19.1639526 252.486108,19.3121338 251.728198,19.3121338 Z M284.551538,4.41628418 C284.833325,4.41628418 285.095679,4.365271 285.338599,4.26324463 C285.581519,4.16121826 285.792859,4.01789551 285.97262,3.83327637 C286.15238,3.64865723 286.293274,3.4348877 286.3953,3.19196777 C286.497327,2.94904785 286.54834,2.69155273 286.54834,2.41948242 C286.54834,2.13769531 286.497327,1.877771 286.3953,1.63970947 C286.293274,1.40164795 286.15238,1.19030762 285.97262,1.00568848 C285.792859,0.821069336 285.581519,0.677746582 285.338599,0.575720215 C285.095679,0.473693848 284.833325,0.422680664 284.551538,0.422680664 C284.269751,0.422680664 284.007397,0.473693848 283.764478,0.575720215 C283.521558,0.677746582 283.310217,0.821069336 283.130457,1.00568848 C282.950696,1.19030762 282.809802,1.40164795 282.707776,1.63970947 C282.60575,1.877771 282.554736,2.13769531 282.554736,2.41948242 C282.554736,2.69155273 282.60575,2.94904785 282.707776,3.19196777 C282.809802,3.4348877 282.950696,3.64865723 283.130457,3.83327637 C283.310217,4.01789551 283.521558,4.16121826 283.764478,4.26324463 C284.007397,4.365271 284.269751,4.41628418 284.551538,4.41628418 Z M290.585669,21.192334 L290.585669,19.0789307 L286.227686,19.0789307 L286.227686,6.55883789 L279.333618,6.55883789 L279.333618,8.65766602 L283.662451,8.65766602 L283.662451,19.0789307 L278.852637,19.0789307 L278.852637,21.192334 L290.585669,21.192334 Z M300.584253,21.4546875 C301.040942,21.4546875 301.507349,21.4206787 301.983472,21.3526611 C302.459595,21.2846436 302.923572,21.1777588 303.375403,21.0320068 C303.827234,20.8862549 304.252344,20.7016357 304.650732,20.4781494 C305.049121,20.2546631 305.398926,19.985022 305.700146,19.6692261 C306.001367,19.3534302 306.239429,18.9914795 306.414331,18.583374 C306.589233,18.1752686 306.676685,17.7137207 306.676685,17.1987305 C306.676685,16.6545898 306.596521,16.16875 306.436194,15.7412109 C306.275867,15.3136719 306.011084,14.9298584 305.641846,14.5897705 C305.272607,14.2496826 304.791626,13.9411743 304.198901,13.6642456 C303.606177,13.3873169 302.877417,13.1225342 302.012622,12.8698975 C301.215845,12.6366943 300.569678,12.4204956 300.074121,12.2213013 C299.578564,12.0221069 299.192322,11.8229126 298.915393,11.6237183 C298.638464,11.4245239 298.448987,11.218042 298.34696,11.0042725 C298.244934,10.7905029 298.193921,10.5524414 298.193921,10.2900879 C298.193921,10.0277344 298.252222,9.78238525 298.368823,9.55404053 C298.485425,9.3256958 298.677332,9.12650146 298.944543,8.95645752 C299.211755,8.78641357 299.56156,8.65280762 299.993958,8.55563965 C300.426355,8.45847168 300.95835,8.4098877 301.589941,8.4098877 C302.114648,8.4098877 302.734094,8.45604248 303.448279,8.54835205 C304.162463,8.64066162 304.917944,8.78398438 305.714722,8.97832031 L305.714722,8.97832031 L305.714722,6.71916504 C304.956812,6.56369629 304.228052,6.45438232 303.528442,6.39122314 C302.828833,6.32806396 302.192383,6.29648438 301.619092,6.29648438 C300.453076,6.29648438 299.481396,6.43494873 298.704053,6.71187744 C297.926709,6.98880615 297.309692,7.33618164 296.853003,7.75400391 C296.396313,8.17182617 296.07323,8.62365723 295.883752,9.10949707 C295.694275,9.59533691 295.599536,10.0423096 295.599536,10.450415 C295.599536,11.07229 295.716138,11.6115723 295.949341,12.0682617 C296.182544,12.5249512 296.503198,12.9233398 296.911304,13.2634277 C297.319409,13.6035156 297.80282,13.8974487 298.361536,14.1452271 C298.920251,14.3930054 299.52998,14.6140625 300.190723,14.8083984 C301.074951,15.070752 301.772131,15.3039551 302.282263,15.5080078 C302.792395,15.7120605 303.168921,15.9088257 303.411841,16.0983032 C303.654761,16.2877808 303.822375,16.4869751 303.914685,16.6958862 C304.006995,16.9047974 304.053149,17.1404297 304.053149,17.4027832 C304.053149,18.0149414 303.761646,18.4862061 303.178638,18.8165771 C302.59563,19.1469482 301.696826,19.3121338 300.482227,19.3121338 C299.646582,19.3121338 298.806079,19.2489746 297.960718,19.1226563 C297.115356,18.9963379 296.265137,18.8117188 295.410059,18.5687988 L295.410059,18.5687988 L295.410059,20.9008301 C296.206836,21.095166 297.020618,21.2360596 297.851404,21.3235107 C298.68219,21.4109619 299.59314,21.4546875 300.584253,21.4546875 Z M333.786548,4.41628418 C334.068335,4.41628418 334.330688,4.365271 334.573608,4.26324463 C334.816528,4.16121826 335.027869,4.01789551 335.207629,3.83327637 C335.38739,3.64865723 335.528284,3.4348877 335.63031,3.19196777 C335.732336,2.94904785 335.78335,2.69155273 335.78335,2.41948242 C335.78335,2.13769531 335.732336,1.877771 335.63031,1.63970947 C335.528284,1.40164795 335.38739,1.19030762 335.207629,1.00568848 C335.027869,0.821069336 334.816528,0.677746582 334.573608,0.575720215 C334.330688,0.473693848 334.068335,0.422680664 333.786548,0.422680664 C333.504761,0.422680664 333.242407,0.473693848 332.999487,0.575720215 C332.756567,0.677746582 332.545227,0.821069336 332.365466,1.00568848 C332.185706,1.19030762 332.044812,1.40164795 331.942786,1.63970947 C331.840759,1.877771 331.789746,2.13769531 331.789746,2.41948242 C331.789746,2.69155273 331.840759,2.94904785 331.942786,3.19196777 C332.044812,3.4348877 332.185706,3.64865723 332.365466,3.83327637 C332.545227,4.01789551 332.756567,4.16121826 332.999487,4.26324463 C333.242407,4.365271 333.504761,4.41628418 333.786548,4.41628418 Z M339.820679,21.192334 L339.820679,19.0789307 L335.462695,19.0789307 L335.462695,6.55883789 L328.568628,6.55883789 L328.568628,8.65766602 L332.897461,8.65766602 L332.897461,19.0789307 L328.087646,19.0789307 L328.087646,21.192334 L339.820679,21.192334 Z M346.860498,21.192334 L346.860498,11.4852539 C347.326904,10.9022461 347.747156,10.4164063 348.121252,10.0277344 C348.495349,9.6390625 348.842725,9.3305542 349.163379,9.10220947 C349.484033,8.87386475 349.792542,8.7135376 350.088904,8.62122803 C350.385266,8.52891846 350.688916,8.48276367 350.999854,8.48276367 C351.845215,8.48276367 352.481665,8.75726318 352.909204,9.30626221 C353.336743,9.85526123 353.550513,10.7030518 353.550513,11.8496338 L353.550513,11.8496338 L353.550513,21.192334 L356.086597,21.192334 L356.086597,11.6455811 C356.086597,9.85769043 355.700354,8.51920166 354.927869,7.63011475 C354.155383,6.74102783 353.016089,6.29648438 351.509985,6.29648438 C351.082446,6.29648438 350.669482,6.33778076 350.271094,6.42037354 C349.872705,6.50296631 349.481604,6.64628906 349.097791,6.8503418 C348.713977,7.05439453 348.322876,7.32403564 347.924487,7.65926514 C347.526099,7.99449463 347.113135,8.41474609 346.685596,8.92001953 L346.685596,8.92001953 L346.583569,6.55883789 L344.324414,6.55883789 L344.324414,21.192334 L346.860498,21.192334 Z M381.476587,21.4546875 C382.380249,21.4546875 383.242615,21.2797852 384.063684,20.9299805 C384.884753,20.5801758 385.693677,20.0117432 386.490454,19.2246826 L386.490454,19.2246826 L386.548755,21.192334 L388.822485,21.192334 L388.822485,11.1062988 C388.822485,10.2900879 388.691309,9.58076172 388.428955,8.97832031 C388.166602,8.37587891 387.790076,7.87546387 387.299377,7.4770752 C386.808679,7.07868652 386.208667,6.78232422 385.499341,6.58798828 C384.790015,6.39365234 383.993237,6.29648438 383.109009,6.29648438 C382.623169,6.29648438 382.142187,6.32320557 381.666064,6.37664795 C381.189941,6.43009033 380.733252,6.50053711 380.295996,6.58798828 C379.85874,6.67543945 379.443347,6.77503662 379.049817,6.88677979 C378.656287,6.99852295 378.299194,7.11269531 377.97854,7.22929688 L377.97854,7.22929688 L377.97854,9.51760254 C378.833618,9.17751465 379.661975,8.91516113 380.463611,8.73054199 C381.265247,8.54592285 382.079028,8.45361328 382.904956,8.45361328 C384.041821,8.45361328 384.887183,8.7135376 385.44104,9.23338623 C385.994897,9.75323486 386.271826,10.4455566 386.271826,11.3103516 L386.271826,11.3103516 L386.271826,12.5929688 L383.240186,12.5929688 C381.10249,12.5929688 379.487073,13.0083618 378.393933,13.8391479 C377.300793,14.6699341 376.754224,15.8189453 376.754224,17.2861816 C376.754224,17.8789063 376.844104,18.4279053 377.023865,18.9331787 C377.203625,19.4384521 377.485413,19.8781372 377.869226,20.2522339 C378.25304,20.6263306 378.741309,20.9202637 379.334033,21.1340332 C379.926758,21.3478027 380.640942,21.4546875 381.476587,21.4546875 Z M381.884692,19.3412842 C381.43772,19.3412842 381.058765,19.2829834 380.747827,19.1663818 C380.43689,19.0497803 380.184253,18.8918823 379.989917,18.692688 C379.795581,18.4934937 379.654687,18.2651489 379.567236,18.0076538 C379.479785,17.7501587 379.43606,17.4805176 379.43606,17.1987305 C379.43606,16.790625 379.506506,16.4238159 379.6474,16.0983032 C379.788293,15.7727905 380.004492,15.4934326 380.295996,15.2602295 C380.5875,15.0270264 380.961597,14.8472656 381.418286,14.7209473 C381.874976,14.5946289 382.419116,14.5314697 383.050708,14.5314697 L383.050708,14.5314697 L386.271826,14.5314697 L386.271826,17.1258545 C385.436182,17.8934814 384.641833,18.4546265 383.888782,18.8092896 C383.13573,19.1639526 382.4677,19.3412842 381.884692,19.3412842 Z M396.095508,21.192334 L396.095508,11.4852539 C396.561914,10.9022461 396.982166,10.4164063 397.356262,10.0277344 C397.730359,9.6390625 398.077734,9.3305542 398.398389,9.10220947 C398.719043,8.87386475 399.027551,8.7135376 399.323914,8.62122803 C399.620276,8.52891846 399.923926,8.48276367 400.234863,8.48276367 C401.080225,8.48276367 401.716675,8.75726318 402.144214,9.30626221 C402.571753,9.85526123 402.785522,10.7030518 402.785522,11.8496338 L402.785522,11.8496338 L402.785522,21.192334 L405.321606,21.192334 L405.321606,11.6455811 C405.321606,9.85769043 404.935364,8.51920166 404.162878,7.63011475 C403.390393,6.74102783 402.251099,6.29648438 400.744995,6.29648438 C400.317456,6.29648438 399.904492,6.33778076 399.506104,6.42037354 C399.107715,6.50296631 398.716614,6.64628906 398.3328,6.8503418 C397.948987,7.05439453 397.557886,7.32403564 397.159497,7.65926514 C396.761108,7.99449463 396.348145,8.41474609 395.920605,8.92001953 L395.920605,8.92001953 L395.818579,6.55883789 L393.559424,6.55883789 L393.559424,21.192334 L396.095508,21.192334 Z" id="Thisrepoisinan" fill="#9B9B9B"></path>
            <path d="M438.276123,21.192334 L438.276123,18.2335693 L434.078467,18.2335693 L434.078467,5.07216797 L438.276123,5.07216797 L438.276123,2.14255371 L426.237012,2.14255371 L426.237012,5.07216797 L430.434668,5.07216797 L430.434668,18.2335693 L426.237012,18.2335693 L426.237012,21.192334 L438.276123,21.192334 Z M446.044702,21.192334 L446.044702,11.8204834 C446.65686,10.9848389 447.237439,10.3240967 447.786438,9.83825684 C448.335437,9.35241699 448.911157,9.10949707 449.513599,9.10949707 C450.718481,9.10949707 451.320923,9.92084961 451.320923,11.5435547 L451.320923,11.5435547 L451.320923,21.192334 L454.877271,21.192334 L454.877271,11.2520508 C454.877271,10.4649902 454.782532,9.75323486 454.593054,9.11678467 C454.403577,8.48033447 454.11936,7.93619385 453.740405,7.48436279 C453.36145,7.03253174 452.890186,6.68272705 452.326611,6.43494873 C451.763037,6.18717041 451.102295,6.06328125 450.344385,6.06328125 C449.800244,6.06328125 449.309546,6.12158203 448.87229,6.23818359 C448.435034,6.35478516 448.026929,6.5223999 447.647974,6.74102783 C447.269019,6.95965576 446.916785,7.22443848 446.591272,7.53537598 C446.265759,7.84631348 445.952393,8.19125977 445.651172,8.57021484 L445.651172,8.57021484 L445.563721,6.38393555 L442.488354,6.38393555 L442.488354,21.192334 L446.044702,21.192334 Z M466.362524,21.4546875 C467.178735,21.4546875 467.960937,21.3866699 468.709131,21.2506348 C469.457324,21.1145996 470.181226,20.9056885 470.880835,20.6239014 L470.880835,20.6239014 L470.880835,17.461084 C470.589331,17.5874023 470.275964,17.7040039 469.940735,17.8108887 C469.605505,17.9177734 469.265417,18.0125122 468.920471,18.095105 C468.575525,18.1776978 468.230579,18.2408569 467.885632,18.2845825 C467.540686,18.3283081 467.212744,18.3501709 466.901807,18.3501709 C466.260498,18.3501709 465.67749,18.2457153 465.152783,18.0368042 C464.628076,17.8278931 464.178674,17.5266724 463.804578,17.1331421 C463.430481,16.7396118 463.141406,16.2610596 462.937354,15.6974854 C462.733301,15.1339111 462.631274,14.4974609 462.631274,13.7881348 C462.631274,13.107959 462.726013,12.4836548 462.915491,11.9152222 C463.104968,11.3467896 463.379468,10.8633789 463.738989,10.4649902 C464.098511,10.0666016 464.540625,9.75566406 465.065332,9.53217773 C465.590039,9.30869141 466.182764,9.19694824 466.843506,9.19694824 C467.475098,9.19694824 468.143127,9.27954102 468.847595,9.44472656 C469.552063,9.60991211 470.205518,9.84311523 470.807959,10.1443359 L470.807959,10.1443359 L470.807959,6.69001465 C470.283252,6.5345459 469.692957,6.40579834 469.037073,6.30377197 C468.381189,6.20174561 467.572266,6.15073242 466.610303,6.15073242 C465.43457,6.15073242 464.368152,6.33535156 463.411047,6.70458984 C462.453943,7.07382813 461.635303,7.59853516 460.955127,8.27871094 C460.274951,8.95888672 459.747815,9.77995605 459.373718,10.7419189 C458.999622,11.7038818 458.812573,12.7775879 458.812573,13.9630371 C458.812573,15.1873535 458.985046,16.265918 459.329993,17.1987305 C459.674939,18.131543 460.172925,18.9137451 460.82395,19.5453369 C461.474976,20.1769287 462.266895,20.6530518 463.199707,20.9737061 C464.13252,21.2943604 465.186792,21.4546875 466.362524,21.4546875 Z M481.345825,21.5275635 C482.502124,21.5275635 483.532104,21.3380859 484.435767,20.9591309 C485.339429,20.5801758 486.102197,20.045752 486.724072,19.3558594 C487.345947,18.6659668 487.82207,17.8376099 488.152441,16.8707886 C488.482812,15.9039673 488.647998,14.8375488 488.647998,13.6715332 C488.647998,12.4277832 488.4901,11.3322144 488.174304,10.3848267 C487.858508,9.43743896 487.39939,8.64309082 486.796948,8.00178223 C486.194507,7.36047363 485.460889,6.87706299 484.596094,6.55155029 C483.731299,6.2260376 482.745044,6.06328125 481.637329,6.06328125 C480.500464,6.06328125 479.4802,6.25032959 478.576538,6.62442627 C477.672876,6.99852295 476.907678,7.52565918 476.280945,8.20583496 C475.654211,8.88601074 475.17323,9.70708008 474.838,10.669043 C474.502771,11.6310059 474.335156,12.6998535 474.335156,13.8755859 C474.335156,15.1484863 474.495483,16.2634888 474.816138,17.2205933 C475.136792,18.1776978 475.59834,18.9744751 476.200781,19.6109253 C476.803223,20.2473755 477.536841,20.7259277 478.401636,21.046582 C479.266431,21.3672363 480.247827,21.5275635 481.345825,21.5275635 Z M481.520728,18.4521973 C480.442163,18.4521973 479.591943,18.0610962 478.970068,17.278894 C478.348193,16.4966919 478.037256,15.3331055 478.037256,13.7881348 C478.037256,13.1468262 478.102844,12.5443848 478.234021,11.9808105 C478.365198,11.4172363 478.57168,10.9241089 478.853467,10.5014282 C479.135254,10.0787476 479.494775,9.74594727 479.932031,9.50302734 C480.369287,9.26010742 480.898853,9.13864746 481.520728,9.13864746 C482.647876,9.13864746 483.500525,9.52489014 484.078674,10.2973755 C484.656824,11.0698608 484.945898,12.2237305 484.945898,13.7589844 C484.945898,14.4197266 484.877881,15.0367432 484.741846,15.6100342 C484.605811,16.1833252 484.401758,16.681311 484.129687,17.1039917 C483.857617,17.5266724 483.502954,17.8570435 483.065698,18.095105 C482.628442,18.3331665 482.113452,18.4521973 481.520728,18.4521973 Z M495.279712,21.192334 L495.279712,11.8204834 C495.89187,10.9848389 496.472449,10.3240967 497.021448,9.83825684 C497.570447,9.35241699 498.146167,9.10949707 498.748608,9.10949707 C499.953491,9.10949707 500.555933,9.92084961 500.555933,11.5435547 L500.555933,11.5435547 L500.555933,21.192334 L504.11228,21.192334 L504.11228,11.2520508 C504.11228,10.4649902 504.017542,9.75323486 503.828064,9.11678467 C503.638586,8.48033447 503.35437,7.93619385 502.975415,7.48436279 C502.59646,7.03253174 502.125195,6.68272705 501.561621,6.43494873 C500.998047,6.18717041 500.337305,6.06328125 499.579395,6.06328125 C499.035254,6.06328125 498.544556,6.12158203 498.1073,6.23818359 C497.670044,6.35478516 497.261938,6.5223999 496.882983,6.74102783 C496.504028,6.95965576 496.151794,7.22443848 495.826282,7.53537598 C495.500769,7.84631348 495.187402,8.19125977 494.886182,8.57021484 L494.886182,8.57021484 L494.79873,6.38393555 L491.723364,6.38393555 L491.723364,21.192334 L495.279712,21.192334 Z M513.804785,21.5275635 C514.620996,21.5275635 515.420203,21.4425415 516.202405,21.2724976 C516.984607,21.1024536 517.684216,20.8303833 518.301233,20.4562866 C518.91825,20.0821899 519.413806,19.5963501 519.787903,18.9987671 C520.162,18.4011841 520.349048,17.6797119 520.349048,16.8343506 C520.349048,16.2610596 520.271313,15.7509277 520.115845,15.3039551 C519.960376,14.8569824 519.70531,14.4585938 519.350647,14.1087891 C518.995984,13.7589844 518.527148,13.4456177 517.944141,13.168689 C517.361133,12.8917603 516.64209,12.6318359 515.787012,12.388916 C515.029102,12.1751465 514.419373,11.9783813 513.957825,11.7986206 C513.496277,11.6188599 513.136755,11.4463867 512.87926,11.2812012 C512.621765,11.1160156 512.449292,10.9459717 512.361841,10.7710693 C512.27439,10.596167 512.230664,10.3969727 512.230664,10.1734863 C512.230664,9.70708008 512.451721,9.3427002 512.893835,9.08034668 C513.33595,8.81799316 513.921387,8.68681641 514.650146,8.68681641 C515.378906,8.68681641 516.114954,8.74268799 516.858289,8.85443115 C517.601624,8.96617432 518.395972,9.15808105 519.241333,9.43015137 L519.241333,9.43015137 L519.241333,6.5296875 C518.687476,6.41308594 518.051025,6.30620117 517.331982,6.2090332 C516.612939,6.11186523 515.787012,6.06328125 514.854199,6.06328125 C513.775635,6.06328125 512.833105,6.17988281 512.026611,6.41308594 C511.220117,6.64628906 510.547229,6.96451416 510.007947,7.36776123 C509.468665,7.7710083 509.062988,8.23984375 508.790918,8.77426758 C508.518848,9.30869141 508.382812,9.87712402 508.382812,10.4795654 C508.382812,11.1014404 508.472693,11.6431519 508.652454,12.1046997 C508.832214,12.5662476 509.101855,12.9719238 509.461377,13.3217285 C509.820898,13.6715332 510.275159,13.9751831 510.824158,14.2326782 C511.373157,14.4901733 512.012036,14.7209473 512.740796,14.925 C513.527856,15.1484863 514.164307,15.3501099 514.650146,15.5298706 C515.135986,15.7096313 515.512512,15.8845337 515.779724,16.0545776 C516.046936,16.2246216 516.229126,16.4019531 516.326294,16.5865723 C516.423462,16.7711914 516.472046,16.9752441 516.472046,17.1987305 C516.472046,17.6748535 516.241272,18.0610962 515.779724,18.3574585 C515.318176,18.6538208 514.620996,18.802002 513.688184,18.802002 C512.881689,18.802002 512.024182,18.71698 511.115662,18.546936 C510.207141,18.3768921 509.296191,18.1023926 508.382812,17.7234375 L508.382812,17.7234375 L508.382812,20.9299805 C509.160156,21.1243164 509.986084,21.2724976 510.860596,21.3745239 C511.735107,21.4765503 512.716504,21.5275635 513.804785,21.5275635 Z M530.945215,4.6494873 C531.275586,4.6494873 531.581665,4.58875732 531.863452,4.46729736 C532.145239,4.3458374 532.390588,4.18065186 532.5995,3.97174072 C532.808411,3.76282959 532.971167,3.51748047 533.087769,3.23569336 C533.20437,2.95390625 533.262671,2.65268555 533.262671,2.33203125 C533.262671,2.01137695 533.20437,1.71015625 533.087769,1.42836914 C532.971167,1.14658203 532.808411,0.898803711 532.5995,0.68503418 C532.390588,0.471264648 532.145239,0.303649902 531.863452,0.182189941 C531.581665,0.0607299805 531.275586,-1.42108547e-14 530.945215,-1.42108547e-14 C530.614844,-1.42108547e-14 530.306335,0.0607299805 530.01969,0.182189941 C529.733044,0.303649902 529.485266,0.471264648 529.276355,0.68503418 C529.067444,0.898803711 528.904687,1.14658203 528.788086,1.42836914 C528.671484,1.71015625 528.613184,2.01137695 528.613184,2.33203125 C528.613184,2.65268555 528.671484,2.95390625 528.788086,3.23569336 C528.904687,3.51748047 529.067444,3.76282959 529.276355,3.97174072 C529.485266,4.18065186 529.733044,4.3458374 530.01969,4.46729736 C530.306335,4.58875732 530.614844,4.6494873 530.945215,4.6494873 Z M537.241699,21.192334 L537.241699,18.4230469 L532.971167,18.4230469 L532.971167,6.38393555 L525.144287,6.38393555 L525.144287,9.15322266 L529.327368,9.15322266 L529.327368,18.4230469 L524.634155,18.4230469 L524.634155,21.192334 L537.241699,21.192334 Z M546.628125,21.5275635 C547.444336,21.5275635 548.243542,21.4425415 549.025745,21.2724976 C549.807947,21.1024536 550.507556,20.8303833 551.124573,20.4562866 C551.741589,20.0821899 552.237146,19.5963501 552.611243,18.9987671 C552.985339,18.4011841 553.172388,17.6797119 553.172388,16.8343506 C553.172388,16.2610596 553.094653,15.7509277 552.939185,15.3039551 C552.783716,14.8569824 552.52865,14.4585938 552.173987,14.1087891 C551.819324,13.7589844 551.350488,13.4456177 550.76748,13.168689 C550.184473,12.8917603 549.46543,12.6318359 548.610352,12.388916 C547.852441,12.1751465 547.242712,11.9783813 546.781165,11.7986206 C546.319617,11.6188599 545.960095,11.4463867 545.7026,11.2812012 C545.445105,11.1160156 545.272632,10.9459717 545.185181,10.7710693 C545.097729,10.596167 545.054004,10.3969727 545.054004,10.1734863 C545.054004,9.70708008 545.275061,9.3427002 545.717175,9.08034668 C546.15929,8.81799316 546.744727,8.68681641 547.473486,8.68681641 C548.202246,8.68681641 548.938293,8.74268799 549.681628,8.85443115 C550.424963,8.96617432 551.219312,9.15808105 552.064673,9.43015137 L552.064673,9.43015137 L552.064673,6.5296875 C551.510815,6.41308594 550.874365,6.30620117 550.155322,6.2090332 C549.436279,6.11186523 548.610352,6.06328125 547.677539,6.06328125 C546.598975,6.06328125 545.656445,6.17988281 544.849951,6.41308594 C544.043457,6.64628906 543.370569,6.96451416 542.831287,7.36776123 C542.292004,7.7710083 541.886328,8.23984375 541.614258,8.77426758 C541.342187,9.30869141 541.206152,9.87712402 541.206152,10.4795654 C541.206152,11.1014404 541.296033,11.6431519 541.475793,12.1046997 C541.655554,12.5662476 541.925195,12.9719238 542.284717,13.3217285 C542.644238,13.6715332 543.098499,13.9751831 543.647498,14.2326782 C544.196497,14.4901733 544.835376,14.7209473 545.564136,14.925 C546.351196,15.1484863 546.987646,15.3501099 547.473486,15.5298706 C547.959326,15.7096313 548.335852,15.8845337 548.603064,16.0545776 C548.870276,16.2246216 549.052466,16.4019531 549.149634,16.5865723 C549.246802,16.7711914 549.295386,16.9752441 549.295386,17.1987305 C549.295386,17.6748535 549.064612,18.0610962 548.603064,18.3574585 C548.141516,18.6538208 547.444336,18.802002 546.511523,18.802002 C545.705029,18.802002 544.847522,18.71698 543.939001,18.546936 C543.030481,18.3768921 542.119531,18.1023926 541.206152,17.7234375 L541.206152,17.7234375 L541.206152,20.9299805 C541.983496,21.1243164 542.809424,21.2724976 543.683936,21.3745239 C544.558447,21.4765503 545.539844,21.5275635 546.628125,21.5275635 Z M565.794507,21.5275635 C566.377515,21.5275635 566.994531,21.4838379 567.645557,21.3963867 C568.296582,21.3089355 568.942749,21.192334 569.584058,21.046582 L569.584058,21.046582 L569.584058,18.2044189 C569.127368,18.3307373 568.622095,18.4424805 568.068237,18.5396484 C567.51438,18.6368164 566.945947,18.6854004 566.362939,18.6854004 C565.449561,18.6854004 564.798535,18.4692017 564.409863,18.0368042 C564.021191,17.6044067 563.826855,16.9655273 563.826855,16.120166 L563.826855,16.120166 L563.826855,9.15322266 L569.584058,9.15322266 L569.584058,6.38393555 L563.826855,6.38393555 L563.826855,1.64699707 L560.183057,2.59438477 L560.183057,6.38393555 L556.204028,6.38393555 L556.204028,9.15322266 L560.183057,9.15322266 L560.183057,16.3825195 C560.183057,17.2764648 560.292371,18.046521 560.510999,18.692688 C560.729626,19.338855 561.069714,19.8708496 561.531262,20.2886719 C561.99281,20.7064941 562.575818,21.0174316 563.280286,21.2214844 C563.984753,21.4255371 564.822827,21.5275635 565.794507,21.5275635 Z M580.471729,21.5275635 C580.918701,21.5275635 581.380249,21.5105591 581.856372,21.4765503 C582.332495,21.4425415 582.80376,21.3915283 583.270166,21.3235107 C583.736572,21.2554932 584.193262,21.1777588 584.640234,21.0903076 C585.087207,21.0028564 585.500171,20.9056885 585.879126,20.7988037 L585.879126,20.7988037 L585.879126,17.9712158 C584.994897,18.2238525 584.142249,18.4060425 583.321179,18.5177856 C582.50011,18.6295288 581.730054,18.6854004 581.011011,18.6854004 C580.389136,18.6854004 579.823132,18.5979492 579.313,18.4230469 C578.802869,18.2481445 578.365613,17.9930786 578.001233,17.6578491 C577.636853,17.3226196 577.355066,16.9072266 577.155872,16.4116699 C576.956677,15.9161133 576.85708,15.3428223 576.85708,14.6917969 L576.85708,14.6917969 L586.593311,14.6917969 C586.622461,14.351709 586.644324,13.9873291 586.658899,13.5986572 C586.673474,13.2099854 586.680762,12.8941895 586.680762,12.6512695 C586.680762,11.6893066 586.539868,10.8050781 586.258081,9.99858398 C585.976294,9.19208984 585.56333,8.49733887 585.019189,7.91433105 C584.475049,7.33132324 583.799731,6.87706299 582.993237,6.55155029 C582.186743,6.2260376 581.258789,6.06328125 580.209375,6.06328125 C579.150244,6.06328125 578.19071,6.25518799 577.330774,6.63900146 C576.470837,7.02281494 575.739648,7.56695557 575.137207,8.27142334 C574.534766,8.97589111 574.068359,9.82125244 573.737988,10.8075073 C573.407617,11.7937622 573.242432,12.8893311 573.242432,14.0942139 C573.242432,15.3088135 573.407617,16.3776611 573.737988,17.3007568 C574.068359,18.2238525 574.544482,18.9987671 575.166357,19.6255005 C575.788232,20.2522339 576.546143,20.7259277 577.440088,21.046582 C578.334033,21.3672363 579.34458,21.5275635 580.471729,21.5275635 Z M583.066113,12.1411377 L576.915381,12.1411377 C577.022266,11.0528564 577.362354,10.2099243 577.935645,9.61234131 C578.508936,9.0147583 579.242554,8.7159668 580.136499,8.7159668 C580.544604,8.7159668 580.925989,8.78398438 581.280652,8.92001953 C581.635315,9.05605469 581.946252,9.26496582 582.213464,9.54675293 C582.480676,9.82854004 582.692017,10.1856323 582.847485,10.6180298 C583.002954,11.0504272 583.07583,11.5581299 583.066113,12.1411377 L583.066113,12.1411377 Z M593.749731,21.192334 L593.749731,11.8204834 C594.36189,10.9848389 594.942468,10.3240967 595.491467,9.83825684 C596.040466,9.35241699 596.616187,9.10949707 597.218628,9.10949707 C598.423511,9.10949707 599.025952,9.92084961 599.025952,11.5435547 L599.025952,11.5435547 L599.025952,21.192334 L602.5823,21.192334 L602.5823,11.2520508 C602.5823,10.4649902 602.487561,9.75323486 602.298083,9.11678467 C602.108606,8.48033447 601.82439,7.93619385 601.445435,7.48436279 C601.066479,7.03253174 600.595215,6.68272705 600.031641,6.43494873 C599.468066,6.18717041 598.807324,6.06328125 598.049414,6.06328125 C597.505273,6.06328125 597.014575,6.12158203 596.577319,6.23818359 C596.140063,6.35478516 595.731958,6.5223999 595.353003,6.74102783 C594.974048,6.95965576 594.621814,7.22443848 594.296301,7.53537598 C593.970789,7.84631348 593.657422,8.19125977 593.356201,8.57021484 L593.356201,8.57021484 L593.26875,6.38393555 L590.193384,6.38393555 L590.193384,21.192334 L593.749731,21.192334 Z M615.029517,21.5275635 C615.612524,21.5275635 616.229541,21.4838379 616.880566,21.3963867 C617.531592,21.3089355 618.177759,21.192334 618.819067,21.046582 L618.819067,21.046582 L618.819067,18.2044189 C618.362378,18.3307373 617.857104,18.4424805 617.303247,18.5396484 C616.74939,18.6368164 616.180957,18.6854004 615.597949,18.6854004 C614.68457,18.6854004 614.033545,18.4692017 613.644873,18.0368042 C613.256201,17.6044067 613.061865,16.9655273 613.061865,16.120166 L613.061865,16.120166 L613.061865,9.15322266 L618.819067,9.15322266 L618.819067,6.38393555 L613.061865,6.38393555 L613.061865,1.64699707 L609.418066,2.59438477 L609.418066,6.38393555 L605.439038,6.38393555 L605.439038,9.15322266 L609.418066,9.15322266 L609.418066,16.3825195 C609.418066,17.2764648 609.52738,18.046521 609.746008,18.692688 C609.964636,19.338855 610.304724,19.8708496 610.766272,20.2886719 C611.22782,20.7064941 611.810828,21.0174316 612.515295,21.2214844 C613.219763,21.4255371 614.057837,21.5275635 615.029517,21.5275635 Z" id="Inconsistent" fill="#FF4D4F"></path>
            <path d="M5.17419434,51.4546875 C5.63088379,51.4546875 6.09729004,51.4206787 6.57341309,51.3526611 C7.04953613,51.2846436 7.51351318,51.1777588 7.96534424,51.0320068 C8.41717529,50.8862549 8.84228516,50.7016357 9.24067383,50.4781494 C9.6390625,50.2546631 9.98886719,49.985022 10.2900879,49.6692261 C10.5913086,49.3534302 10.8293701,48.9914795 11.0042725,48.583374 C11.1791748,48.1752686 11.266626,47.7137207 11.266626,47.1987305 C11.266626,46.6545898 11.1864624,46.16875 11.0261353,45.7412109 C10.8658081,45.3136719 10.6010254,44.9298584 10.2317871,44.5897705 C9.86254883,44.2496826 9.38156738,43.9411743 8.78884277,43.6642456 C8.19611816,43.3873169 7.4673584,43.1225342 6.60256348,42.8698975 C5.80578613,42.6366943 5.15961914,42.4204956 4.6640625,42.2213013 C4.16850586,42.0221069 3.78226318,41.8229126 3.50533447,41.6237183 C3.22840576,41.4245239 3.03892822,41.218042 2.93690186,41.0042725 C2.83487549,40.7905029 2.7838623,40.5524414 2.7838623,40.2900879 C2.7838623,40.0277344 2.84216309,39.7823853 2.95876465,39.5540405 C3.07536621,39.3256958 3.26727295,39.1265015 3.53448486,38.9564575 C3.80169678,38.7864136 4.15150146,38.6528076 4.58389893,38.5556396 C5.01629639,38.4584717 5.54829102,38.4098877 6.17988281,38.4098877 C6.70458984,38.4098877 7.32403564,38.4560425 8.03822021,38.5483521 C8.75240479,38.6406616 9.50788574,38.7839844 10.3046631,38.9783203 L10.3046631,38.9783203 L10.3046631,36.719165 C9.54675293,36.5636963 8.81799316,36.4543823 8.11838379,36.3912231 C7.41877441,36.328064 6.78232422,36.2964844 6.2090332,36.2964844 C5.04301758,36.2964844 4.07133789,36.4349487 3.29399414,36.7118774 C2.51665039,36.9888062 1.89963379,37.3361816 1.44294434,37.7540039 C0.986254883,38.1718262 0.663171387,38.6236572 0.473693848,39.1094971 C0.284216309,39.5953369 0.189477539,40.0423096 0.189477539,40.450415 C0.189477539,41.07229 0.306079102,41.6115723 0.539282227,42.0682617 C0.772485352,42.5249512 1.09313965,42.9233398 1.50124512,43.2634277 C1.90935059,43.6035156 2.39276123,43.8974487 2.95147705,44.1452271 C3.51019287,44.3930054 4.11992188,44.6140625 4.78066406,44.8083984 C5.66489258,45.070752 6.36207275,45.3039551 6.87220459,45.5080078 C7.38233643,45.7120605 7.7588623,45.9088257 8.00178223,46.0983032 C8.24470215,46.2877808 8.41231689,46.4869751 8.50462646,46.6958862 C8.59693604,46.9047974 8.64309082,47.1404297 8.64309082,47.4027832 C8.64309082,48.0149414 8.35158691,48.4862061 7.7685791,48.8165771 C7.18557129,49.1469482 6.28676758,49.3121338 5.07216797,49.3121338 C4.23652344,49.3121338 3.39602051,49.2489746 2.55065918,49.1226563 C1.70529785,48.9963379 0.855078125,48.8117188 1.42108547e-14,48.5687988 L1.42108547e-14,48.5687988 L1.42108547e-14,50.9008301 C0.796777344,51.095166 1.61055908,51.2360596 2.44134521,51.3235107 C3.27213135,51.4109619 4.18308105,51.4546875 5.17419434,51.4546875 Z M24.2385498,51.3963867 C24.8701416,51.3963867 25.4920166,51.3648071 26.1041748,51.3016479 C26.716333,51.2384888 27.3090576,51.1340332 27.8823486,50.9882813 L27.8823486,50.9882813 L27.8823486,48.802002 C27.2799072,48.9574707 26.7017578,49.0716431 26.1479004,49.144519 C25.594043,49.217395 25.0839111,49.253833 24.6175049,49.253833 C23.5292236,49.253833 22.7057251,48.9939087 22.1470093,48.4740601 C21.5882935,47.9542114 21.3089355,47.1695801 21.3089355,46.120166 L21.3089355,46.120166 L21.3089355,38.6868164 L27.8823486,38.6868164 L27.8823486,36.5588379 L21.3089355,36.5588379 L21.3089355,31.8802002 L18.7728516,32.536084 L18.7728516,36.5588379 L14.6772217,36.5588379 L14.6772217,38.6868164 L18.7728516,38.6868164 L18.7728516,46.3242188 C18.7728516,48.0440918 19.2246826,49.3194214 20.1283447,50.1502075 C21.0320068,50.9809937 22.4020752,51.3963867 24.2385498,51.3963867 Z M36.8315186,51.4546875 C37.7351807,51.4546875 38.5975464,51.2797852 39.4186157,50.9299805 C40.2396851,50.5801758 41.0486084,50.0117432 41.8453857,49.2246826 L41.8453857,49.2246826 L41.9036865,51.192334 L44.177417,51.192334 L44.177417,41.1062988 C44.177417,40.2900879 44.0462402,39.5807617 43.7838867,38.9783203 C43.5215332,38.3758789 43.1450073,37.8754639 42.6543091,37.4770752 C42.1636108,37.0786865 41.5635986,36.7823242 40.8542725,36.5879883 C40.1449463,36.3936523 39.3481689,36.2964844 38.4639404,36.2964844 C37.9781006,36.2964844 37.4971191,36.3232056 37.0209961,36.3766479 C36.544873,36.4300903 36.0881836,36.5005371 35.6509277,36.5879883 C35.2136719,36.6754395 34.7982788,36.7750366 34.4047485,36.8867798 C34.0112183,36.9985229 33.654126,37.1126953 33.3334717,37.2292969 L33.3334717,37.2292969 L33.3334717,39.5176025 C34.1885498,39.1775146 35.0169067,38.9151611 35.8185425,38.730542 C36.6201782,38.5459229 37.43396,38.4536133 38.2598877,38.4536133 C39.3967529,38.4536133 40.2421143,38.7135376 40.7959717,39.2333862 C41.3498291,39.7532349 41.6267578,40.4455566 41.6267578,41.3103516 L41.6267578,41.3103516 L41.6267578,42.5929688 L38.5951172,42.5929688 C36.4574219,42.5929688 34.8420044,43.0083618 33.7488647,43.8391479 C32.6557251,44.6699341 32.1091553,45.8189453 32.1091553,47.2861816 C32.1091553,47.8789063 32.1990356,48.4279053 32.3787964,48.9331787 C32.5585571,49.4384521 32.8403442,49.8781372 33.2241577,50.2522339 C33.6079712,50.6263306 34.0962402,50.9202637 34.6889648,51.1340332 C35.2816895,51.3478027 35.995874,51.4546875 36.8315186,51.4546875 Z M37.239624,49.3412842 C36.7926514,49.3412842 36.4136963,49.2829834 36.1027588,49.1663818 C35.7918213,49.0497803 35.5391846,48.8918823 35.3448486,48.692688 C35.1505127,48.4934937 35.0096191,48.2651489 34.922168,48.0076538 C34.8347168,47.7501587 34.7909912,47.4805176 34.7909912,47.1987305 C34.7909912,46.790625 34.861438,46.4238159 35.0023315,46.0983032 C35.1432251,45.7727905 35.3594238,45.4934326 35.6509277,45.2602295 C35.9424316,45.0270264 36.3165283,44.8472656 36.7732178,44.7209473 C37.2299072,44.5946289 37.7740479,44.5314697 38.4056396,44.5314697 L38.4056396,44.5314697 L41.6267578,44.5314697 L41.6267578,47.1258545 C40.7911133,47.8934814 39.9967651,48.4546265 39.2437134,48.8092896 C38.4906616,49.1639526 37.8226318,49.3412842 37.239624,49.3412842 Z M57.0618896,51.3963867 C57.6934814,51.3963867 58.3153564,51.3648071 58.9275146,51.3016479 C59.5396729,51.2384888 60.1323975,51.1340332 60.7056885,50.9882813 L60.7056885,50.9882813 L60.7056885,48.802002 C60.1032471,48.9574707 59.5250977,49.0716431 58.9712402,49.144519 C58.4173828,49.217395 57.907251,49.253833 57.4408447,49.253833 C56.3525635,49.253833 55.5290649,48.9939087 54.9703491,48.4740601 C54.4116333,47.9542114 54.1322754,47.1695801 54.1322754,46.120166 L54.1322754,46.120166 L54.1322754,38.6868164 L60.7056885,38.6868164 L60.7056885,36.5588379 L54.1322754,36.5588379 L54.1322754,31.8802002 L51.5961914,32.536084 L51.5961914,36.5588379 L47.5005615,36.5588379 L47.5005615,38.6868164 L51.5961914,38.6868164 L51.5961914,46.3242188 C51.5961914,48.0440918 52.0480225,49.3194214 52.9516846,50.1502075 C53.8553467,50.9809937 55.225415,51.3963867 57.0618896,51.3963867 Z M71.8557129,51.4546875 C72.7885254,51.4546875 73.6897583,51.3939575 74.5594116,51.2724976 C75.4290649,51.1510376 76.2088379,50.9931396 76.8987305,50.7988037 L76.8987305,50.7988037 L76.8987305,48.7145508 C76.587793,48.802002 76.2501343,48.8821655 75.8857544,48.9550415 C75.5213745,49.0279175 75.1399902,49.0935059 74.7416016,49.1518066 C74.3432129,49.2101074 73.930249,49.2562622 73.50271,49.290271 C73.0751709,49.3242798 72.6476318,49.3412842 72.2200928,49.3412842 C70.6459717,49.3412842 69.4410889,48.9404663 68.6054443,48.1388306 C67.7697998,47.3371948 67.3519775,46.1881836 67.3519775,44.6917969 L67.3519775,44.6917969 L77.6274902,44.6917969 C77.6469238,44.4780273 77.661499,44.2496826 77.6712158,44.0067627 C77.6809326,43.7638428 77.685791,43.4626221 77.685791,43.1031006 C77.685791,42.0634033 77.5473267,41.1233032 77.2703979,40.2828003 C76.9934692,39.4422974 76.5853638,38.7281128 76.0460815,38.1402466 C75.5067993,37.5523804 74.8436279,37.0981201 74.0565674,36.7774658 C73.2695068,36.4568115 72.3658447,36.2964844 71.3455811,36.2964844 C70.296167,36.2964844 69.3584961,36.5005371 68.5325684,36.9086426 C67.7066406,37.316748 67.0094604,37.8681763 66.4410278,38.5629272 C65.8725952,39.2576782 65.4401978,40.0641724 65.1438354,40.9824097 C64.8474731,41.900647 64.699292,42.8747559 64.699292,43.9047363 C64.699292,45.0901855 64.8377563,46.1517456 65.1146851,47.0894165 C65.3916138,48.0270874 65.8191528,48.8190063 66.3973022,49.4651733 C66.9754517,50.1113403 67.7163574,50.6044678 68.6200195,50.9445557 C69.5236816,51.2846436 70.6022461,51.4546875 71.8557129,51.4546875 Z M75.0476807,42.7387207 L67.3519775,42.7387207 C67.4005615,42.0876953 67.5268799,41.4901123 67.7309326,40.9459717 C67.9349854,40.4018311 68.2021973,39.9354248 68.5325684,39.5467529 C68.8629395,39.1580811 69.2564697,38.8568604 69.7131592,38.6430908 C70.1698486,38.4293213 70.6751221,38.3224365 71.2289795,38.3224365 C71.8702881,38.3224365 72.4338623,38.4317505 72.9197021,38.6503784 C73.405542,38.8690063 73.8112183,39.1726563 74.136731,39.5613281 C74.4622437,39.95 74.7027344,40.4139771 74.8582031,40.9532593 C75.0136719,41.4925415 75.0768311,42.0876953 75.0476807,42.7387207 L75.0476807,42.7387207 Z" id="state" fill="#9B9B9B"></path>
        </g>
    </g>
</svg>