<?xml version="1.0" encoding="UTF-8"?>
<svg width="1024px" height="400px" viewBox="0 0 1024 400" version="1.1" xmlns="http://www.w3.org/2000/svg" xmlns:xlink="http://www.w3.org/1999/xlink">
    <!-- Generator: Sketch 60.1 (88133) - https://sketch.com -->
    <title>tight-feedback-loops</title>
    <desc>Created with Sketch.</desc>
    <g id="tight-feedback-loops" stroke="none" stroke-width="1" fill="none" fill-rule="evenodd">
        <rect fill="#FFFFFF" x="0" y="0" width="1024" height="400"></rect>
        <g id="Message" transform="translate(386.000000, 177.233220)" fill-rule="nonzero">
            <circle id="Oval" fill="#B7EEF5" cx="50" cy="50" r="50"></circle>
            <path d="M40.4714349,67.9950503 C40.3146877,67.9983446 40.1575372,68 40,68 C35.4740329,68 31.2678783,66.6338923 27.7710571,64.2916116 L22.5815629,67.4063256 C20.6844887,68.5449421 19.4568707,67.708375 19.840924,65.5303004 L21.2532805,57.5204291 C19.1900352,54.1697503 18,50.2238866 18,46 C18,33.847064 27.8497355,24 40,24 C45.4000989,24 50.3449203,25.944758 54.172855,29.1719618 C42.8019426,30.5652163 34,40.2544273 34,52 C34,58.2166783 36.4653227,63.8562123 40.4714349,67.9950503 Z" id="Path" fill="#6ABBD7"></path>
            <path d="M76.5988431,64.0440849 L78.1077339,72.6014299 C78.4895695,74.7669272 77.2682003,75.6145536 75.3770564,74.4794964 L69.784804,71.1230485 C66.1290363,73.5717965 61.7316929,75 57,75 C44.2974508,75 34,64.7053422 34,52 C34,39.2974508 44.2946578,29 57,29 C69.7025492,29 80,39.2946578 80,52 C80,56.4158815 78.7558723,60.5411025 76.5988431,64.0440849 Z M44,52 C44,53.6534829 45.3431458,55 47,55 C48.6534829,55 50,53.6568542 50,52 C50,50.3465171 48.6568542,49 47,49 C45.3465171,49 44,50.3431458 44,52 Z M54,52 C54,53.6534829 55.3431458,55 57,55 C58.6534829,55 60,53.6568542 60,52 C60,50.3465171 58.6568542,49 57,49 C55.3465171,49 54,50.3431458 54,52 Z M64,52 C64,53.6534829 65.3431458,55 67,55 C68.6534829,55 70,53.6568542 70,52 C70,50.3465171 68.6568542,49 67,49 C65.3465171,49 64,50.3431458 64,52 Z" id="Shape" fill="#008ABA"></path>
        </g>
        <g id="Thumbs-up" transform="translate(538.000000, 177.233220)" fill-rule="nonzero">
            <circle id="Oval" fill="#FFC3C0" cx="50" cy="50" r="50"></circle>
            <path d="M78.931822,43.9603142 C79.1784304,42.404389 78.749058,40.8156104 77.7568659,39.6127008 C76.7994377,38.4613613 75.4024737,37.7934526 73.9281295,37.7821268 L56.8507496,38.1149585 C57.6764507,35.5600295 57.8370755,32.8277768 57.3166805,30.1894049 C57.1370983,29.1274837 56.8096154,28.0976297 56.344303,27.1315142 C55.9999193,26.5282568 53.4879441,21.5357822 49.8820442,22.0350296 C49.1242229,22.1769277 48.4214997,22.5377267 47.8562577,23.0751285 C47.6403206,23.2698949 47.515128,23.5496914 47.511874,23.8448017 C47.456779,26.3567461 47.2674206,28.8636901 46.9446538,31.3543157 C46.8471448,32.1698385 46.6213725,32.9637022 46.2761443,33.7049392 C45.7343998,34.7732448 45.1323927,35.8081696 44.4731943,36.8044339 C42.2019609,40.0524689 39.7677283,43.1769871 37.1803631,46.1653238 C36.7830797,46.5203084 36.5360351,47.0202074 36.4915254,47.5590564 L36.4915254,47.5590564 L36.4915254,66.4888561 C36.4858103,67.2034863 36.8376754,67.8711353 37.4234575,68.2570242 L43.9464899,72.5630336 C46.2029804,73.5125264 48.618407,74 51.0570003,73.9983701 L66.8378769,73.9983701 C68.831431,74.048898 70.6766157,72.9211647 71.5839522,71.0976811 C72.4912887,69.2741975 72.300038,67.0780023 71.0920284,65.4487572 C73.0630584,65.2998006 74.7802943,64.0134065 75.5202261,62.1315617 C76.2601579,60.249717 75.8941389,58.0996043 74.5763811,56.5871147 C76.2558864,55.9306281 77.4869442,54.4311385 77.8330377,52.6203452 C78.1791312,50.8095519 77.5913228,48.9435005 76.2780418,47.6838682 C77.6735946,46.9282569 78.6524854,45.5547624 78.931822,43.9603142 Z" id="Path" fill="#FA8F8A"></path>
            <path d="M22,46.1950483 C22,44.5327468 23.3373527,43.1851852 25.0026534,43.1851852 L33.488872,43.1851852 C35.1471917,43.1851852 36.4915254,44.5206176 36.4915254,46.1950483 L36.4915254,69.064211 C36.4915254,70.7265125 35.1541727,72.0740741 33.488872,72.0740741 L25.0026534,72.0740741 C23.3443337,72.0740741 22,70.7386416 22,69.064211 L22,46.1950483 Z" id="Path" fill="#DB514B"></path>
        </g>
        <path d="M505,212.269401 C500.522921,199.465787 496.625555,190.718381 493.307903,186.027181 C485.190219,174.548681 473.575476,167.617859 469.533116,165.305241 C459.752375,159.709715 447.913572,157 435,157 C422.086427,157 414.939676,159.54683 406.850355,162.98735 C396.902055,167.218525 388.981403,174.304469 382.803115,181.543956 C366,201.23322 366,222.23322 366,227.23322 C366,232.23322 367.784362,246.832624 371.228596,254.679933 C375.130208,263.569327 381.057763,273.171616 388.775208,280.103117 C392.434227,283.389503 400.862118,289.958872 410.773692,293.278931 C421.767176,296.961396 434.384265,298.23322 440,298.23322 C450.678804,298.23322 462.243382,294.755176 474.720485,287.156703 C483.367436,281.890767 490.881763,273.5381 497,263.569327 C501.279755,256.596091 506.334096,243.817389 512.163023,225.23322 C517.618028,209.270497 522.287284,198.324206 526.170789,192.394346 C530.99306,185.031052 535.879802,178.999543 540.831017,174.299818 C551.763252,163.922872 567.31958,158.234006 587.5,157.23322 C607.166667,157.23322 623.666667,163.899886 637,177.23322 C650.333333,190.566553 657.3339,207.399886 658.001699,227.73322 C657.789686,245.463698 651.717122,261.185499 639.784007,274.89862 C634.784659,280.643697 628.644665,286.052888 621.716426,289.714607 C612.107413,294.79317 599.18956,298.23322 587.5,298.23322 C575.81044,298.23322 560,296.297291 545.623627,284.387063 C540.717416,280.322471 536.788188,277.23322 528.78225,265.569327 C525.685687,261.057928 522.067817,252.53813 517.92864,240.009933" id="Path-3" stroke-opacity="0.934331294" stroke="#435977" stroke-width="7"></path>
        <text id="Give-and-get-feedbac" font-family="ProximaNova-Bold, Proxima Nova" font-size="18" font-weight="bold" fill="#435977">
            <tspan x="362.038" y="118">GIVE AND GET FEEDBACK QUICKER</tspan>
        </text>
    </g>
</svg>