<?xml version="1.0" encoding="UTF-8"?>
<svg width="1024px" height="400px" viewBox="0 0 1024 400" version="1.1" xmlns="http://www.w3.org/2000/svg" xmlns:xlink="http://www.w3.org/1999/xlink">
    <!-- Generator: Sketch 60.1 (88133) - https://sketch.com -->
    <title>too-many-files-open</title>
    <desc>Created with Sketch.</desc>
    <g id="too-many-files-open" stroke="none" stroke-width="1" fill="none" fill-rule="evenodd">
        <rect fill="#000000" x="0" y="0" width="1024" height="400"></rect>
        <path d="M299.208008,195 L299.208008,184.20752 L305.868164,184.20752 L305.868164,182.012695 L299.208008,182.012695 L299.208008,179.348633 C299.208008,176.866211 300.393717,175.625 302.765137,175.625 C303.76416,175.625 304.954915,175.771322 306.337402,176.063965 L306.337402,176.063965 L306.337402,173.793457 C305.065918,173.55127 303.905436,173.430176 302.855957,173.430176 C298.637858,173.430176 296.528809,175.453451 296.528809,179.5 L296.528809,179.5 L296.528809,182.012695 L291.639648,182.012695 L291.639648,184.20752 L296.528809,184.20752 L296.528809,195 L299.208008,195 Z M317.356934,195.211914 C318.123861,195.211914 318.868083,195.148844 319.5896,195.022705 C320.311117,194.896566 321.014974,194.702311 321.701172,194.439941 L321.701172,194.439941 L321.701172,191.987793 C321.075521,192.31071 320.427165,192.552897 319.756104,192.714355 C319.085042,192.875814 318.391276,192.956543 317.674805,192.956543 C316.090495,192.956543 314.851807,192.499919 313.95874,191.58667 C313.065674,190.673421 312.619141,189.298503 312.619141,187.461914 C312.619141,186.583984 312.750326,185.796875 313.012695,185.100586 C313.275065,184.404297 313.633301,183.813965 314.087402,183.32959 C314.541504,182.845215 315.068766,182.474365 315.669189,182.217041 C316.269613,181.959717 316.907878,181.831055 317.583984,181.831055 C318.310547,181.831055 319.014404,181.909261 319.695557,182.065674 C320.376709,182.222087 321.045247,182.471842 321.701172,182.814941 L321.701172,182.814941 L321.701172,180.302246 C321.075521,180.049967 320.419596,179.868327 319.733398,179.757324 C319.047201,179.646322 318.310547,179.59082 317.523438,179.59082 C316.393229,179.59082 315.358887,179.780029 314.42041,180.158447 C313.481934,180.536865 312.674642,181.074219 311.998535,181.770508 C311.322428,182.466797 310.797689,183.304362 310.424316,184.283203 C310.050944,185.262044 309.864258,186.351888 309.864258,187.552734 C309.864258,190.055339 310.512614,191.95752 311.809326,193.259277 C313.106038,194.561035 314.955241,195.211914 317.356934,195.211914 Z M329.572266,195 L329.572266,184.918945 C330.056641,184.313477 330.493083,183.808919 330.881592,183.405273 C331.270101,183.001628 331.630859,182.681234 331.963867,182.444092 C332.296875,182.20695 332.617269,182.040446 332.925049,181.94458 C333.232829,181.848714 333.548177,181.800781 333.871094,181.800781 C334.749023,181.800781 335.409993,182.085856 335.854004,182.656006 C336.298014,183.226156 336.52002,184.106608 336.52002,185.297363 L336.52002,185.297363 L336.52002,195 L339.153809,195 L339.153809,185.085449 C339.153809,183.228678 338.752686,181.838623 337.950439,180.915283 C337.148193,179.991943 335.965007,179.530273 334.400879,179.530273 C333.956868,179.530273 333.527995,179.573161 333.114258,179.658936 C332.700521,179.74471 332.294352,179.893555 331.895752,180.105469 C331.497152,180.317383 331.090983,180.597412 330.677246,180.945557 C330.263509,181.293701 329.834635,181.730143 329.390625,182.254883 L329.390625,182.254883 L329.284668,179.802734 L326.938477,179.802734 L326.938477,195 L329.572266,195 Z M352.443848,195.211914 C353.099772,195.211914 353.745605,195.179118 354.381348,195.113525 C355.01709,195.047933 355.63265,194.939453 356.228027,194.788086 L356.228027,194.788086 L356.228027,192.517578 C355.602376,192.679036 355.001953,192.797607 354.426758,192.873291 C353.851562,192.948975 353.321777,192.986816 352.837402,192.986816 C351.707194,192.986816 350.851969,192.716878 350.271729,192.177002 C349.691488,191.637126 349.401367,190.822266 349.401367,189.732422 L349.401367,189.732422 L349.401367,182.012695 L356.228027,182.012695 L356.228027,179.802734 L349.401367,179.802734 L349.401367,174.943848 L346.767578,175.625 L346.767578,179.802734 L342.51416,179.802734 L342.51416,182.012695 L346.767578,182.012695 L346.767578,189.944336 C346.767578,191.730469 347.236816,193.054932 348.175293,193.917725 C349.11377,194.780518 350.536621,195.211914 352.443848,195.211914 Z M373.393066,195 L373.393066,192.805176 L368.867188,192.805176 L368.867188,173.611816 L361.70752,173.611816 L361.70752,175.776367 L366.203125,175.776367 L366.203125,192.805176 L361.208008,192.805176 L361.208008,195 L373.393066,195 Z M384.17041,184.177246 C384.483236,184.177246 384.780924,184.116699 385.063477,183.995605 C385.346029,183.874512 385.593262,183.708008 385.805176,183.496094 C386.01709,183.28418 386.186117,183.039469 386.312256,182.761963 C386.438395,182.484456 386.501465,182.184245 386.501465,181.861328 C386.501465,181.548503 386.438395,181.250814 386.312256,180.968262 C386.186117,180.68571 386.01709,180.438477 385.805176,180.226562 C385.593262,180.014648 385.346029,179.845622 385.063477,179.719482 C384.780924,179.593343 384.483236,179.530273 384.17041,179.530273 C383.847493,179.530273 383.547282,179.593343 383.269775,179.719482 C382.992269,179.845622 382.747559,180.014648 382.535645,180.226562 C382.32373,180.438477 382.157227,180.68571 382.036133,180.968262 C381.915039,181.250814 381.854492,181.548503 381.854492,181.861328 C381.854492,182.184245 381.915039,182.484456 382.036133,182.761963 C382.157227,183.039469 382.32373,183.28418 382.535645,183.496094 C382.747559,183.708008 382.992269,183.874512 383.269775,183.995605 C383.547282,184.116699 383.847493,184.177246 384.17041,184.177246 Z M384.17041,195.272461 C384.483236,195.272461 384.780924,195.211914 385.063477,195.09082 C385.346029,194.969727 385.593262,194.803223 385.805176,194.591309 C386.01709,194.379395 386.186117,194.134684 386.312256,193.857178 C386.438395,193.579671 386.501465,193.27946 386.501465,192.956543 C386.501465,192.643717 386.438395,192.346029 386.312256,192.063477 C386.186117,191.780924 386.01709,191.533691 385.805176,191.321777 C385.593262,191.109863 385.346029,190.940837 385.063477,190.814697 C384.780924,190.688558 384.483236,190.625488 384.17041,190.625488 C383.847493,190.625488 383.547282,190.688558 383.269775,190.814697 C382.992269,190.940837 382.747559,191.109863 382.535645,191.321777 C382.32373,191.533691 382.157227,191.780924 382.036133,192.063477 C381.915039,192.346029 381.854492,192.643717 381.854492,192.956543 C381.854492,193.27946 381.915039,193.579671 382.036133,193.857178 C382.157227,194.134684 382.32373,194.379395 382.535645,194.591309 C382.747559,194.803223 382.992269,194.969727 383.269775,195.09082 C383.547282,195.211914 383.847493,195.272461 384.17041,195.272461 Z M420.619629,195.211914 C421.275553,195.211914 421.921387,195.179118 422.557129,195.113525 C423.192871,195.047933 423.808431,194.939453 424.403809,194.788086 L424.403809,194.788086 L424.403809,192.517578 C423.778158,192.679036 423.177734,192.797607 422.602539,192.873291 C422.027344,192.948975 421.497559,192.986816 421.013184,192.986816 C419.882975,192.986816 419.027751,192.716878 418.44751,192.177002 C417.867269,191.637126 417.577148,190.822266 417.577148,189.732422 L417.577148,189.732422 L417.577148,182.012695 L424.403809,182.012695 L424.403809,179.802734 L417.577148,179.802734 L417.577148,174.943848 L414.943359,175.625 L414.943359,179.802734 L410.689941,179.802734 L410.689941,182.012695 L414.943359,182.012695 L414.943359,189.944336 C414.943359,191.730469 415.412598,193.054932 416.351074,193.917725 C417.289551,194.780518 418.712402,195.211914 420.619629,195.211914 Z M435.150879,195.272461 C436.291178,195.272461 437.310384,195.078206 438.208496,194.689697 C439.106608,194.301188 439.86849,193.756266 440.494141,193.054932 C441.119792,192.353597 441.599121,191.510986 441.932129,190.5271 C442.265137,189.543213 442.431641,188.460938 442.431641,187.280273 C442.431641,186.028971 442.272705,184.918945 441.954834,183.950195 C441.636963,182.981445 441.177816,182.171631 440.577393,181.520752 C439.976969,180.869873 439.245361,180.375407 438.382568,180.037354 C437.519775,179.6993 436.543457,179.530273 435.453613,179.530273 C434.313314,179.530273 433.294108,179.724528 432.395996,180.113037 C431.497884,180.501546 430.736003,181.046468 430.110352,181.747803 C429.484701,182.449137 429.005371,183.286702 428.672363,184.260498 C428.339355,185.234294 428.172852,186.311523 428.172852,187.492188 C428.172852,188.753581 428.331787,189.868652 428.649658,190.837402 C428.967529,191.806152 429.426676,192.61849 430.0271,193.274414 C430.627523,193.930339 431.359131,194.427327 432.221924,194.765381 C433.084717,195.103434 434.061035,195.272461 435.150879,195.272461 Z M435.302246,193.047363 C434.616048,193.047363 434.000488,192.928792 433.455566,192.69165 C432.910645,192.454508 432.446452,192.101318 432.062988,191.63208 C431.679525,191.162842 431.384359,190.575033 431.17749,189.868652 C430.970622,189.162272 430.867188,188.339844 430.867188,187.401367 C430.867188,186.654622 430.950439,185.940674 431.116943,185.259521 C431.283447,184.578369 431.545817,183.980469 431.904053,183.46582 C432.262288,182.951172 432.721436,182.539958 433.281494,182.232178 C433.841553,181.924398 434.515137,181.770508 435.302246,181.770508 C435.978353,181.770508 436.59139,181.889079 437.141357,182.126221 C437.691325,182.363363 438.15804,182.716553 438.541504,183.185791 C438.924967,183.655029 439.220133,184.240316 439.427002,184.94165 C439.63387,185.642985 439.737305,186.462891 439.737305,187.401367 C439.737305,188.158203 439.654053,188.877197 439.487549,189.55835 C439.321045,190.239502 439.058675,190.837402 438.700439,191.352051 C438.342204,191.866699 437.883057,192.277913 437.322998,192.585693 C436.762939,192.893473 436.089355,193.047363 435.302246,193.047363 Z M452.194824,195.272461 C453.335124,195.272461 454.354329,195.078206 455.252441,194.689697 C456.150553,194.301188 456.912435,193.756266 457.538086,193.054932 C458.163737,192.353597 458.643066,191.510986 458.976074,190.5271 C459.309082,189.543213 459.475586,188.460938 459.475586,187.280273 C459.475586,186.028971 459.31665,184.918945 458.998779,183.950195 C458.680908,182.981445 458.221761,182.171631 457.621338,181.520752 C457.020915,180.869873 456.289307,180.375407 455.426514,180.037354 C454.563721,179.6993 453.587402,179.530273 452.497559,179.530273 C451.357259,179.530273 450.338053,179.724528 449.439941,180.113037 C448.541829,180.501546 447.779948,181.046468 447.154297,181.747803 C446.528646,182.449137 446.049316,183.286702 445.716309,184.260498 C445.383301,185.234294 445.216797,186.311523 445.216797,187.492188 C445.216797,188.753581 445.375732,189.868652 445.693604,190.837402 C446.011475,191.806152 446.470622,192.61849 447.071045,193.274414 C447.671468,193.930339 448.403076,194.427327 449.265869,194.765381 C450.128662,195.103434 451.10498,195.272461 452.194824,195.272461 Z M452.346191,193.047363 C451.659993,193.047363 451.044434,192.928792 450.499512,192.69165 C449.95459,192.454508 449.490397,192.101318 449.106934,191.63208 C448.72347,191.162842 448.428304,190.575033 448.221436,189.868652 C448.014567,189.162272 447.911133,188.339844 447.911133,187.401367 C447.911133,186.654622 447.994385,185.940674 448.160889,185.259521 C448.327393,184.578369 448.589762,183.980469 448.947998,183.46582 C449.306234,182.951172 449.765381,182.539958 450.325439,182.232178 C450.885498,181.924398 451.559082,181.770508 452.346191,181.770508 C453.022298,181.770508 453.635335,181.889079 454.185303,182.126221 C454.73527,182.363363 455.201986,182.716553 455.585449,183.185791 C455.968913,183.655029 456.264079,184.240316 456.470947,184.94165 C456.677816,185.642985 456.78125,186.462891 456.78125,187.401367 C456.78125,188.158203 456.697998,188.877197 456.531494,189.55835 C456.36499,190.239502 456.10262,190.837402 455.744385,191.352051 C455.386149,191.866699 454.927002,192.277913 454.366943,192.585693 C453.806885,192.893473 453.133301,193.047363 452.346191,193.047363 Z M481.696289,195 L481.696289,185.236816 C482.029297,184.530436 482.316895,183.950195 482.559082,183.496094 C482.80127,183.041992 483.020752,182.683757 483.217529,182.421387 C483.414307,182.159017 483.593424,181.977376 483.754883,181.876465 C483.916341,181.775553 484.087891,181.725098 484.269531,181.725098 C484.441081,181.725098 484.587402,181.760417 484.708496,181.831055 C484.82959,181.901693 484.927979,182.032878 485.003662,182.224609 C485.079346,182.416341 485.134847,182.683757 485.170166,183.026855 C485.205485,183.369954 485.223145,183.81901 485.223145,184.374023 L485.223145,184.374023 L485.223145,195 L487.629883,195 L487.629883,185.236816 C487.952799,184.580892 488.232829,184.028402 488.469971,183.579346 C488.707113,183.13029 488.924072,182.769531 489.12085,182.49707 C489.317627,182.224609 489.50179,182.027832 489.67334,181.906738 C489.844889,181.785645 490.031576,181.725098 490.233398,181.725098 C490.404948,181.725098 490.548747,181.760417 490.664795,181.831055 C490.780843,181.901693 490.876709,182.025309 490.952393,182.201904 C491.028076,182.378499 491.083577,182.618164 491.118896,182.920898 C491.154215,183.223633 491.171875,183.612142 491.171875,184.086426 L491.171875,184.086426 L491.171875,195 L493.59375,195 L493.59375,183.935059 C493.59375,180.998535 492.640137,179.530273 490.73291,179.530273 C490.309082,179.530273 489.93571,179.603434 489.612793,179.749756 C489.289876,179.896077 488.99471,180.107992 488.727295,180.385498 C488.45988,180.663005 488.210124,181.006104 487.978027,181.414795 C487.745931,181.823486 487.508789,182.290202 487.266602,182.814941 C487.266602,181.694824 487.054688,180.86735 486.630859,180.33252 C486.207031,179.797689 485.586426,179.530273 484.769043,179.530273 C484.405762,179.530273 484.075277,179.588298 483.777588,179.704346 C483.479899,179.820394 483.19987,180.002035 482.9375,180.249268 C482.67513,180.496501 482.420329,180.82194 482.173096,181.225586 C481.925863,181.629232 481.671061,182.118652 481.408691,182.693848 L481.408691,182.693848 L481.287598,179.802734 L479.274414,179.802734 L479.274414,195 L481.696289,195 Z M501.873535,195.272461 C502.812012,195.272461 503.707601,195.09082 504.560303,194.727539 C505.413005,194.364258 506.253092,193.773926 507.080566,192.956543 L507.080566,192.956543 L507.141113,195 L509.502441,195 L509.502441,184.525391 C509.502441,183.677734 509.366211,182.941081 509.09375,182.31543 C508.821289,181.689779 508.430257,181.170085 507.920654,180.756348 C507.411051,180.342611 506.787923,180.034831 506.05127,179.833008 C505.314616,179.631185 504.487142,179.530273 503.568848,179.530273 C503.06429,179.530273 502.564779,179.558024 502.070312,179.613525 C501.575846,179.669027 501.101562,179.742188 500.647461,179.833008 C500.193359,179.923828 499.761963,180.027262 499.353271,180.143311 C498.94458,180.259359 498.57373,180.37793 498.240723,180.499023 L498.240723,180.499023 L498.240723,182.875488 C499.128743,182.522298 499.989014,182.249837 500.821533,182.058105 C501.654053,181.866374 502.499186,181.770508 503.356934,181.770508 C504.537598,181.770508 505.415527,182.040446 505.990723,182.580322 C506.565918,183.120199 506.853516,183.839193 506.853516,184.737305 L506.853516,184.737305 L506.853516,186.069336 L503.705078,186.069336 C501.485026,186.069336 499.807373,186.500732 498.672119,187.363525 C497.536865,188.226318 496.969238,189.419596 496.969238,190.943359 C496.969238,191.558919 497.062581,192.129069 497.249268,192.653809 C497.435954,193.178548 497.728597,193.635173 498.127197,194.023682 C498.525798,194.412191 499.032878,194.717448 499.648438,194.939453 C500.263997,195.161458 501.005697,195.272461 501.873535,195.272461 Z M502.297363,193.077637 C501.833171,193.077637 501.439616,193.01709 501.116699,192.895996 C500.793783,192.774902 500.531413,192.610921 500.32959,192.404053 C500.127767,192.197184 499.981445,191.960042 499.890625,191.692627 C499.799805,191.425212 499.754395,191.145182 499.754395,190.852539 C499.754395,190.428711 499.827555,190.04777 499.973877,189.709717 C500.120199,189.371663 500.344727,189.081543 500.647461,188.839355 C500.950195,188.597168 501.338704,188.410482 501.812988,188.279297 C502.287272,188.148112 502.852376,188.08252 503.508301,188.08252 L503.508301,188.08252 L506.853516,188.08252 L506.853516,190.776855 C505.985677,191.574056 505.160726,192.15682 504.378662,192.525146 C503.596598,192.893473 502.902832,193.077637 502.297363,193.077637 Z M517.055664,195 L517.055664,184.918945 C517.540039,184.313477 517.976481,183.808919 518.36499,183.405273 C518.753499,183.001628 519.114258,182.681234 519.447266,182.444092 C519.780273,182.20695 520.100667,182.040446 520.408447,181.94458 C520.716227,181.848714 521.031576,181.800781 521.354492,181.800781 C522.232422,181.800781 522.893392,182.085856 523.337402,182.656006 C523.781413,183.226156 524.003418,184.106608 524.003418,185.297363 L524.003418,185.297363 L524.003418,195 L526.637207,195 L526.637207,185.085449 C526.637207,183.228678 526.236084,181.838623 525.433838,180.915283 C524.631592,179.991943 523.448405,179.530273 521.884277,179.530273 C521.440267,179.530273 521.011393,179.573161 520.597656,179.658936 C520.183919,179.74471 519.777751,179.893555 519.37915,180.105469 C518.98055,180.317383 518.574382,180.597412 518.160645,180.945557 C517.746908,181.293701 517.318034,181.730143 516.874023,182.254883 L516.874023,182.254883 L516.768066,179.802734 L514.421875,179.802734 L514.421875,195 L517.055664,195 Z M531.344727,201.296875 C532.34375,201.296875 533.246908,201.145508 534.054199,200.842773 C534.861491,200.540039 535.60319,200.068278 536.279297,199.42749 C536.955404,198.786702 537.578532,197.966797 538.148682,196.967773 C538.718831,195.96875 539.271322,194.777995 539.806152,193.395508 L539.806152,193.395508 L544.98291,179.802734 L542.091797,179.802734 L538.534668,189.792969 L537.656738,192.214844 L536.884766,189.853516 L533.040039,179.802734 L530.042969,179.802734 L536.112793,195 C535.789876,195.716471 535.456868,196.326986 535.11377,196.831543 C534.770671,197.3361 534.412435,197.747314 534.039062,198.065186 C533.66569,198.383057 533.269613,198.61263 532.85083,198.753906 C532.432048,198.895182 531.980469,198.96582 531.496094,198.96582 C531.203451,198.96582 530.925944,198.953206 530.663574,198.927979 C530.401204,198.902751 530.159017,198.875 529.937012,198.844727 L529.937012,198.844727 L529.937012,201.236328 C530.18929,201.25651 530.421387,201.271647 530.633301,201.281738 C530.845215,201.291829 531.082357,201.296875 531.344727,201.296875 Z M571.502441,195.272461 C572.642741,195.272461 573.661947,195.078206 574.560059,194.689697 C575.458171,194.301188 576.220052,193.756266 576.845703,193.054932 C577.471354,192.353597 577.950684,191.510986 578.283691,190.5271 C578.616699,189.543213 578.783203,188.460938 578.783203,187.280273 C578.783203,186.028971 578.624268,184.918945 578.306396,183.950195 C577.988525,182.981445 577.529378,182.171631 576.928955,181.520752 C576.328532,180.869873 575.596924,180.375407 574.734131,180.037354 C573.871338,179.6993 572.89502,179.530273 571.805176,179.530273 C570.664876,179.530273 569.645671,179.724528 568.747559,180.113037 C567.849447,180.501546 567.087565,181.046468 566.461914,181.747803 C565.836263,182.449137 565.356934,183.286702 565.023926,184.260498 C564.690918,185.234294 564.524414,186.311523 564.524414,187.492188 C564.524414,188.753581 564.68335,189.868652 565.001221,190.837402 C565.319092,191.806152 565.778239,192.61849 566.378662,193.274414 C566.979085,193.930339 567.710693,194.427327 568.573486,194.765381 C569.436279,195.103434 570.412598,195.272461 571.502441,195.272461 Z M571.653809,193.047363 C570.967611,193.047363 570.352051,192.928792 569.807129,192.69165 C569.262207,192.454508 568.798014,192.101318 568.414551,191.63208 C568.031087,191.162842 567.735921,190.575033 567.529053,189.868652 C567.322184,189.162272 567.21875,188.339844 567.21875,187.401367 C567.21875,186.654622 567.302002,185.940674 567.468506,185.259521 C567.63501,184.578369 567.89738,183.980469 568.255615,183.46582 C568.613851,182.951172 569.072998,182.539958 569.633057,182.232178 C570.193115,181.924398 570.866699,181.770508 571.653809,181.770508 C572.329915,181.770508 572.942952,181.889079 573.49292,182.126221 C574.042887,182.363363 574.509603,182.716553 574.893066,183.185791 C575.27653,183.655029 575.571696,184.240316 575.778564,184.94165 C575.985433,185.642985 576.088867,186.462891 576.088867,187.401367 C576.088867,188.158203 576.005615,188.877197 575.839111,189.55835 C575.672607,190.239502 575.410238,190.837402 575.052002,191.352051 C574.693766,191.866699 574.234619,192.277913 573.674561,192.585693 C573.114502,192.893473 572.440918,193.047363 571.653809,193.047363 Z M585.231445,201.206055 L585.231445,194.848633 C585.725911,194.969727 586.212809,195.055501 586.692139,195.105957 C587.171468,195.156413 587.65332,195.181641 588.137695,195.181641 C589.197266,195.181641 590.181152,195.015137 591.089355,194.682129 C591.997559,194.349121 592.784668,193.849609 593.450684,193.183594 C594.116699,192.517578 594.638916,191.680013 595.017334,190.670898 C595.395752,189.661784 595.584961,188.48112 595.584961,187.128906 C595.584961,185.978516 595.473958,184.936605 595.251953,184.003174 C595.029948,183.069743 594.69694,182.272542 594.25293,181.611572 C593.808919,180.950602 593.258952,180.438477 592.603027,180.075195 C591.947103,179.711914 591.185221,179.530273 590.317383,179.530273 C589.318359,179.530273 588.389974,179.739665 587.532227,180.158447 C586.674479,180.57723 585.867188,181.306315 585.110352,182.345703 L585.110352,182.345703 L584.943848,179.802734 L582.597656,179.802734 L582.597656,201.206055 L585.231445,201.206055 Z M588.334473,193.047363 C587.819824,193.047363 587.295085,192.989339 586.760254,192.873291 C586.225423,192.757243 585.71582,192.598307 585.231445,192.396484 L585.231445,192.396484 L585.231445,185.024902 C585.695638,184.419434 586.13208,183.912354 586.540771,183.503662 C586.949463,183.094971 587.337972,182.767008 587.706299,182.519775 C588.074626,182.272542 588.430339,182.095947 588.773438,181.98999 C589.116536,181.884033 589.45459,181.831055 589.787598,181.831055 C590.33252,181.831055 590.801758,181.964762 591.195312,182.232178 C591.588867,182.499593 591.911784,182.870443 592.164062,183.344727 C592.416341,183.81901 592.600505,184.38916 592.716553,185.055176 C592.832601,185.721191 592.890625,186.452799 592.890625,187.25 C592.890625,189.1875 592.486979,190.638102 591.679688,191.601807 C590.872396,192.565511 589.757324,193.047363 588.334473,193.047363 Z M606.422852,195.272461 C607.391602,195.272461 608.327555,195.209391 609.230713,195.083252 C610.13387,194.957113 610.943685,194.793132 611.660156,194.591309 L611.660156,194.591309 L611.660156,192.426758 C611.33724,192.517578 610.986572,192.60083 610.608154,192.676514 C610.229736,192.752197 609.833659,192.820312 609.419922,192.880859 C609.006185,192.941406 608.577311,192.989339 608.133301,193.024658 C607.68929,193.059977 607.24528,193.077637 606.80127,193.077637 C605.166504,193.077637 603.915202,192.661377 603.047363,191.828857 C602.179525,190.996338 601.745605,189.80306 601.745605,188.249023 L601.745605,188.249023 L612.416992,188.249023 C612.437174,188.027018 612.452311,187.789876 612.462402,187.537598 C612.472493,187.285319 612.477539,186.972493 612.477539,186.599121 C612.477539,185.519368 612.33374,184.54305 612.046143,183.670166 C611.758545,182.797282 611.334717,182.055583 610.774658,181.445068 C610.2146,180.834554 609.525879,180.362793 608.708496,180.029785 C607.891113,179.696777 606.952637,179.530273 605.893066,179.530273 C604.803223,179.530273 603.829427,179.742188 602.97168,180.166016 C602.113932,180.589844 601.389893,181.162516 600.799561,181.884033 C600.209229,182.60555 599.760173,183.443115 599.452393,184.396729 C599.144613,185.350342 598.990723,186.361979 598.990723,187.431641 C598.990723,188.66276 599.134521,189.765218 599.422119,190.739014 C599.709717,191.712809 600.153727,192.535238 600.75415,193.206299 C601.354574,193.87736 602.124023,194.389486 603.0625,194.742676 C604.000977,195.095866 605.121094,195.272461 606.422852,195.272461 Z M609.737793,186.220703 L601.745605,186.220703 C601.796061,185.544596 601.927246,184.923991 602.13916,184.358887 C602.351074,183.793783 602.628581,183.309408 602.97168,182.905762 C603.314779,182.502116 603.72347,182.18929 604.197754,181.967285 C604.672038,181.74528 605.196777,181.634277 605.771973,181.634277 C606.437988,181.634277 607.023275,181.747803 607.527832,181.974854 C608.032389,182.201904 608.453695,182.517253 608.791748,182.920898 C609.129801,183.324544 609.379557,183.806396 609.541016,184.366455 C609.702474,184.926514 609.768066,185.544596 609.737793,186.220703 L609.737793,186.220703 Z M619.319336,195 L619.319336,184.918945 C619.803711,184.313477 620.240153,183.808919 620.628662,183.405273 C621.017171,183.001628 621.37793,182.681234 621.710938,182.444092 C622.043945,182.20695 622.364339,182.040446 622.672119,181.94458 C622.979899,181.848714 623.295247,181.800781 623.618164,181.800781 C624.496094,181.800781 625.157064,182.085856 625.601074,182.656006 C626.045085,183.226156 626.26709,184.106608 626.26709,185.297363 L626.26709,185.297363 L626.26709,195 L628.900879,195 L628.900879,185.085449 C628.900879,183.228678 628.499756,181.838623 627.69751,180.915283 C626.895264,179.991943 625.712077,179.530273 624.147949,179.530273 C623.703939,179.530273 623.275065,179.573161 622.861328,179.658936 C622.447591,179.74471 622.041423,179.893555 621.642822,180.105469 C621.244222,180.317383 620.838053,180.597412 620.424316,180.945557 C620.010579,181.293701 619.581706,181.730143 619.137695,182.254883 L619.137695,182.254883 L619.031738,179.802734 L616.685547,179.802734 L616.685547,195 L619.319336,195 Z M657.130859,195 L657.130859,184.20752 L663.791016,184.20752 L663.791016,182.012695 L657.130859,182.012695 L657.130859,179.348633 C657.130859,176.866211 658.316569,175.625 660.687988,175.625 C661.687012,175.625 662.877767,175.771322 664.260254,176.063965 L664.260254,176.063965 L664.260254,173.793457 C662.98877,173.55127 661.828288,173.430176 660.778809,173.430176 C656.56071,173.430176 654.45166,175.453451 654.45166,179.5 L654.45166,179.5 L654.45166,182.012695 L649.5625,182.012695 L649.5625,184.20752 L654.45166,184.20752 L654.45166,195 L657.130859,195 Z M673.91748,177.577637 C674.210124,177.577637 674.482585,177.524658 674.734863,177.418701 C674.987142,177.312744 675.206624,177.1639 675.393311,176.972168 C675.579997,176.780436 675.726318,176.558431 675.832275,176.306152 C675.938232,176.053874 675.991211,175.786458 675.991211,175.503906 C675.991211,175.211263 675.938232,174.941325 675.832275,174.694092 C675.726318,174.446859 675.579997,174.227376 675.393311,174.035645 C675.206624,173.843913 674.987142,173.695068 674.734863,173.589111 C674.482585,173.483154 674.210124,173.430176 673.91748,173.430176 C673.624837,173.430176 673.352376,173.483154 673.100098,173.589111 C672.847819,173.695068 672.628337,173.843913 672.44165,174.035645 C672.254964,174.227376 672.108643,174.446859 672.002686,174.694092 C671.896729,174.941325 671.84375,175.211263 671.84375,175.503906 C671.84375,175.786458 671.896729,176.053874 672.002686,176.306152 C672.108643,176.558431 672.254964,176.780436 672.44165,176.972168 C672.628337,177.1639 672.847819,177.312744 673.100098,177.418701 C673.352376,177.524658 673.624837,177.577637 673.91748,177.577637 Z M680.184082,195 L680.184082,192.805176 L675.658203,192.805176 L675.658203,179.802734 L668.498535,179.802734 L668.498535,181.982422 L672.994141,181.982422 L672.994141,192.805176 L667.999023,192.805176 L667.999023,195 L680.184082,195 Z M697.228027,195 L697.228027,192.805176 L692.702148,192.805176 L692.702148,173.611816 L685.54248,173.611816 L685.54248,175.776367 L690.038086,175.776367 L690.038086,192.805176 L685.042969,192.805176 L685.042969,195 L697.228027,195 Z M708.686523,195.272461 C709.655273,195.272461 710.591227,195.209391 711.494385,195.083252 C712.397542,194.957113 713.207357,194.793132 713.923828,194.591309 L713.923828,194.591309 L713.923828,192.426758 C713.600911,192.517578 713.250244,192.60083 712.871826,192.676514 C712.493408,192.752197 712.097331,192.820312 711.683594,192.880859 C711.269857,192.941406 710.840983,192.989339 710.396973,193.024658 C709.952962,193.059977 709.508952,193.077637 709.064941,193.077637 C707.430176,193.077637 706.178874,192.661377 705.311035,191.828857 C704.443197,190.996338 704.009277,189.80306 704.009277,188.249023 L704.009277,188.249023 L714.680664,188.249023 C714.700846,188.027018 714.715983,187.789876 714.726074,187.537598 C714.736165,187.285319 714.741211,186.972493 714.741211,186.599121 C714.741211,185.519368 714.597412,184.54305 714.309814,183.670166 C714.022217,182.797282 713.598389,182.055583 713.03833,181.445068 C712.478271,180.834554 711.789551,180.362793 710.972168,180.029785 C710.154785,179.696777 709.216309,179.530273 708.156738,179.530273 C707.066895,179.530273 706.093099,179.742188 705.235352,180.166016 C704.377604,180.589844 703.653564,181.162516 703.063232,181.884033 C702.4729,182.60555 702.023844,183.443115 701.716064,184.396729 C701.408285,185.350342 701.254395,186.361979 701.254395,187.431641 C701.254395,188.66276 701.398193,189.765218 701.685791,190.739014 C701.973389,191.712809 702.417399,192.535238 703.017822,193.206299 C703.618245,193.87736 704.387695,194.389486 705.326172,194.742676 C706.264648,195.095866 707.384766,195.272461 708.686523,195.272461 Z M712.001465,186.220703 L704.009277,186.220703 C704.059733,185.544596 704.190918,184.923991 704.402832,184.358887 C704.614746,183.793783 704.892253,183.309408 705.235352,182.905762 C705.578451,182.502116 705.987142,182.18929 706.461426,181.967285 C706.93571,181.74528 707.460449,181.634277 708.035645,181.634277 C708.70166,181.634277 709.286947,181.747803 709.791504,181.974854 C710.296061,182.201904 710.717367,182.517253 711.05542,182.920898 C711.393473,183.324544 711.643229,183.806396 711.804688,184.366455 C711.966146,184.926514 712.031738,185.544596 712.001465,186.220703 L712.001465,186.220703 Z M724.655762,195.272461 C725.130046,195.272461 725.614421,195.237142 726.108887,195.166504 C726.603353,195.095866 727.085205,194.984863 727.554443,194.833496 C728.023682,194.682129 728.465169,194.490397 728.878906,194.258301 C729.292643,194.026204 729.655924,193.746175 729.96875,193.418213 C730.281576,193.090251 730.528809,192.714355 730.710449,192.290527 C730.89209,191.866699 730.98291,191.38737 730.98291,190.852539 C730.98291,190.287435 730.899658,189.782878 730.733154,189.338867 C730.56665,188.894857 730.291667,188.496257 729.908203,188.143066 C729.52474,187.789876 729.025228,187.469482 728.409668,187.181885 C727.794108,186.894287 727.037272,186.619303 726.13916,186.356934 C725.311686,186.114746 724.640625,185.890218 724.125977,185.68335 C723.611328,185.476481 723.210205,185.269613 722.922607,185.062744 C722.63501,184.855876 722.438232,184.641439 722.332275,184.419434 C722.226318,184.197428 722.17334,183.950195 722.17334,183.677734 C722.17334,183.405273 722.233887,183.150472 722.35498,182.91333 C722.476074,182.676188 722.675374,182.46932 722.952881,182.292725 C723.230387,182.11613 723.593669,181.977376 724.042725,181.876465 C724.491781,181.775553 725.044271,181.725098 725.700195,181.725098 C726.245117,181.725098 726.888428,181.773031 727.630127,181.868896 C728.371826,181.964762 729.156413,182.113607 729.983887,182.31543 L729.983887,182.31543 L729.983887,179.969238 C729.196777,179.80778 728.439941,179.694255 727.713379,179.628662 C726.986816,179.56307 726.325846,179.530273 725.730469,179.530273 C724.519531,179.530273 723.510417,179.674072 722.703125,179.96167 C721.895833,180.249268 721.255046,180.610026 720.780762,181.043945 C720.306478,181.477865 719.970947,181.947103 719.77417,182.45166 C719.577393,182.956217 719.479004,183.42041 719.479004,183.844238 C719.479004,184.490072 719.600098,185.05013 719.842285,185.524414 C720.084473,185.998698 720.41748,186.412435 720.841309,186.765625 C721.265137,187.118815 721.767171,187.424072 722.347412,187.681396 C722.927653,187.938721 723.560872,188.168294 724.24707,188.370117 C725.165365,188.642578 725.889404,188.884766 726.419189,189.09668 C726.948975,189.308594 727.340007,189.512939 727.592285,189.709717 C727.844564,189.906494 728.018636,190.113363 728.114502,190.330322 C728.210368,190.547282 728.258301,190.791992 728.258301,191.064453 C728.258301,191.700195 727.955566,192.189616 727.350098,192.532715 C726.744629,192.875814 725.811198,193.047363 724.549805,193.047363 C723.681966,193.047363 722.809082,192.981771 721.931152,192.850586 C721.053223,192.719401 720.170247,192.527669 719.282227,192.275391 L719.282227,192.275391 L719.282227,194.697266 C720.109701,194.899089 720.954834,195.04541 721.817627,195.13623 C722.68042,195.227051 723.626465,195.272461 724.655762,195.272461 Z" id="fcntl:toomanyopenfiles" fill="#9B9B9B" fill-rule="nonzero"></path>
    </g>
</svg>